<?xml version="1.0" standalone="no"?>
<!DOCTYPE svg PUBLIC "-//W3C//DTD SVG 1.1//EN" "http://www.w3.org/Graphics/SVG/1.1/DTD/svg11.dtd" >
<svg xmlns="http://www.w3.org/2000/svg">
<metadata>Generated by IcoMoon</metadata>
<defs>
<font id="vis-fonts" horiz-adv-x="1024">
<font-face units-per-em="1024" ascent="960" descent="-64" />
<missing-glyph horiz-adv-x="1024" />
<glyph unicode="&#x20;" horiz-adv-x="512" d="" />
<glyph unicode="&#xe900;" glyph-name="arrow-down" d="M877.449 597.504l-356.181-356.164-356.164 356.164-59.477-59.477 415.642-415.625 415.642 415.625z" />
<glyph unicode="&#xe901;" glyph-name="arrow-right" d="M274.449 755.507l356.164-356.181-356.164-356.164 59.46-59.46 415.625 415.625-415.625 415.642z" />
<glyph unicode="&#xe902;" glyph-name="arrow-left" d="M749.534 755.507l-356.164-356.181 356.164-356.164-59.46-59.46-415.625 415.625 415.625 415.642z" />
<glyph unicode="&#xe903;" glyph-name="arrow-up" d="M155.819 161.792l356.181 356.181 356.164-356.181 59.477 59.477-415.642 415.625-415.642-415.625z" />
<glyph unicode="&#xe904;" glyph-name="viewdocumentx" d="M658.654 891.733h-15.223l214.187-256-214.784-0.188 0.597 256.188h-456.926c-23.842 0-43.179-19.115-43.179-42.667v-768c0-23.569 19.337-42.667 43.179-42.667h647.526c23.842 0 43.162 19.098 43.162 42.667v554.667c0-9.335-214.477 256-218.539 256zM306.176 379.085c-8.704 98.15 63.403 184.969 161.058 193.946 97.655 8.926 183.91-63.317 192.614-161.468s-63.403-184.969-161.058-193.946c-97.673-8.96-183.91 63.351-192.614 161.468zM699.017 177.869c-25.037-24.542-40.465-8.619-40.465-8.619l-59.136 60.996 52.361 51.302 57.873-59.682c16.725-17.271-10.633-43.998-10.633-43.998zM607.915 406.801c-6.059 68.198-66.014 118.46-133.905 112.213-67.891-6.212-118.016-66.577-111.974-134.775 6.059-68.233 66.014-118.46 133.905-112.23 67.891 6.212 118.016 66.543 111.974 134.793z" />
<glyph unicode="&#xe905;" glyph-name="createdocumentx" d="M660.395 874.667h-15.223l214.187-256-214.767-0.188 0.563 256.188h-456.909c-23.842 0-43.179-19.115-43.179-42.667v-768c0-23.569 19.337-42.667 43.179-42.667h647.509c23.842 0 43.179 19.098 43.179 42.667v554.667c0-9.335-214.477 256-218.539 256zM680.243 299.554h-142.302v-142.046h-107.93v142.046h-142.302v108.442h142.302v142.029h107.93v-142.029h142.302v-108.442z" />
<glyph unicode="&#xe906;" glyph-name="viewdocument" d="M627.456 377.446c-8.721 98.15-94.959 170.394-192.614 161.468-97.655-8.977-169.762-95.795-161.058-193.946 8.704-98.116 94.942-170.428 192.614-161.468 97.655 8.977 169.762 95.795 161.058 193.946zM463.548 237.875c-67.891-6.229-127.846 43.998-133.905 112.23-6.059 68.198 44.083 128.563 111.974 134.775 67.891 6.246 127.846-44.015 133.905-112.213 6.042-68.233-44.083-128.563-111.974-134.793zM677.257 187.75l-57.873 59.682-52.361-51.302 59.136-60.996c0 0 15.428-15.923 40.465 8.619 0 0 27.341 26.726 10.633 43.998zM660.395 882.176h-472.149c-23.842 0-43.179-19.098-43.179-42.667v-768c0-23.569 19.337-42.667 43.179-42.667h647.509c23.842 0 43.179 19.098 43.179 42.667v554.667c0-9.318-214.477 256-218.539 256zM810.667 94.362l-598.494 0.666v720.623h388.54l0.683-294.502 209.271-1.468v-425.318zM668.006 587.315v180.599l159.59-180.599h-159.59z" />
<glyph unicode="&#xe907;" glyph-name="uploaddocumentx" d="M674.253 880.043h-15.223l214.187-256-214.784-0.188 0.58 256.188h-456.909c-23.842 0-43.179-19.115-43.179-42.667v-768c0-23.569 19.337-42.667 43.179-42.667h647.526c23.842 0 43.162 19.098 43.162 42.667v554.667c0.017-9.318-214.46 256-218.539 256zM576.427 418.27v-285.201h-101.12v285.201h-120.098l170.684 175.599 170.65-175.599h-120.115z" />
<glyph unicode="&#xe908;" glyph-name="uploaddocument" d="M304.777 420.386h120.098v-285.184h101.137v285.184h120.098l-170.65 175.616zM675.021 882.176h-472.149c-23.842 0-43.179-19.098-43.179-42.667v-768c0-23.569 19.319-42.667 43.179-42.667h647.526c23.842 0 43.162 19.098 43.162 42.667v554.667c0.017-9.318-214.46 256-218.539 256zM825.31 94.362l-598.494 0.666v720.623h388.557l0.666-294.502 209.271-1.468v-425.318zM682.65 587.315v180.599l159.59-180.599h-159.59z" />
<glyph unicode="&#xe909;" glyph-name="createdocument" d="M548.898 523.691h-107.93v-142.029h-142.302v-108.493h142.302v-142.012h107.93v142.012h142.302v108.493h-142.302zM677.461 874.667h-472.149c-23.842 0-43.179-19.098-43.179-42.667v-768c0-23.569 19.337-42.667 43.179-42.667h647.526c23.842 0 43.162 19.098 43.162 42.667v554.667c0-9.335-214.477 256-218.539 256zM827.733 86.852l-598.494 0.666v720.623h388.557l0.666-294.502 209.271-1.468v-425.318zM685.073 579.806v180.599l159.59-180.599h-159.59z" />
<glyph unicode="&#xe90a;" glyph-name="attachmentx" d="M667.853 882.176h-15.241l214.204-256-214.784-0.171 0.58 256.171h-456.909c-23.842 0-43.162-19.098-43.162-42.667v-768c0-23.552 19.319-42.667 43.162-42.667h647.526c23.825 0 43.162 19.115 43.162 42.667v554.667c0.017-9.318-214.46 256-218.539 256zM626.415 238.831c0 0-2.236-112.401-129.758-112.401h-94.976c0 0-145.801-4.83-145.801 135.39v352.461c0 0 0 109.295 117.709 109.295h43.264c0 0 107.008-2.185 107.008-111.94v-313.344c0 0 5.786-64.102-70.878-64.102h-35.669c0 0-55.125-6.827-55.125 66.475l-1.946 232.516c0 0-2.679 22.938 21.402 22.938h15.479c0 0 22.306 0.905 22.306-20.275v-232.243c0 0-1.673-11.895 20.617-11.895 0 0 25.873-2.628 25.873 15.872v308.48c0 0 0.887 50.688-56.183 50.688h-44.595c0 0-50.381 4.42-50.381-52.873v-343.774c0 0-8.465-85.487 89.634-85.487h72.226c0 0 93.184-5.308 93.184 78.882v235.349c0 0 4.83 20.548 31.13 20.548 0 0 22.818-3.26 25.498-20.122v-260.437z" />
<glyph unicode="&#xe90b;" glyph-name="attachment" d="M677.461 882.176h-472.149c-23.842 0-43.162-19.115-43.162-42.667v-225.331c12.698 21.197 46.473 39.305 67.106 51.081v150.391h388.557l0.666-294.502 209.254-1.485v-425.301l-259.908 0.29c-8.96-10.889-18.859-38.059-29.764-47.138-8.004-6.673-16.247-12.868-24.661-18.671h339.422c23.842 0 43.179 19.098 43.179 42.65v554.684c0-9.318-214.477 256-218.539 256zM685.073 587.298v180.617l159.607-180.617h-159.607zM162.133 164.233v352.478c0 0 0 109.278 117.709 109.278h43.247c0 0 107.025-2.185 107.025-111.94v-313.327c0 0 5.786-64.119-70.878-64.119h-35.686c0 0-55.125-6.827-55.125 66.475l-1.946 232.516c0 0-2.679 22.938 21.402 22.938h15.497c0 0 22.289 0.887 22.289-20.275v-232.243c0 0-1.673-11.895 20.634-11.895 0 0 25.856-2.628 25.856 15.872v308.497c0 0 0.887 50.671-56.183 50.671h-44.595c0 0-50.381 4.403-50.381-52.873v-343.757c0 0-8.465-85.504 89.617-85.504h72.226c0 0 93.184-5.291 93.184 78.882v235.349c0 0 4.83 20.565 31.13 20.565 0 0 22.818-3.26 25.498-20.139v-260.437c0 0-2.219-112.384-129.758-112.384h-94.976c0.017 0-145.783-4.847-145.783 135.373z" />
<glyph unicode="&#xe90c;" glyph-name="email" d="M870.571 786.364h-717.158c-37.598 0-68.079-32.29-68.079-72.124v-538.436c0-39.834 30.481-72.107 68.079-72.107h717.158c37.598 0 68.096 32.273 68.096 72.107v538.436c0 39.834-30.498 72.124-68.096 72.124zM181.589 717.039h660.821c16.64 0 30.123-13.67 30.123-30.532v-56.559l-297.609-267.81c-64.751-68.983-127.095 0-127.095 0l-296.38 266.906v57.446c0 16.879 13.5 30.549 30.14 30.549zM842.411 173.005h-660.821c-16.64 0-30.14 13.67-30.14 30.532v335.497l280.866-251.989c83.678-66.082 153.344-6.042 153.344-6.042l286.857 260.13v-337.596c0.017-16.879-13.466-30.532-30.106-30.532z" />
<glyph unicode="&#xe90d;" glyph-name="edit" d="M819.354 476.092v-383.932h-659.9v651.503h416.717c11.844 14.285 74.308 53.111 83.712 65.365h-547.482c-10.735 0-19.422-8.585-19.422-19.166v-743.902c0-10.581 8.704-19.166 19.422-19.166h753.988c10.718 0 19.439 8.585 19.439 19.166v537.754c0 0-63.761-106.069-66.475-107.622zM273.254 212.497l189.252 73.694 362.086 357.274-118.204 116.617-396.407-391.134-36.727-156.45zM718.967 648.448l12.578-20.019-293.598-289.673-46.746-14.95 327.765 324.642zM938.377 793.481l-79.889 78.831c-10.581 10.411-27.716 10.411-38.298-0.017l-79.889-78.814c-10.564-10.428-19.2-18.842-19.166-18.876l118.153-116.582c-0.017 0.017 8.602 8.431 19.183 18.859l79.889 78.814c10.598 10.462 10.598 27.358 0.017 37.786z" />
<glyph unicode="&#xe90e;" glyph-name="multi" d="M819.354 476.092v-383.932h-659.9v651.503h416.717c11.844 14.285 74.308 53.111 83.712 65.365h-547.482c-10.735 0-19.422-8.585-19.422-19.166v-743.902c0-10.581 8.704-19.166 19.422-19.166h753.988c10.718 0 19.439 8.585 19.439 19.166v537.754c0 0-63.761-106.069-66.475-107.622zM273.254 212.497l189.252 73.694 362.086 357.274-118.204 116.617-396.407-391.134-36.727-156.45zM718.967 648.448l12.578-20.019-293.598-289.673-46.746-14.95 327.765 324.642zM938.377 793.481l-79.889 78.831c-10.581 10.411-27.716 10.411-38.298-0.017l-79.889-78.814c-10.564-10.428-19.2-18.842-19.166-18.876l118.153-116.582c-0.017 0.017 8.602 8.431 19.183 18.859l79.889 78.814c10.598 10.462 10.598 27.358 0.017 37.786z" />
<glyph unicode="&#xe90f;" glyph-name="chat" d="M436.241 822.238c-206.541 0-373.982-140.169-373.982-313.122 0-71.817 28.894-137.967 77.449-190.788-10.513-24.098-34.577-73.626-69.069-110.865 0 0-12.561-13.978-8.38-32.649 0 0 5.581-31.215 47.787-27.682 0 0 108.186 4.284 188.723 70.69 42.547-14.080 88.917-21.828 137.472-21.828 206.541 0 373.982 140.203 373.982 313.139-0.017 172.937-167.441 313.105-373.982 313.105zM436.173 257.178c-47.019 0-91.529 8.55-131.447 23.706-6.69-3.157-47.753-28.433-47.735-28.433-58.027-36.42-132.386-53.231-132.386-53.231 21.333 21.060 53.623 76.493 64.939 96.41 0.205-0.171 16.333 36.301 17.749 43.127-50.227 44.425-80.879 103.543-80.879 168.431 0 138.069 138.684 249.993 309.777 249.993s309.794-111.94 309.794-249.993-138.718-250.010-309.811-250.010zM787.183 133.359c0.017 0.017-49.613 32.99-57.685 37.086-41.284-16.896-86.665-27.477-134.537-30.191 166.246 58.453 284.058 204.407 284.058 375.228 0 63.915-16.521 124.331-45.892 178.039 69.052-57.003 111.889-137.097 111.889-228.062 0-84.599-37.052-161.638-97.758-219.546 1.724-8.926 21.197-56.422 21.453-56.218 13.67-26.010 52.719-98.253 78.49-125.696 0 0-89.89 21.914-160.017 69.359zM642.389 602.146h-372.634c-18.466 0-33.417-14.967-33.417-33.417s14.95-33.417 33.417-33.417h372.634c18.466 0 33.417 14.967 33.417 33.417s-14.95 33.417-33.417 33.417zM471.723 440.013h-201.967c-18.466 0-33.417-14.967-33.417-33.417s14.95-33.417 33.417-33.417h201.967c18.466 0 33.417 14.967 33.417 33.417s-14.95 33.417-33.417 33.417z" />
<glyph unicode="&#xe910;" glyph-name="chatx" d="M787.183 133.359c0.017 0.017-49.613 32.99-57.685 37.086-41.284-16.896-86.665-27.477-134.537-30.191 166.246 58.453 284.058 204.407 284.058 375.228 0 63.915-16.521 124.331-45.892 178.039 69.052-57.003 111.889-137.097 111.889-228.062 0-84.599-37.052-161.638-97.758-219.546 1.724-8.926 21.197-56.422 21.453-56.218 13.67-26.010 52.719-98.253 78.49-125.696 0 0-89.89 21.914-160.017 69.359zM453.342 832c-206.746 0-374.357-145.886-374.357-325.871 0-84.599 37.035-161.638 97.758-219.546-1.724-8.892-21.214-56.439-21.453-56.201-13.687-26.010-52.719-98.27-78.49-125.679 0 0 89.89 21.897 160.017 69.342-0.034 0.017 49.596 32.956 57.668 37.086 48.247-19.763 102.042-30.891 158.874-30.891 206.746 0 374.374 145.886 374.374 325.888-0.017 179.985-167.646 325.871-374.391 325.871zM484.25 340.275h-238.66c-15.292 0-27.682 14.165-27.682 31.642 0 17.493 12.39 31.659 27.682 31.659h238.66c15.292 0 27.665-14.165 27.665-31.659 0-17.459-12.373-31.642-27.665-31.642zM660.412 533.094h-416.324c-14.455 0-26.18 14.165-26.18 31.642s11.725 31.659 26.18 31.659h416.324c14.473 0 26.18-14.182 26.18-31.659s-11.725-31.642-26.18-31.642z" />
<glyph unicode="&#xe911;" glyph-name="mark" d="M858.061 143.514l-274.944 276.122 276.087 274.927c9.745 9.711 10.923 24.337 2.628 32.666l-26.931 27.034c-8.294 8.329-22.921 7.219-32.666-2.492l-276.087-274.944-274.944 276.087c-9.711 9.745-24.32 10.94-32.649 2.628l-27.051-26.948c-8.329-8.294-7.219-22.921 2.492-32.649l274.944-276.087-276.087-274.944c-9.745-9.694-10.923-24.32-2.628-32.666l26.931-27.051c8.294-8.294 22.938-7.185 32.683 2.526l276.087 274.91 274.944-276.070c9.711-9.762 24.337-10.94 32.666-2.645l27.051 26.931c8.294 8.311 7.185 22.972-2.526 32.666z" />
<glyph unicode="&#xe912;" glyph-name="refresh" d="M888.661 814.217l-83.9-81.493c0 0-118.528 128.785-322.389 104.858 0 0-271.428-5.12-338.432-357.905-3.959-20.855 15.36-22.153 15.36-22.153h24.576c0 0 10.291 1.314 13.312 18.295 51.541 289.382 274.876 309.897 302.37 310.579 0 0 145.442 20.975 262.844-99.277l-89.907-89.463c0 0-14.899-26.795 13.158-29.082l219.034-0.307c0 0 17.169-2.287 16.896 18.825v213.248c0.017 0-3.721 25.634-32.922 13.875zM898.833 455.561h-24.576c0 0-10.291-1.331-13.312-18.313-51.541-289.382-274.876-309.897-302.37-310.562 0 0-145.442-20.975-262.827 99.26l89.907 89.463c0 0 14.882 26.795-13.175 29.082l-219.051 0.307c0 0-17.169 2.287-16.896-18.825v-213.248c0 0 3.721-25.651 32.939-13.875l83.9 81.493c0 0 118.528-128.785 322.406-104.858 0 0 271.428 5.12 338.432 357.905 3.942 20.855-15.377 22.17-15.377 22.17z" />
<glyph unicode="&#xe913;" glyph-name="ignore" d="M285.116 643.055h-174.029l194.748-200.158 194.748 200.158h-174.626zM557.124 818.876c-133.154 0-248.883-77.175-309.282-191.044 20.207-1.877 40.346-4.557 60.245-8.192 53.316 84.89 144.828 141.039 249.054 141.039 164.796 0 298.394-140.015 298.394-312.661 0-172.681-133.598-312.678-298.394-312.678-99.977 0-187.904 51.9-241.92 131.089-12.203 3.465-24.593 5.769-36.727 2.133-2.287-0.683-4.71-1.485-7.117-2.304-1.195-1.007-2.219-2.133-3.072-3.396-0.973-1.758-1.843-3.533-2.577-5.359-1.792-5.7-1.621-12.373-0.375-17.971 0.034-0.154 0.017-0.307 0.051-0.444 63.693-97.621 170.359-161.946 291.738-161.946 195.482 0 353.946 166.042 353.946 370.893-0.017 204.8-158.481 370.842-353.963 370.842z" />
<glyph unicode="&#xe914;" glyph-name="search" d="M936.431 123.443l-107.025 129.843-115.951-92.843 109.397-132.727c0 0 28.553-34.628 83.968 9.762 0.017 0 60.553 48.435 29.611 85.965zM869.342 510.31c0 197.632-162.594 357.871-363.127 357.871-200.55 0-363.11-160.239-363.11-357.871 0-197.649 162.56-357.888 363.11-357.888 200.533 0.017 363.127 160.239 363.127 357.888zM510.703 222.601c-161.485 0-292.386 129.007-292.386 288.154s130.901 288.188 292.386 288.188c161.468 0 292.386-129.041 292.386-288.188s-130.918-288.154-292.386-288.154z" />
<glyph unicode="&#xe915;" glyph-name="appointment" d="M825.873 795.273h-113.374c0 0.119 0.017 0.205 0.017 0.324v81.63c0 13.414-11.145 24.286-24.9 24.286h-23.893c-13.739 0-24.883-10.871-24.883-24.286v-81.647c0-0.119 0.017-0.205 0.017-0.324h-292.591c0 0.119 0.017 0.205 0.017 0.324v81.647c0 13.414-11.145 24.286-24.9 24.286h-23.91c-13.756 0-24.9-10.871-24.9-24.286v-81.647c0-0.119 0.017-0.205 0.017-0.324h-114.415c-27.699 0-50.142-21.675-50.142-48.418v-650.24c0-26.743 22.443-48.418 50.142-48.418h667.716c27.699 0 50.142 21.675 50.142 48.418v650.257c-0.017 26.743-22.46 48.418-50.159 48.418zM805.188 138.445c0-11.742-9.882-21.231-22.067-21.231h-579.891c-12.186 0-22.067 9.506-22.067 21.231v426.428h624.026v-426.428zM805.188 635.119h-624.026v69.615c0 11.742 9.882 21.231 22.067 21.231h579.891c12.186 0 22.067-9.506 22.067-21.231v-69.615zM297.062 368.828h62.225c13.756 0 24.9 10.667 24.9 23.825v61.15c0 13.158-11.145 23.808-24.9 23.808h-62.225c-13.739 0-24.883-10.633-24.883-23.808v-61.133c-0.017-13.175 11.127-23.842 24.883-23.842zM461.329 368.828h62.225c13.756 0 24.883 10.667 24.883 23.825v61.15c0 13.158-11.145 23.808-24.883 23.808h-62.225c-13.756 0-24.883-10.633-24.883-23.808v-61.133c0-13.175 11.145-23.842 24.883-23.842zM625.613 368.828h62.225c13.739 0 24.883 10.667 24.883 23.825v61.15c0 13.158-11.145 23.808-24.883 23.808h-62.225c-13.756 0-24.9-10.633-24.9-23.808v-61.133c0-13.175 11.162-23.842 24.9-23.842zM297.062 206.899h62.225c13.756 0 24.9 10.667 24.9 23.825v61.116c0 13.158-11.145 23.825-24.9 23.825h-62.225c-13.739 0-24.883-10.667-24.883-23.825v-61.116c-0.017-13.158 11.127-23.825 24.883-23.825zM461.329 206.899h62.225c13.756 0 24.883 10.667 24.883 23.825v61.116c0 13.158-11.145 23.825-24.883 23.825h-62.225c-13.756 0-24.883-10.667-24.883-23.825v-61.116c0-13.158 11.145-23.825 24.883-23.825zM625.613 206.899h62.225c13.739 0 24.883 10.667 24.883 23.825v61.116c0 13.158-11.145 23.825-24.883 23.825h-62.225c-13.756 0-24.9-10.667-24.9-23.825v-61.116c0-13.158 11.162-23.825 24.9-23.825z" />
<glyph unicode="&#xe916;" glyph-name="next" d="M877.449 597.504l-356.181-356.164-356.164 356.164-59.477-59.477 415.642-415.625 415.642 415.625z" />
<glyph unicode="&#xe917;" glyph-name="previous" d="M155.819 161.792l356.181 356.181 356.164-356.181 59.477 59.477-415.642 415.625-415.642-415.625z" />
<glyph unicode="&#xe918;" glyph-name="pagedown" d="M274.449 755.507l356.164-356.181-356.164-356.164 59.46-59.46 415.625 415.625-415.625 415.642z" />
<glyph unicode="&#xe919;" glyph-name="pageup" d="M749.534 755.507l-356.164-356.181 356.164-356.164-59.46-59.46-415.625 415.625 415.625 415.642z" />
<glyph unicode="&#xe91a;" glyph-name="find" d="M870.229 140.237l-95.454 117.521-103.424-84.019 97.57-120.132c0 0 25.463-31.334 74.906 8.858 0-0.017 53.982 43.827 26.402 77.773zM810.701 500.77c0 178.842-145.015 323.874-323.891 323.874s-323.84-145.033-323.84-323.874c0-178.859 144.981-323.891 323.857-323.891s323.874 145.015 323.874 323.891zM490.428 236.783c-145.801 0-264.004 118.17-264.004 263.987s118.187 263.987 264.004 263.987c145.801 0 264.004-118.17 264.004-263.987s-118.204-263.987-264.004-263.987zM513.451 645.956h-53.231v-118.596h-118.562v-53.214h118.579l-0.017-118.562h53.231v118.562h118.579v53.231l-118.579-0.017z" />
<glyph unicode="&#xe91b;" glyph-name="home" d="M1024 369.556l-512 397.426-512-397.428v162.038l512 397.426 512-397.428zM896 384v-384h-256v256h-256v-256h-256v384l384 288z" />
<glyph unicode="&#xe91c;" glyph-name="card" d="M896 704v128h-896v-704c0-35.346 28.654-64 64-64h864c53.022 0 96 42.978 96 96v544h-128zM832 128h-768v640h768v-640zM128 640h640v-64h-640zM512 512h256v-64h-256zM512 384h256v-64h-256zM512 256h192v-64h-192zM128 512h320v-320h-320z" />
<glyph unicode="&#xe91d;" glyph-name="pencil" d="M864 960c88.364 0 160-71.634 160-160 0-36.020-11.91-69.258-32-96l-64-64-224 224 64 64c26.742 20.090 59.978 32 96 32zM64 224l-64-288 288 64 592 592-224 224-592-592zM715.578 596.422l-448-448-55.156 55.156 448 448 55.156-55.156z" />
<glyph unicode="&#xe91e;" glyph-name="image" d="M959.884 832c0.040-0.034 0.082-0.076 0.116-0.116v-767.77c-0.034-0.040-0.076-0.082-0.116-0.116h-895.77c-0.040 0.034-0.082 0.076-0.114 0.116v767.772c0.034 0.040 0.076 0.082 0.114 0.114h895.77zM960 896h-896c-35.2 0-64-28.8-64-64v-768c0-35.2 28.8-64 64-64h896c35.2 0 64 28.8 64 64v768c0 35.2-28.8 64-64 64v0zM832 672c0-53.020-42.98-96-96-96s-96 42.98-96 96 42.98 96 96 96 96-42.98 96-96zM896 128h-768v128l224 384 256-320h64l224 192z" />
<glyph unicode="&#xe91f;" glyph-name="images" horiz-adv-x="1152" d="M1088 832h-64v64c0 35.2-28.8 64-64 64h-896c-35.2 0-64-28.8-64-64v-768c0-35.2 28.8-64 64-64h64v-64c0-35.2 28.8-64 64-64h896c35.2 0 64 28.8 64 64v768c0 35.2-28.8 64-64 64zM128 768v-640h-63.886c-0.040 0.034-0.082 0.076-0.114 0.116v767.77c0.034 0.040 0.076 0.082 0.114 0.114h895.77c0.040-0.034 0.082-0.076 0.116-0.116v-63.884h-768c-35.2 0-64-28.8-64-64v0zM1088 0.116c-0.034-0.040-0.076-0.082-0.116-0.116h-895.77c-0.040 0.034-0.082 0.076-0.114 0.116v767.77c0.034 0.040 0.076 0.082 0.114 0.114h895.77c0.040-0.034 0.082-0.076 0.116-0.116v-767.768zM960 608c0-53.020-42.98-96-96-96s-96 42.98-96 96 42.98 96 96 96 96-42.98 96-96zM1024 64h-768v128l224 384 256-320h64l224 192z" />
<glyph unicode="&#xe920;" glyph-name="print" d="M899.567 676.642h-104.277v155.358h-538.505v-155.358h-104.294c-5.786 0-10.462-4.676-10.462-10.479v-476.501c0-5.786 4.676-10.479 10.462-10.479h103.782v-115.183h538.505v115.183h104.806c5.769 0 10.445 4.693 10.445 10.479v476.501c0 5.803-4.676 10.479-10.462 10.479zM319.164 769.775h415.983v-93.116h-415.983v93.116zM732.535 126.225h-413.901v221.525h413.884v-221.525zM847.787 241.425h-53.026v168.585h-538.505v-168.585h-52.002v375.074h643.533v-375.074zM819.695 526.251c0-34.649-28.088-62.737-62.737-62.737s-62.737 28.088-62.737 62.737c0 34.649 28.088 62.737 62.737 62.737s62.737-28.088 62.737-62.737zM358.025 312.422h336.725v-38.895h-336.725v38.895zM358.025 212.975h336.725v-38.895h-336.725v38.895z" />
<glyph unicode="&#xe921;" glyph-name="save" d="M761.515 812.954h-611.038v-768h768v610.953l-156.962 157.047zM391.475 764.587h209.015v-171.127h-209.015v171.127zM714.65 96.597h-363.145v209.442h363.145v-209.442zM869.888 93.303h-106.65v261.103h-460.322v-261.103h-103.834v671.283h143.821v-219.477h306.193v219.477h87.194l133.615-134.69v-536.593zM480.495 705.775h40.926v-40.704h-40.926v40.704z" />
<glyph unicode="&#xe922;" glyph-name="new" d="M541.303 597.094h-82.825l0.017-126.72h-126.754l-0.017-82.842h126.771l-0.017-126.754 82.842 0.017v126.737h126.737v82.842h-126.737zM499.9 812.954c-212.087 0-384-171.93-384-384s171.913-384 384-384c212.070 0 384 171.93 384 384s-171.93 384-384 384zM499.9 102.4c-180.361 0-326.571 146.176-326.571 326.554 0 180.343 146.21 326.571 326.571 326.571s326.571-146.21 326.571-326.571c0-180.378-146.21-326.554-326.571-326.554z" />
<glyph unicode="&#xe923;" glyph-name="plus" d="M895.471 502.391h-329.609v329.609h-108.783v-329.609h-329.609v-108.783h329.609v-329.609h108.783v329.609h329.609z" />
<glyph unicode="&#xe924;" glyph-name="file-empty" d="M917.806 730.924c-22.212 30.292-53.174 65.7-87.178 99.704s-69.412 64.964-99.704 87.178c-51.574 37.82-76.592 42.194-90.924 42.194h-496c-44.112 0-80-35.888-80-80v-864c0-44.112 35.888-80 80-80h736c44.112 0 80 35.888 80 80v624c0 14.332-4.372 39.35-42.194 90.924zM785.374 785.374c30.7-30.7 54.8-58.398 72.58-81.374h-153.954v153.946c22.984-17.78 50.678-41.878 81.374-72.572zM896 16c0-8.672-7.328-16-16-16h-736c-8.672 0-16 7.328-16 16v864c0 8.672 7.328 16 16 16 0 0 495.956 0.002 496 0v-224c0-17.672 14.326-32 32-32h224v-624z" />
<glyph unicode="&#xe925;" glyph-name="copy" d="M917.806 602.924c-22.21 30.292-53.174 65.7-87.178 99.704s-69.412 64.964-99.704 87.178c-51.574 37.82-76.592 42.194-90.924 42.194h-368c-44.114 0-80-35.888-80-80v-736c0-44.112 35.886-80 80-80h608c44.112 0 80 35.888 80 80v496c0 14.332-4.372 39.35-42.194 90.924zM785.374 657.374c30.7-30.7 54.8-58.398 72.58-81.374h-153.954v153.946c22.982-17.78 50.678-41.878 81.374-72.572v0zM896 16c0-8.672-7.328-16-16-16h-608c-8.672 0-16 7.328-16 16v736c0 8.672 7.328 16 16 16 0 0 367.956 0.002 368 0v-224c0-17.672 14.324-32 32-32h224v-496zM602.924 917.804c-51.574 37.822-76.592 42.196-90.924 42.196h-368c-44.112 0-80-35.888-80-80v-736c0-38.632 27.528-70.958 64-78.39v814.39c0 8.672 7.328 16 16 16h486.876c-9.646 7.92-19.028 15.26-27.952 21.804z" />
<glyph unicode="&#xe926;" glyph-name="file-text" d="M917.806 730.924c-22.212 30.292-53.174 65.7-87.178 99.704s-69.412 64.964-99.704 87.178c-51.574 37.82-76.592 42.194-90.924 42.194h-496c-44.112 0-80-35.888-80-80v-864c0-44.112 35.888-80 80-80h736c44.112 0 80 35.888 80 80v624c0 14.332-4.372 39.35-42.194 90.924zM785.374 785.374c30.7-30.7 54.8-58.398 72.58-81.374h-153.954v153.946c22.984-17.78 50.678-41.878 81.374-72.572zM896 16c0-8.672-7.328-16-16-16h-736c-8.672 0-16 7.328-16 16v864c0 8.672 7.328 16 16 16 0 0 495.956 0.002 496 0v-224c0-17.672 14.326-32 32-32h224v-624zM736 128h-448c-17.672 0-32 14.326-32 32s14.328 32 32 32h448c17.674 0 32-14.326 32-32s-14.326-32-32-32zM736 256h-448c-17.672 0-32 14.326-32 32s14.328 32 32 32h448c17.674 0 32-14.326 32-32s-14.326-32-32-32zM736 384h-448c-17.672 0-32 14.326-32 32s14.328 32 32 32h448c17.674 0 32-14.326 32-32s-14.326-32-32-32z" />
<glyph unicode="&#xe927;" glyph-name="delete" d="M871.031 689.152h-184.183v82.295c0 33.604-26.795 60.809-59.836 60.809h-236.971c-33.058 0-59.836-27.221-59.836-60.809v-82.295h-183.415c-12.083 0-21.879-16.742-21.879-29.013 0-12.305 9.796-32.529 21.879-32.529h82.074l55.842-487.1c9.574-76.39 60.757-76.237 80.589-76.237h292.813c19.831 0 67.823-0.341 73.489 63.181l57.344 500.156h82.091c12.083 0 21.879 20.241 21.879 32.529 0 12.254-9.796 29.013-21.879 29.013zM395.81 730.539c0 33.587 24.030 36.523 53.675 36.523h117.248c29.645 0 53.675-2.935 53.675-36.523v-41.387h-224.597v41.387zM671.573 183.791c-5.239-58.641-49.545-58.317-67.84-58.317h-184.388c-18.313 0-65.553-0.154-74.394 70.366l-53.333 431.565c19.473 0-4.352 0 13.961 0h400.691c18.313 0 7.117 0 19.695 0l-54.391-443.614zM389.239 563.814c-11.895-0.478-21.146-10.667-20.668-22.75l16.64-330.53c0.478-12.066 10.496-21.504 22.374-21.009 11.895 0.478 21.146 10.667 20.668 22.75l-16.64 330.547c-0.478 12.066-10.496 21.47-22.374 20.992zM628.599 563.814c-11.878 0.546-21.948-8.841-22.46-20.907l-18.637-330.445c-0.529-12.1 8.687-22.323 20.565-22.869 11.878-0.512 21.948 8.858 22.477 20.924l18.637 330.462c0.512 12.066-8.704 22.306-20.582 22.835zM509.389 564.002c-11.895 0-21.538-9.796-21.538-21.897v-330.854c0-12.1 9.643-21.897 21.538-21.897 11.913 0 21.538 9.796 21.538 21.897v330.854c0.017 12.1-9.626 21.897-21.538 21.897z" />
<glyph unicode="&#xe928;" glyph-name="subscribe" d="M765.645 269.824l-41.387 41.847-80.964-81.835-80.964 81.835-41.387-41.847 80.964-81.835-80.964-81.852 41.387-41.847 80.964 81.835 80.964-81.835 41.387 41.847-80.947 81.852zM287.539 832.29c0 0-5.052-0.717-5.052-7.373s0.102-80.981 0.102-80.981-2.014-5.734 4.403-5.734c0 0 330.257 16.862 396.8-381.133 0 0-0.785-13.739 5.069-13.739 5.871 0 81.015-10.513 81.015-10.513s6.656 0.222 6.656 6.878c0 0 0 459.895-488.994 492.595zM305.664 670.293c0 0-3.089-0.427-3.089-4.506s0.068-79.872 0.068-79.872-1.229-3.516 2.679-3.516c0 0 188.843 23.569 229.564-219.989 0 0-0.478-8.397 3.106-8.397s79.889-6.434 79.889-6.434 4.079 0.137 4.079 4.198c0 0.017-17.067 298.53-316.297 318.515zM367.462 501.265c-40.329 0-73.011-33.075-73.011-73.83s32.683-73.796 73.011-73.796 73.028 33.041 73.028 73.796-32.7 73.83-73.028 73.83zM367.462 392.602c-19.046 0-34.475 15.582-34.475 34.833 0 19.268 15.428 34.867 34.475 34.867 19.029 0 34.475-15.599 34.475-34.867 0-19.251-15.428-34.833-34.475-34.833z" />
<glyph unicode="&#xe929;" glyph-name="subscribex" d="M253.815 809.677c0 0-5.393-0.751-5.393-7.765s0.102-103.407 0.102-103.407-2.133-6.042 4.693-6.042c0 0 380.058-0.785 405.077-404.651 0 0 0-4.915 6.263-4.915s104.841 0 104.841 0 7.117 0.273 7.117 7.27c0.017 0 0.017 485.018-522.701 519.509zM605.201 287.744c0 0 0 324.079-349.269 347.136 0 0-8.311-0.478-8.311-5.188s0.068-101.871 0.068-101.871-1.434-4.028 3.14-4.028c0 0 228.523-5.342 237.824-237.619 0 0 0-3.277 4.164-3.277 4.181 0 107.605 0 107.605 0s4.779 0.154 4.779 4.847zM404.463 360.755c0-43-34.942-77.858-78.046-77.858s-78.046 34.858-78.046 77.858c0 43 34.942 77.858 78.046 77.858s78.046-34.858 78.046-77.858zM769.587 216.303l-52.497 61.474-143.906-122.3-68.847 80.606-61.611-52.343 121.31-142.063z" />
<glyph unicode="&#xe92a;" glyph-name="task" d="M743.782 784.435h-94.242v-60.791h25.259c16.35 0 29.594-13.244 29.594-29.594v-514.031c0-16.333-13.261-29.594-29.594-29.594h-370.534c-16.35 0-29.594 13.261-29.594 29.594v514.031c0 16.35 5.461 29.594 21.811 29.594h31.727v60.791h-93.184c-11.674 0-21.129-9.353-21.129-20.89v-653.039c0-11.537 9.472-20.89 21.129-20.89h508.774c11.674 0 21.146 9.353 21.146 20.89v653.039c-0.017 11.537-9.489 20.89-21.163 20.89zM602.505 796.245h-24.832v39.287c0 16.333-14.199 29.577-31.71 29.577h-111.002c-17.51 0-31.693-13.244-31.693-29.577v-39.287h-25.361v-92.809h224.614v92.809zM535.228 814.387v-18.142h-89.003v18.142c0 16.35-1.058 12.527 17.015 12.527h54.989c19.115 0 16.998 3.823 16.998-12.527zM360.090 587.247h258.611v-41.421h-258.611v41.421zM360.090 450.714h258.611v-41.421h-258.611v41.421zM360.090 314.18h258.611v-41.421h-258.611v41.421z" />
<glyph unicode="&#xe92b;" glyph-name="letter" d="M859.938 761.446h-691.507c-21.111 0-38.246-17.22-38.246-38.451v-540.006c0-21.231 17.135-38.451 38.246-38.451h691.524c21.111 0 38.246 17.22 38.246 38.451v540.006c-0.017 21.231-17.152 38.451-38.263 38.451zM840.090 202.462h-654.609v504.269h654.609v-504.269zM681.609 633.003h102.4v-102.4h-102.4v102.4zM244.685 452.966h381.833v-53.897h-381.833v53.897zM244.685 333.5h381.833v-53.897h-381.833v53.897z" />
<glyph unicode="&#xe92c;" glyph-name="report" d="M319.027 359.134h43.162v-212.668h-43.162v212.668zM405.367 403.132h43.179v-256.666h-43.179v256.666zM664.388 360.465h43.162v-212.668h-43.162v212.668zM578.048 403.132h43.162v-256.666h-43.162v256.666zM491.725 488.482h43.162v-342.016h-43.162v342.016zM664.73 861.218h-472.149c-23.842 0-43.162-19.098-43.162-42.667v-768c0-23.569 19.319-42.667 43.162-42.667h647.526c23.825 0 43.162 19.098 43.162 42.667v554.667c0.017-9.335-214.46 256-218.539 256zM815.019 73.404l-598.494 0.666v720.606h388.557l0.683-294.502 209.271-1.468v-425.301zM672.358 566.357v180.599l159.607-180.599h-159.607z" />
<glyph unicode="&#xe92d;" glyph-name="recordaccess" d="M602.778 217.19c-0.836 1.451-2.287 5.086-2.475 5.581l-0.188 17.391c-0.307 28.774-0.307 28.774 0.171 72.516l0.273 25.242c0.205 18.773-10.359 33.075-19.661 45.722-2.56 3.465-6.571 8.909-8.329 12.134l2.15 23.654c54.187 42.837 86.101 111.548 86.101 186.897 0 125.986-89.788 228.471-200.158 228.471s-200.175-102.485-200.175-228.471c0-82.876 38.332-156.962 99.908-197.308-72.892-28.45-241.067-115.302-241.067-310.886v-31.351h606.003l5.7 62.089c-0.802 0.171-82.705 18.688-128.256 88.32zM179.763 129.468c22.528 171.127 225.604 229.342 227.738 229.939l21.982 6.025v78.063l-18.176 7.919c-55.279 24.183-92.416 86.409-92.416 154.88 0 91.392 63.607 165.769 141.807 165.769s141.79-74.359 141.79-165.769c0-59.187-26.556-112.572-71.066-142.797l-12.049-8.175-5.308-58.402c-1.348-21.794 11.093-38.673 21.077-52.207 2.236-3.038 5.393-7.322 7.031-10.035l-0.222-21.265c-0.478-44.646-0.478-44.646-0.171-73.984l0.171-16.998c0-16.862 8.448-34.219 12.902-41.011 13.534-20.685 29.218-37.837 45.431-51.951h-420.523zM862.327 433.254l-17.527-0.017v30.771c0 59.733-50.244 78.592-77.875 80.265-32.307 0-56.354-8.704-71.475-25.856-16.418-18.637-15.957-40.226-15.462-46.165l-0.017-39.168-23.364-0.017c-13.346-2.031-23.603-13.705-23.603-27.75v-168.465c0-15.462 12.442-28.058 27.75-28.058h198.878c15.309 0 27.75 12.578 27.75 28.058v168.465c0 14.558-11.008 26.556-25.054 27.938zM721.084 495.855c8.226 9.353 24.081 14.285 44.698 14.319 4.591-0.341 44.885-4.506 44.885-46.165v-30.771l-96.529-0.119v39.953l-0.137 2.15c-0.017 0.119-1.041 11.435 7.083 20.634zM853.248 242.927h-186.112v156.314h12.817v-0.324l173.295 0.324v-156.314zM759.876 365.705c-18.313 0-33.212-15.206-33.212-33.894 0-9.318 3.789-18.176 10.325-24.542v-28.791c0-10.291 8.243-18.654 18.364-18.654h9.011c10.138 0 18.364 8.363 18.364 18.654v28.791c6.537 6.366 10.325 15.241 10.325 24.542 0.017 18.688-14.865 33.894-33.178 33.894zM768.99 317.901l-4.454-3.669 1.161-5.444v-30.31c0-0.87-0.597-1.587-1.297-1.587h-9.028c-0.7 0-1.297 0.717-1.297 1.587l0.051 30.737 1.161 5.444-4.523 3.243c-4.403 3.191-7.031 8.363-7.031 13.892 0 9.284 7.236 16.828 16.145 16.828 8.892 0 16.128-7.543 16.128-16.828 0-5.53-2.628-10.718-7.014-13.892z" />
<glyph unicode="&#xe92e;" glyph-name="recordaccessx" d="M881.203 379.767h-16.811v46.421c0 50.347-43.042 91.153-96.154 91.153h-8.414c-53.094 0-96.154-40.806-96.154-91.153v-46.421h-15.104c-6.912 0-12.493-5.342-12.493-11.964v-183.45c0-6.605 5.598-11.947 12.493-11.947h232.619c6.912 0 12.493 5.342 12.493 11.947v183.45c0.017 6.605-5.564 11.964-12.476 11.964zM781.005 265.079c0.171-0.768 0.307-1.57 0.307-2.406v-33.024c0-6.076-5.154-11.025-11.503-11.025h-10.547c-6.349 0-11.503 4.932-11.503 11.025v33.024c0 0.836 0.102 1.638 0.29 2.406-7.475 5.001-12.373 13.261-12.373 22.665 0 15.258 12.919 27.614 28.86 27.614 15.923 0 28.843-12.373 28.843-27.614 0-9.387-4.898-17.664-12.373-22.665zM818.398 406.886c0-7.595-0.119-17.118-0.597-27.119h-105.967c-0.461 9.609-0.41 19.081-0.41 27.119v10.274c0 30.413 23.945 55.108 53.487 55.108s53.487-24.678 53.487-55.108v-10.274zM628.838 168.567c-3.277 4.659-8.892 16.708-8.892 25.037-0.631 59.068-0.683 38.707 0.307 126.123 0.205 17.579-34.321 41.455-32.99 61.628l4.489 45.892c58.982 37.325 99.004 105.472 99.004 184.337 0 118.545-89.532 214.647-199.987 214.647s-200.004-96.102-200.004-214.647c0-91.785 53.897-169.54 129.365-200.243v-35.499c0 0-294.451-74.991-294.451-317.594h674.628c0.034-0.017-108.971 21.385-171.469 110.319z" />
<glyph unicode="&#xe92f;" glyph-name="attachdocumentfrom" d="M627.456 377.446c-8.721 98.15-94.959 170.394-192.614 161.468-97.655-8.977-169.762-95.795-161.058-193.946 8.704-98.116 94.942-170.428 192.614-161.468 97.655 8.977 169.762 95.795 161.058 193.946zM463.548 237.875c-67.891-6.229-127.846 43.998-133.905 112.23-6.059 68.198 44.083 128.563 111.974 134.775 67.891 6.246 127.846-44.015 133.905-112.213 6.042-68.233-44.083-128.563-111.974-134.793zM677.257 187.75l-57.873 59.682-52.361-51.302 59.136-60.996c0 0 15.428-15.923 40.465 8.619 0 0 27.341 26.726 10.633 43.998zM660.395 882.176h-472.149c-23.842 0-43.179-19.098-43.179-42.667v-768c0-23.569 19.337-42.667 43.179-42.667h647.509c23.842 0 43.179 19.098 43.179 42.667v554.667c0-9.318-214.477 256-218.539 256zM810.667 94.362l-598.494 0.666v720.623h388.54l0.683-294.502 209.271-1.468v-425.318zM668.006 587.315v180.599l159.59-180.599h-159.59z" />
<glyph unicode="&#xe930;" glyph-name="attachdocumentfromx" d="M658.654 891.733h-15.223l214.187-256-214.784-0.188 0.597 256.188h-456.926c-23.842 0-43.179-19.115-43.179-42.667v-768c0-23.569 19.337-42.667 43.179-42.667h647.526c23.842 0 43.162 19.098 43.162 42.667v554.667c0-9.335-214.477 256-218.539 256zM306.176 379.085c-8.704 98.15 63.403 184.969 161.058 193.946 97.655 8.926 183.91-63.317 192.614-161.468s-63.403-184.969-161.058-193.946c-97.673-8.96-183.91 63.351-192.614 161.468zM699.017 177.869c-25.037-24.542-40.465-8.619-40.465-8.619l-59.136 60.996 52.361 51.302 57.873-59.682c16.725-17.271-10.633-43.998-10.633-43.998zM607.915 406.801c-6.059 68.198-66.014 118.46-133.905 112.213-67.891-6.212-118.016-66.577-111.974-134.775 6.059-68.233 66.014-118.46 133.905-112.23 67.891 6.212 118.016 66.543 111.974 134.793z" />
<glyph unicode="&#xe931;" glyph-name="zoomacross" d="M870.229 140.237l-95.454 117.521-103.424-84.019 97.57-120.132c0 0 25.463-31.334 74.906 8.858 0-0.017 53.982 43.827 26.402 77.773zM810.701 500.77c0 178.842-145.015 323.874-323.891 323.874s-323.84-145.033-323.84-323.874c0-178.859 144.981-323.891 323.857-323.891s323.874 145.015 323.874 323.891zM490.428 236.783c-145.801 0-264.004 118.17-264.004 263.987s118.187 263.987 264.004 263.987c145.801 0 264.004-118.17 264.004-263.987s-118.204-263.987-264.004-263.987zM513.451 645.956h-53.231v-118.596h-118.562v-53.214h118.579l-0.017-118.562h53.231v118.562h118.579v53.231l-118.579-0.017z" />
<glyph unicode="&#xe932;" glyph-name="tl-3" d="M516.164 734.549c0-74.095-60.066-134.161-134.161-134.161s-134.161 60.066-134.161 134.161c0 74.095 60.066 134.161 134.161 134.161s134.161-60.066 134.161-134.161zM355.174 605.474h53.658v-536.508h-53.658v536.508zM405.487 551.799h214.647v-53.658h-214.647v53.658zM776.909 524.971c0-44.451-36.035-80.486-80.486-80.486s-80.486 36.035-80.486 80.486c0 44.451 36.035 80.486 80.486 80.486s80.486-36.035 80.486-80.486zM405.487 337.22h214.647v-53.658h-214.647v53.658zM776.909 310.391c0-44.451-36.035-80.486-80.486-80.486s-80.486 36.035-80.486 80.486c0 44.451 36.035 80.486 80.486 80.486s80.486-36.035 80.486-80.486zM405.487 122.624h214.647v-53.658h-214.647v53.658zM776.909 95.778c0-44.451-36.035-80.486-80.486-80.486s-80.486 36.035-80.486 80.486c0 44.451 36.035 80.486 80.486 80.486s80.486-36.035 80.486-80.486z" />
<glyph unicode="&#xe933;" glyph-name="tl-2" d="M516.164 734.549c0-74.095-60.066-134.161-134.161-134.161s-134.161 60.066-134.161 134.161c0 74.095 60.066 134.161 134.161 134.161s134.161-60.066 134.161-134.161zM355.174 605.474h53.658v-321.894h-53.658v321.894zM405.487 551.799h214.647v-53.658h-214.647v53.658zM776.909 524.971c0-44.451-36.035-80.486-80.486-80.486s-80.486 36.035-80.486 80.486c0 44.451 36.035 80.486 80.486 80.486s80.486-36.035 80.486-80.486zM405.487 337.22h214.647v-53.658h-214.647v53.658zM776.909 310.391c0-44.451-36.035-80.486-80.486-80.486s-80.486 36.035-80.486 80.486c0 44.451 36.035 80.486 80.486 80.486s80.486-36.035 80.486-80.486z" />
<glyph unicode="&#xe934;" glyph-name="tl-1" d="M516.164 734.549c0-74.095-60.066-134.161-134.161-134.161s-134.161 60.066-134.161 134.161c0 74.095 60.066 134.161 134.161 134.161s134.161-60.066 134.161-134.161zM355.174 605.474h53.658v-107.315h-53.658v107.315zM405.487 551.799h214.647v-53.658h-214.647v53.658zM776.909 524.971c0-44.451-36.035-80.486-80.486-80.486s-80.486 36.035-80.486 80.486c0 44.451 36.035 80.486 80.486 80.486s80.486-36.035 80.486-80.486z" />
<glyph unicode="&#xe935;" glyph-name="tl-4" d="M516.164 734.549c0-74.095-60.066-134.161-134.161-134.161s-134.161 60.066-134.161 134.161c0 74.095 60.066 134.161 134.161 134.161s134.161-60.066 134.161-134.161zM355.174 605.474h53.658v-536.508h-53.658v536.508zM405.487 551.799h214.647v-53.658h-214.647v53.658zM628.463 858.59h57.839v-231.39h-57.839v231.39zM541.696 771.806h231.39v-57.839h-231.39v57.839zM776.909 524.971c0-44.451-36.035-80.486-80.486-80.486s-80.486 36.035-80.486 80.486c0 44.451 36.035 80.486 80.486 80.486s80.486-36.035 80.486-80.486zM405.487 337.22h214.647v-53.658h-214.647v53.658zM776.909 310.391c0-44.451-36.035-80.486-80.486-80.486s-80.486 36.035-80.486 80.486c0 44.451 36.035 80.486 80.486 80.486s80.486-36.035 80.486-80.486zM405.487 122.624h214.647v-53.658h-214.647v53.658zM776.909 95.778c0-44.451-36.035-80.486-80.486-80.486s-80.486 36.035-80.486 80.486c0 44.451 36.035 80.486 80.486 80.486s80.486-36.035 80.486-80.486z" />
<glyph unicode="&#xe936;" glyph-name="sms" d="M519.936 840.533c-240.077 0-434.688-162.935-434.688-363.964 0-83.473 33.587-160.358 90.010-221.764-12.22-28.006-40.192-85.589-80.282-128.87 0 0-14.592-16.247-9.728-37.956 0 0 6.485-36.284 55.552-32.188 0 0 125.764 4.983 219.375 82.159 49.459-16.367 103.373-25.378 159.778-25.378 240.077 0 434.705 162.97 434.705 363.981 0 201.045-194.628 363.981-434.722 363.981zM519.902 176.265c-56.252 0-109.5 10.24-157.235 28.348-8.004-3.772-57.122-33.997-57.105-34.014-69.41-43.571-158.379-63.659-158.379-63.659 25.532 25.19 64.154 91.477 77.687 115.354 0.239-0.222 19.524 43.401 21.231 51.558-60.075 53.146-96.734 123.853-96.734 201.472 0 165.154 165.888 299.025 370.534 299.025s370.551-133.888 370.551-299.025-165.905-299.059-370.551-299.059zM705.775 603.017h-372.634c-18.466 0-33.417-14.967-33.417-33.417s14.95-33.417 33.417-33.417h372.634c18.466 0 33.417 14.967 33.417 33.417s-14.967 33.417-33.417 33.417zM535.108 440.883h-201.967c-18.466 0-33.417-14.967-33.417-33.417s14.95-33.417 33.417-33.417h201.967c18.466 0 33.417 14.967 33.417 33.417s-14.967 33.417-33.417 33.417z" />
<glyph unicode="&#xe937;" glyph-name="smsx" d="M519.936 840.533c-240.077 0-434.688-162.935-434.688-363.964 0-83.473 33.587-160.358 90.010-221.764-12.22-28.006-40.192-85.589-80.282-128.87 0 0-14.592-16.247-9.728-37.956 0 0 6.485-36.284 55.552-32.188 0 0 125.764 4.983 219.375 82.159 49.459-16.367 103.373-25.378 159.778-25.378 240.077 0 434.705 162.97 434.705 363.981 0 201.045-194.628 363.981-434.722 363.981zM535.108 374.050h-201.967c-18.466 0-33.417 14.967-33.417 33.417s14.95 33.417 33.417 33.417h201.967c18.466 0 33.417-14.967 33.417-33.417s-14.967-33.417-33.417-33.417zM705.775 536.183h-372.634c-18.466 0-33.417 14.967-33.417 33.417s14.95 33.417 33.417 33.417h372.634c18.466 0 33.417-14.967 33.417-33.417s-14.967-33.417-33.417-33.417z" />
<glyph unicode="&#xe94d;" glyph-name="history" horiz-adv-x="1088" d="M640 896c247.424 0 448-200.576 448-448s-200.576-448-448-448v96c94.024 0 182.418 36.614 248.902 103.098s103.098 154.878 103.098 248.902c0 94.022-36.614 182.418-103.098 248.902s-154.878 103.098-248.902 103.098c-94.022 0-182.418-36.614-248.902-103.098-51.14-51.138-84.582-115.246-97.306-184.902h186.208l-224-256-224 256h164.57c31.060 217.102 217.738 384 443.43 384zM832 512v-128h-256v320h128v-192z" />
<glyph unicode="&#xe971;" glyph-name="user" d="M576 253.388v52.78c70.498 39.728 128 138.772 128 237.832 0 159.058 0 288-192 288s-192-128.942-192-288c0-99.060 57.502-198.104 128-237.832v-52.78c-217.102-17.748-384-124.42-384-253.388h896c0 128.968-166.898 235.64-384 253.388z" />
<glyph unicode="&#xe972;" glyph-name="users" horiz-adv-x="1152" d="M768 189.388v52.78c70.498 39.728 128 138.772 128 237.832 0 159.058 0 288-192 288s-192-128.942-192-288c0-99.060 57.502-198.104 128-237.832v-52.78c-217.102-17.748-384-124.42-384-253.388h896c0 128.968-166.898 235.64-384 253.388zM327.196 164.672c55.31 36.15 124.080 63.636 199.788 80.414-15.054 17.784-28.708 37.622-40.492 59.020-30.414 55.234-46.492 116.058-46.492 175.894 0 86.042 0 167.31 30.6 233.762 29.706 64.504 83.128 104.496 159.222 119.488-16.914 76.48-61.94 126.75-181.822 126.75-192 0-192-128.942-192-288 0-99.060 57.502-198.104 128-237.832v-52.78c-217.102-17.748-384-124.42-384-253.388h279.006c14.518 12.91 30.596 25.172 48.19 36.672z" />
<glyph unicode="&#xe984;" glyph-name="spinner11" d="M1024 576h-384l143.53 143.53c-72.53 72.526-168.96 112.47-271.53 112.47s-199-39.944-271.53-112.47c-72.526-72.53-112.47-168.96-112.47-271.53s39.944-199 112.47-271.53c72.53-72.526 168.96-112.47 271.53-112.47s199 39.944 271.528 112.472c6.056 6.054 11.86 12.292 17.456 18.668l96.32-84.282c-93.846-107.166-231.664-174.858-385.304-174.858-282.77 0-512 229.23-512 512s229.23 512 512 512c141.386 0 269.368-57.326 362.016-149.984l149.984 149.984v-384z" />
<glyph unicode="&#xe98f;" glyph-name="lock" d="M592 512h-16v192c0 105.87-86.13 192-192 192h-128c-105.87 0-192-86.13-192-192v-192h-16c-26.4 0-48-21.6-48-48v-480c0-26.4 21.6-48 48-48h544c26.4 0 48 21.6 48 48v480c0 26.4-21.6 48-48 48zM192 704c0 35.29 28.71 64 64 64h128c35.29 0 64-28.71 64-64v-192h-256v192z" />
<glyph unicode="&#xe990;" glyph-name="lockx" d="M768 896c105.87 0 192-86.13 192-192v-192h-128v192c0 35.29-28.71 64-64 64h-128c-35.29 0-64-28.71-64-64v-192h16c26.4 0 48-21.6 48-48v-480c0-26.4-21.6-48-48-48h-544c-26.4 0-48 21.6-48 48v480c0 26.4 21.6 48 48 48h400v192c0 105.87 86.13 192 192 192h128z" />
<glyph unicode="&#xe991;" glyph-name="request" d="M1002.934 142.124l-460.552 394.76c21.448 40.298 33.618 86.282 33.618 135.116 0 159.058-128.942 288-288 288-29.094 0-57.172-4.332-83.646-12.354l166.39-166.39c24.89-24.89 24.89-65.62 0-90.51l-101.49-101.49c-24.89-24.89-65.62-24.89-90.51 0l-166.39 166.39c-8.022-26.474-12.354-54.552-12.354-83.646 0-159.058 128.942-288 288-288 48.834 0 94.818 12.17 135.116 33.62l394.76-460.552c22.908-26.724 62.016-28.226 86.904-3.338l101.492 101.492c24.888 24.888 23.386 63.994-3.338 86.902z" />
<glyph unicode="&#xe994;" glyph-name="cog" d="M933.79 349.75c-53.726 93.054-21.416 212.304 72.152 266.488l-100.626 174.292c-28.75-16.854-62.176-26.518-97.846-26.518-107.536 0-194.708 87.746-194.708 195.99h-201.258c0.266-33.41-8.074-67.282-25.958-98.252-53.724-93.056-173.156-124.702-266.862-70.758l-100.624-174.292c28.97-16.472 54.050-40.588 71.886-71.478 53.638-92.908 21.512-211.92-71.708-266.224l100.626-174.292c28.65 16.696 61.916 26.254 97.4 26.254 107.196 0 194.144-87.192 194.7-194.958h201.254c-0.086 33.074 8.272 66.57 25.966 97.218 53.636 92.906 172.776 124.594 266.414 71.012l100.626 174.29c-28.78 16.466-53.692 40.498-71.434 71.228zM512 240.668c-114.508 0-207.336 92.824-207.336 207.334 0 114.508 92.826 207.334 207.336 207.334 114.508 0 207.332-92.826 207.332-207.334-0.002-114.51-92.824-207.334-207.332-207.334z" />
<glyph unicode="&#xe9ac;" glyph-name="bin" d="M128 640v-640c0-35.2 28.8-64 64-64h576c35.2 0 64 28.8 64 64v640h-704zM320 64h-64v448h64v-448zM448 64h-64v448h64v-448zM576 64h-64v448h64v-448zM704 64h-64v448h64v-448zM848 832h-208v80c0 26.4-21.6 48-48 48h-224c-26.4 0-48-21.6-48-48v-80h-208c-26.4 0-48-21.6-48-48v-80h832v80c0 26.4-21.6 48-48 48zM576 832h-192v63.198h192v-63.198z" />
<glyph unicode="&#xe9b6;" glyph-name="logout" d="M640 813.412v-135.958c36.206-15.804 69.5-38.408 98.274-67.18 60.442-60.44 93.726-140.8 93.726-226.274s-33.286-165.834-93.726-226.274c-60.44-60.44-140.798-93.726-226.274-93.726s-165.834 33.286-226.274 93.726c-60.44 60.44-93.726 140.8-93.726 226.274s33.286 165.834 93.726 226.274c28.774 28.774 62.068 51.378 98.274 67.182v135.956c-185.048-55.080-320-226.472-320-429.412 0-247.424 200.578-448 448-448 247.424 0 448 200.576 448 448 0 202.94-134.95 374.332-320 429.412zM448 960h128v-512h-128z" />
<glyph unicode="&#xe9b8;" glyph-name="clipboard" d="M928 832h-288c0 70.692-57.306 128-128 128-70.692 0-128-57.308-128-128h-288c-17.672 0-32-14.328-32-32v-832c0-17.674 14.328-32 32-32h832c17.674 0 32 14.326 32 32v832c0 17.672-14.326 32-32 32zM512 896c35.346 0 64-28.654 64-64s-28.654-64-64-64c-35.346 0-64 28.654-64 64s28.654 64 64 64zM896 0h-768v768h128v-96c0-17.672 14.328-32 32-32h448c17.674 0 32 14.328 32 32v96h128v-768zM448 101.49l-205.254 237.254 58.508 58.51 146.746-114.744 274.742 242.744 58.514-58.508z" />
<glyph unicode="&#xe9bc;" glyph-name="workflow" d="M976 192h-16v208c0 61.756-50.242 112-112 112h-272v128h16c26.4 0 48 21.6 48 48v160c0 26.4-21.6 48-48 48h-160c-26.4 0-48-21.6-48-48v-160c0-26.4 21.6-48 48-48h16v-128h-272c-61.756 0-112-50.244-112-112v-208h-16c-26.4 0-48-21.6-48-48v-160c0-26.4 21.6-48 48-48h160c26.4 0 48 21.6 48 48v160c0 26.4-21.6 48-48 48h-16v192h256v-192h-16c-26.4 0-48-21.6-48-48v-160c0-26.4 21.6-48 48-48h160c26.4 0 48 21.6 48 48v160c0 26.4-21.6 48-48 48h-16v192h256v-192h-16c-26.4 0-48-21.6-48-48v-160c0-26.4 21.6-48 48-48h160c26.4 0 48 21.6 48 48v160c0 26.4-21.6 48-48 48zM192 0h-128v128h128v-128zM576 0h-128v128h128v-128zM448 704v128h128v-128h-128zM960 0h-128v128h128v-128z" />
<glyph unicode="&#xe9c5;" glyph-name="import" d="M896 448h-160l-224-224-224 224h-160l-128-256v-64h1024v64l-128 256zM0 64h1024v-64h-1024v64zM576 640v256h-128v-256h-224l288-288 288 288h-224z" />
<glyph unicode="&#xe9c6;" glyph-name="export" d="M0 64h1024v-64h-1024zM1024 192v-64h-1024v64l128 256h256v-128h256v128h256zM224 640l288 288 288-288h-224v-256h-128v256z" />
<glyph unicode="&#xe9cd;" glyph-name="attachment1" d="M665.832 632.952l-64.952 64.922-324.81-324.742c-53.814-53.792-53.814-141.048 0-194.844 53.804-53.792 141.060-53.792 194.874 0l389.772 389.708c89.714 89.662 89.714 235.062 0 324.726-89.666 89.704-235.112 89.704-324.782 0l-409.23-409.178c-0.29-0.304-0.612-0.576-0.876-0.846-125.102-125.096-125.102-327.856 0-452.906 125.054-125.056 327.868-125.056 452.988 0 0.274 0.274 0.516 0.568 0.82 0.876l0.032-0.034 279.332 279.292-64.986 64.92-279.33-279.262c-0.296-0.268-0.564-0.57-0.846-0.844-89.074-89.058-233.98-89.058-323.076 0-89.062 89.042-89.062 233.922 0 322.978 0.304 0.304 0.604 0.582 0.888 0.846l-0.046 0.060 409.28 409.166c53.712 53.738 141.144 53.738 194.886 0 53.712-53.734 53.712-141.148 0-194.84l-389.772-389.7c-17.936-17.922-47.054-17.922-64.972 0-17.894 17.886-17.894 47.032 0 64.92l324.806 324.782z" />
<glyph unicode="&#xe9d7;" glyph-name="star-empty" d="M1024 562.95l-353.78 51.408-158.22 320.582-158.216-320.582-353.784-51.408 256-249.538-60.432-352.352 316.432 166.358 316.432-166.358-60.434 352.352 256.002 249.538zM512 206.502l-223.462-117.48 42.676 248.83-180.786 176.222 249.84 36.304 111.732 226.396 111.736-226.396 249.836-36.304-180.788-176.222 42.678-248.83-223.462 117.48z" />
<glyph unicode="&#xe9d8;" glyph-name="star-half" d="M1024 562.95l-353.78 51.408-158.22 320.582-158.216-320.582-353.784-51.408 256-249.538-60.432-352.352 316.432 166.358 316.432-166.358-60.434 352.352 256.002 249.538zM512 206.502l-0.942-0.496 0.942 570.768 111.736-226.396 249.836-36.304-180.788-176.222 42.678-248.83-223.462 117.48z" />
<glyph unicode="&#xe9d9;" glyph-name="star-full" d="M1024 562.95l-353.78 51.408-158.22 320.582-158.216-320.582-353.784-51.408 256-249.538-60.432-352.352 316.432 166.358 316.432-166.358-60.434 352.352 256.002 249.538z" />
<glyph unicode="&#xea09;" glyph-name="help" d="M448 256h128v-128h-128zM704 704c35.346 0 64-28.654 64-64v-192l-192-128h-128v64l192 128v64h-320v128h384zM512 864c-111.118 0-215.584-43.272-294.156-121.844s-121.844-183.038-121.844-294.156c0-111.118 43.272-215.584 121.844-294.156s183.038-121.844 294.156-121.844c111.118 0 215.584 43.272 294.156 121.844s121.844 183.038 121.844 294.156c0 111.118-43.272 215.584-121.844 294.156s-183.038 121.844-294.156 121.844zM512 960v0c282.77 0 512-229.23 512-512s-229.23-512-512-512c-282.77 0-512 229.23-512 512s229.23 512 512 512z" />
<glyph unicode="&#xea0c;" glyph-name="info" d="M448 656c0 26.4 21.6 48 48 48h32c26.4 0 48-21.6 48-48v-32c0-26.4-21.6-48-48-48h-32c-26.4 0-48 21.6-48 48v32zM640 192h-256v64h64v192h-64v64h192v-256h64zM512 960c-282.77 0-512-229.23-512-512s229.23-512 512-512 512 229.23 512 512-229.23 512-512 512zM512 32c-229.75 0-416 186.25-416 416s186.25 416 416 416 416-186.25 416-416-186.25-416-416-416z" />
<glyph unicode="&#xea0d;" glyph-name="cancel-circle" d="M512 960c-282.77 0-512-229.23-512-512s229.23-512 512-512 512 229.23 512 512-229.23 512-512 512zM512 32c-229.75 0-416 186.25-416 416s186.25 416 416 416 416-186.25 416-416-186.25-416-416-416zM672 704l-160-160-160 160-96-96 160-160-160-160 96-96 160 160 160-160 96 96-160 160 160 160z" />
<glyph unicode="&#xea10;" glyph-name="markx" d="M864 832l-480-480-224 224-160-160 384-384 640 640z" />
<glyph unicode="&#xea70;" glyph-name="multix1" d="M0 768v-704h1024v704h-1024zM384 320v128h256v-128h-256zM640 256v-128h-256v128h256zM640 640v-128h-256v128h256zM320 640v-128h-256v128h256zM64 448h256v-128h-256v128zM704 448h256v-128h-256v128zM704 512v128h256v-128h-256zM64 256h256v-128h-256v128zM704 128v128h256v-128h-256z" />
<glyph unicode="&#xea71;" glyph-name="multix" d="M0 896v-896h1024v896h-1024zM384 320v192h256v-192h-256zM640 256v-192h-256v192h256zM640 768v-192h-256v192h256zM320 768v-192h-256v192h256zM64 512h256v-192h-256v192zM704 512h256v-192h-256v192zM704 576v192h256v-192h-256zM64 256h256v-192h-256v192zM704 64v192h256v-192h-256z" />
</font>
</defs>
</svg>
