<?xml version="1.0" standalone="no"?>
<!DOCTYPE svg PUBLIC "-//W3C//DTD SVG 1.1//EN" "http://www.w3.org/Graphics/SVG/1.1/DTD/svg11.dtd" >
<svg xmlns="http://www.w3.org/2000/svg">
<metadata>Generated by IcoMoon</metadata>
<defs>
<font id="vis-fonts" horiz-adv-x="1024">
<font-face units-per-em="1024" ascent="960" descent="-64" />
<missing-glyph horiz-adv-x="1024" />
<glyph unicode="&#x20;" horiz-adv-x="512" d="" />
<glyph unicode="&#xe900;" glyph-name="account" d="M7.885 802.877h1008.251v-67.789h-1008.251v67.789zM478.31 799.212h67.4v-709.55h-67.4v709.55zM142.479 799.191h67.379v-216.125h-67.379v216.125zM23.88 564.285h304.579v-150.159h-304.579v150.159zM663.552 564.285h304.579v-150.159h-304.579v150.159zM23.88 362.516h304.579v-150.18h-304.579v150.18z" />
<glyph unicode="&#xe901;" glyph-name="amtdimension" d="M304.599 887.501v55.542h62.362v-54.231c69.939-7.782 115.63-41.021 137.052-99.697l-101.663-31.846c-10.404 27.505-31.621 41.267-63.652 41.267-26.849 0-40.264-8.663-40.264-25.989 0-6.287 2.273-11.633 6.82-16.077s17.101-8.97 37.663-13.537c46.961-10.281 80.63-19.476 100.987-27.587s37.315-21.852 50.852-41.226c13.537-19.374 20.316-42.25 20.316-68.649 0-37.007-13.148-67.973-39.465-92.979-26.317-24.986-62.525-40.079-108.646-45.261v-56.197h-62.362v56.197c-78.377 9.298-127.631 50.565-147.784 123.74l113.684 21.115c9.748-33.362 34.324-50.012 73.728-50.012 30.74 0 46.121 8.438 46.121 25.313 0 8.888-3.584 15.79-10.711 20.808-7.148 4.977-19.804 9.318-37.99 13.005-71.434 14.561-116.736 33.096-135.905 55.624-19.169 22.508-28.754 48.353-28.754 77.578 0 32.236 10.506 60.887 31.498 85.873 20.972 25.006 53.023 40.755 96.113 47.227zM651.223 421.847v55.542h62.362v-54.231c69.939-7.782 115.61-41.021 137.052-99.697l-101.663-31.846c-10.383 27.505-31.601 41.267-63.652 41.267-26.849 0-40.264-8.663-40.264-25.989 0-6.287 2.273-11.633 6.82-16.077s17.080-8.97 37.663-13.537c46.961-10.281 80.63-19.476 100.987-27.587s37.315-21.852 50.852-41.226c13.537-19.374 20.316-42.25 20.316-68.649 0-37.007-13.148-67.973-39.465-92.979-26.317-24.986-62.525-40.079-108.646-45.261v-56.197h-62.362v56.197c-78.377 9.298-127.631 50.565-147.784 123.74l113.684 21.115c9.748-33.362 34.324-50.012 73.728-50.012 30.74 0 46.121 8.438 46.121 25.313 0 8.888-3.584 15.79-10.711 20.808-7.148 4.977-19.804 9.318-37.99 13.005-71.434 14.561-116.736 33.096-135.905 55.624-19.169 22.508-28.754 48.353-28.754 77.578 0 32.236 10.506 60.887 31.498 85.873 20.972 25.006 53.023 40.735 96.113 47.227zM734.951 914.234l71.902-39.974-497.611-895.065-71.902 39.974 497.611 895.065z" />
<glyph unicode="&#xe902;" glyph-name="appointment" d="M912.63 832.492h-136.049l0.020 0.389v97.976c0 16.097-13.373 29.143-29.88 29.143h-28.692c-16.486 0-29.86-13.046-29.86-29.143v-97.976l0.020-0.389h-351.109l0.020 0.389v97.976c0 16.097-13.373 29.143-29.88 29.143h-28.692c-16.507 0-29.88-13.046-29.88-29.143v-97.976l0.020-0.389h-137.298c-33.239 0-60.17-26.010-60.17-58.102v-780.308c0-32.072 26.931-58.081 60.17-58.081h801.239c33.239 0 60.17 26.010 60.17 58.102v780.288c0.020 32.113-26.911 58.102-60.15 58.102zM887.808 44.319c0-14.090-11.858-25.477-26.481-25.477h-695.869c-14.623 0-26.481 11.407-26.481 25.477v511.693h748.831v-511.693zM887.808 640.328h-748.851v83.538c0 14.090 11.858 25.477 26.481 25.477h695.869c14.623 0 26.481-11.407 26.481-25.477v-83.538zM254.075 352.993h74.67c16.507 0 29.88 12.8 29.88 28.59v73.38c0 15.79-13.373 28.57-29.88 28.57h-74.67c-16.486 0-29.86-12.759-29.86-28.57v-73.359c-0.020-15.811 13.353-28.611 29.86-28.611zM451.195 352.993h74.67c16.507 0 29.86 12.8 29.86 28.59v73.38c0 15.79-13.373 28.57-29.86 28.57h-74.67c-16.507 0-29.86-12.759-29.86-28.57v-73.359c0-15.811 13.373-28.611 29.86-28.611zM648.335 352.993h74.67c16.486 0 29.86 12.8 29.86 28.59v73.38c0 15.79-13.373 28.57-29.86 28.57h-74.67c-16.507 0-29.88-12.759-29.88-28.57v-73.359c0-15.811 13.394-28.611 29.88-28.611zM254.075 158.679h74.67c16.507 0 29.88 12.8 29.88 28.59v73.339c0 15.79-13.373 28.59-29.88 28.59h-74.67c-16.486 0-29.86-12.8-29.86-28.59v-73.339c-0.020-15.79 13.353-28.59 29.86-28.59zM451.195 158.679h74.67c16.507 0 29.86 12.8 29.86 28.59v73.339c0 15.79-13.373 28.59-29.86 28.59h-74.67c-16.507 0-29.86-12.8-29.86-28.59v-73.339c0-15.79 13.373-28.59 29.86-28.59zM648.335 158.679h74.67c16.486 0 29.86 12.8 29.86 28.59v73.339c0 15.79-13.373 28.59-29.86 28.59h-74.67c-16.507 0-29.88-12.8-29.88-28.59v-73.339c0-15.79 13.394-28.59 29.88-28.59z" />
<glyph unicode="&#xe903;" glyph-name="arrow-down" d="M953.098 722.678l-429.978-429.875-429.957 429.875-71.803-71.803 501.76-501.637 501.76 501.637z" />
<glyph unicode="&#xe904;" glyph-name="arrow-left" d="M784.22 877.957l-429.896-429.957 429.896-429.957-71.782-71.803-501.658 501.76 501.658 501.76z" />
<glyph unicode="&#xe905;" glyph-name="arrow-right" d="M225.28 877.978l429.896-429.978-429.896-429.978 71.782-71.782 501.658 501.76-501.658 501.76z" />
<glyph unicode="&#xe906;" glyph-name="arrow-up" d="M82.022 149.606l429.978 429.875 429.978-429.875 71.782 71.762-501.76 501.678-501.76-501.678z" />
<glyph unicode="&#xe907;" glyph-name="attachment" d="M690.053 960h-566.579c-28.611 0-51.794-22.938-51.794-51.2v-270.397c15.237 25.436 55.767 47.165 80.527 61.297v180.47h466.268l0.799-353.403 251.126-1.782v-510.362l-311.89 0.348c-10.752-13.066-22.63-45.67-35.717-56.566-9.605-8.008-19.497-15.442-29.594-22.405h407.306c28.611 0 51.814 22.917 51.814 51.18v665.62c0-11.203-257.372 307.2-262.267 307.2zM699.187 606.147v216.74l191.529-216.74h-191.529zM71.68 98.468v422.973c0 0 0 131.133 141.251 131.133h51.896c0 0 128.43-2.621 128.43-134.328v-375.992c0 0 6.943-76.943-85.053-76.943h-42.824c0 0-66.15-8.192-66.15 79.77l-2.355 279.020c0 0-3.215 27.525 25.682 27.525h18.596c0 0 26.747 1.065 26.747-24.33v-278.692c0 0-2.007-14.275 24.76-14.275 0 0 31.027-3.154 31.027 19.046v370.176c0 0 1.065 60.805-67.42 60.805h-53.514c0 0-60.457 5.284-60.457-63.447v-412.508c0 0-10.158-102.605 107.54-102.605h86.671c0 0 111.821-6.349 111.821 94.659v282.419c0 0 5.796 24.678 37.356 24.678 0 0 27.382-3.912 30.597-24.166v-312.525c0 0-2.662-134.861-155.709-134.861h-113.971c0.041 0.020-174.92-5.796-174.92 162.468z" />
<glyph unicode="&#xe908;" glyph-name="attachmentx" d="M690.053 960.43h-18.289l257.044-307.2-257.741-0.205 0.696 307.405h-548.291c-28.611 0-51.794-22.917-51.794-51.2v-921.6c0-28.262 23.183-51.2 51.794-51.2h777.032c28.59 0 51.794 22.938 51.794 51.2v665.6c0.020-11.203-257.352 307.2-262.246 307.2zM640.328 188.396c0 0-2.683-134.881-155.709-134.881h-113.971c0 0-174.961-5.796-174.961 162.468v422.953c0 0 0 131.154 141.251 131.154h51.917c0 0 128.41-2.621 128.41-134.328v-376.013c0 0 6.943-76.923-85.053-76.923h-42.803c0 0-66.15-8.192-66.15 79.77l-2.335 279.020c0 0-3.215 27.525 25.682 27.525h18.575c0 0 26.767 1.085 26.767-24.33v-278.692c0 0-2.007-14.275 24.74-14.275 0 0 31.048-3.154 31.048 19.046v370.176c0 0 1.065 60.826-67.42 60.826h-53.514c0 0-60.457 5.304-60.457-63.447v-412.529c0 0-10.158-102.584 107.561-102.584h86.671c0 0 111.821-6.369 111.821 94.659v282.44c0 0 5.796 24.658 37.356 24.658 0 0 27.382-3.912 30.597-24.146v-312.545z" />
<glyph unicode="&#xe909;" glyph-name="chat" d="M433.316 895.549c-238.756 0-432.312-166.584-432.312-372.122 0-85.361 33.403-163.963 89.518-226.734-12.165-28.631-39.977-87.491-79.831-131.768 0 0-14.52-16.63-9.687-38.81 0 0 6.451-37.11 55.235-32.891 0 0 125.071 5.1 218.153 84.009 49.193-16.732 102.81-25.948 158.925-25.948 238.776 0 432.333 166.625 432.333 372.142 0 205.537-193.577 372.122-432.333 372.122zM433.254 223.99c-54.374 0-105.82 10.158-151.962 28.18-7.741-3.748-55.214-33.792-55.194-33.792-67.072-43.274-153.047-63.263-153.047-63.263 24.637 25.047 61.972 90.911 75.080 114.586 0.225-0.205 18.862 43.131 20.5 51.261-58.061 52.797-93.491 123.064-93.491 200.172 0 164.086 160.338 297.124 358.113 297.124s358.113-133.038 358.113-297.124-160.338-297.144-358.113-297.144zM839.004 76.861c0.020 0.020-57.344 39.199-66.683 44.073-47.739-20.091-100.188-32.686-155.525-35.881 192.184 69.468 328.376 242.913 328.376 445.932 0 75.96-19.108 147.763-53.064 211.579 79.811-67.748 129.331-162.918 129.331-271.032 0-100.536-42.824-192.102-113.009-260.915 1.987-10.629 24.515-67.031 24.801-66.826 15.811-30.925 60.948-116.756 90.747-149.381 0.020 0.020-103.895 26.051-184.975 82.452zM671.642 633.979h-430.776c-21.34 0-38.625-17.777-38.625-39.711 0-21.914 17.306-39.69 38.625-39.69h430.776c21.34 0 38.625 17.777 38.625 39.69 0 21.934-17.306 39.711-38.625 39.711zM474.337 441.303h-233.472c-21.34 0-38.625-17.797-38.625-39.711s17.306-39.711 38.625-39.711h233.472c21.34 0 38.625 17.797 38.625 39.711s-17.285 39.711-38.625 39.711z" />
<glyph unicode="&#xe90a;" glyph-name="chatx" d="M835.727 78.848c0.041 0-58.368 38.707-67.85 43.5-48.579-19.825-101.97-32.236-158.269-35.41 195.564 68.588 334.193 239.841 334.193 440.279 0 74.998-19.436 145.879-54.006 208.896 81.244-66.888 131.625-160.87 131.625-267.592 0-99.267-43.581-189.665-115.016-257.618 2.028-10.486 24.945-66.171 25.231-65.966 16.097-30.536 62.034-115.302 92.365-147.497 0 0-105.759 25.723-188.273 81.408zM442.982 898.56c-243.241 0-440.422-171.151-440.422-382.362 0-99.267 43.581-189.645 114.995-257.597-2.028-10.445-24.965-66.212-25.231-65.946-16.077-30.515-61.993-115.302-92.344-147.456 0 0 105.738 25.702 188.252 81.367-0.041 0.020 58.348 38.666 67.85 43.52 56.75-23.204 120.033-36.25 186.9-36.25 243.241 0 440.422 171.151 440.422 382.362s-197.181 382.362-440.422 382.362zM479.355 321.618h-280.781c-17.981 0-32.563 16.63-32.563 37.13 0 20.541 14.582 37.151 32.563 37.151h280.781c17.981 0 32.543-16.63 32.543-37.151 0-20.5-14.561-37.13-32.543-37.13zM686.592 547.86h-489.779c-16.998 0-30.802 16.63-30.802 37.13 0 20.521 13.804 37.151 30.802 37.151h489.8c17.019 0 30.802-16.65 30.802-37.151-0.020-20.521-13.804-37.13-30.822-37.13z" />
<glyph unicode="&#xe90b;" glyph-name="createdocument" d="M535.798 538.829h-129.516v-170.435h-170.762v-130.191h170.762v-170.414h129.516v170.414h170.762v130.191h-170.762zM690.074 960h-566.579c-28.611 0-51.814-22.917-51.814-51.2v-921.6c0-28.283 23.204-51.2 51.814-51.2h777.032c28.611 0 51.794 22.917 51.794 51.2v665.6c0-11.203-257.372 307.2-262.246 307.2zM870.4 14.623l-718.193 0.799v864.748h466.268l0.799-353.403 251.126-1.761v-510.382zM699.208 606.167v216.719l191.508-216.719h-191.508z" />
<glyph unicode="&#xe90c;" glyph-name="createdocumentx" d="M690.074 960h-18.268l257.024-307.2-257.72-0.225 0.676 307.425h-548.291c-28.611 0-51.814-22.938-51.814-51.2v-921.6c0-28.283 23.204-51.2 51.814-51.2h777.011c28.611 0 51.814 22.917 51.814 51.2v665.6c0-11.203-257.372 307.2-262.246 307.2zM713.892 269.865h-170.762v-170.455h-129.516v170.455h-170.762v130.13h170.762v170.435h129.516v-170.435h170.762v-130.13z" />
<glyph unicode="&#xe90d;" glyph-name="delete" d="M985.17 763.085h-240.681v107.54c0 43.909-35 79.462-78.193 79.462h-309.637c-43.192 0-78.193-35.553-78.193-79.462v-107.54h-239.636c-15.79 0-28.59-21.893-28.59-37.929 0-16.077 12.8-42.516 28.59-42.516h107.254l72.97-636.457c12.513-99.82 79.38-99.615 105.288-99.615h382.628c25.907 0 88.617-0.43 96.031 82.555l74.916 653.517h107.254c15.79 0 28.59 26.44 28.59 42.516 0 16.015-12.8 37.929-28.59 37.929zM364.216 817.132c0 43.909 31.396 47.718 70.144 47.718h153.19c38.728 0 70.144-3.83 70.144-47.718v-54.067h-293.478v54.067zM724.541 102.728c-6.84-76.595-64.737-76.206-88.637-76.206h-240.947c-23.921 0-85.647-0.184-97.198 91.955l-69.673 563.896c25.457 0-5.673 0 18.227 0h523.571c23.9 0 9.318 0 25.723 0l-71.066-579.645zM355.635 599.306c-15.524-0.614-27.628-13.947-27.013-29.716l21.729-431.903c0.614-15.77 13.701-28.099 29.245-27.464s27.628 13.947 27.013 29.716l-21.729 431.923c-0.635 15.77-13.722 28.078-29.245 27.443zM668.365 599.306c-15.524 0.717-28.672-11.53-29.348-27.3l-24.351-431.8c-0.676-15.79 11.346-29.164 26.89-29.88 15.524-0.655 28.672 11.571 29.368 27.341l24.351 431.8c0.676 15.77-11.346 29.143-26.911 29.839zM512.635 599.532c-15.544 0-28.14-12.8-28.14-28.611v-432.292c0-15.811 12.595-28.611 28.14-28.611 15.565 0 28.16 12.8 28.16 28.611v432.292c-0.020 15.811-12.616 28.611-28.16 28.611z" />
<glyph unicode="&#xe90e;" glyph-name="edit" d="M871.649 475.156v-460.718h-791.88v781.804h500.081c14.213 17.142 89.17 63.734 100.454 78.438h-656.998c-12.861 0-23.306-10.301-23.306-22.999v-892.682c0-12.698 10.445-22.999 23.306-22.999h904.786c12.861 0 23.327 10.301 23.327 22.999v645.304c0 0-76.513-127.283-79.77-129.147zM216.33 158.843l227.123 88.412 434.504 428.728-141.844 139.94-475.709-469.34-44.073-187.74zM751.186 681.984l15.094-24.023-352.317-347.628-56.095-17.94 393.318 389.591zM1014.477 856.023l-95.887 94.597c-12.677 12.493-33.26 12.493-45.937-0.020l-95.846-94.577c-12.677-12.513-23.040-22.61-22.999-22.651l141.783-139.899c-0.041 0.020 10.322 10.117 22.999 22.63l95.887 94.577c12.698 12.534 12.698 32.829 0 45.343z" />
<glyph unicode="&#xe90f;" glyph-name="email" d="M942.285 854.036h-860.59c-45.117 0-81.695-38.748-81.695-86.548v-646.124c0-47.8 36.577-86.528 81.695-86.528h860.59c45.117 0 81.715 38.728 81.715 86.528v646.124c0 47.8-36.598 86.548-81.715 86.548zM115.507 770.847h792.986c19.968 0 36.147-16.404 36.147-36.639v-67.871l-357.13-321.372c-77.701-82.78-152.515 0-152.515 0l-355.656 320.287v68.936c0 20.255 16.2 36.659 36.168 36.659zM908.493 118.006h-792.986c-19.968 0-36.168 16.404-36.168 36.639v402.596l337.039-302.387c100.413-79.299 184.013-7.25 184.013-7.25l344.228 312.156v-405.115c0.020-20.255-16.159-36.639-36.127-36.639z" />
<glyph unicode="&#xe910;" glyph-name="find" d="M955.249 76.534l-120.975 148.951-131.072-106.496 123.679-152.269c0 0 32.276-39.69 94.945 11.223-0.020 0.020 68.383 55.603 33.423 98.591zM879.8 533.524c0 226.652-183.808 410.481-410.501 410.481s-410.46-183.828-410.46-410.481c0-226.693 183.767-410.501 410.46-410.501s410.501 183.788 410.501 410.501zM473.866 198.943c-184.812 0-334.623 149.77-334.623 334.582s149.811 334.582 334.623 334.582c184.791 0 334.602-149.77 334.602-334.582s-149.811-334.582-334.602-334.582zM503.050 717.517h-67.461v-150.303h-150.303v-67.441h150.323l-0.020-150.282h67.461v150.282h150.303v67.461l-150.303-0.020z" />
<glyph unicode="&#xe911;" glyph-name="ignore" d="M227.43 690.34h-218.296l244.306-248.689 244.285 248.689h-219.054zM568.648 908.8c-167.035 0-312.197-95.908-387.973-237.384 25.354-2.335 50.606-5.632 75.571-10.179 66.867 105.452 181.658 175.227 312.422 175.227 206.725 0 374.292-173.957 374.292-388.465 0-214.548-167.588-388.485-374.292-388.485-125.399 0-235.704 64.471-303.473 162.857-15.319 4.301-30.843 7.188-46.060 2.642-2.867-0.84-5.919-1.823-8.929-2.867-1.495-1.229-2.785-2.642-3.85-4.198-1.208-2.171-2.314-4.403-3.236-6.676-2.253-7.086-2.028-15.36-0.471-22.323 0.041-0.184 0.020-0.369 0.061-0.553 79.913-121.283 213.688-201.196 365.957-201.196 245.207 0 444.006 206.295 444.006 460.8s-198.799 460.8-444.027 460.8z" />
<glyph unicode="&#xe912;" glyph-name="letter" d="M955.761 846.275h-892.928c-27.259 0-49.377-22.241-49.377-49.684v-697.283c0-27.423 22.118-49.623 49.377-49.623h892.928c27.259 0 49.377 22.2 49.377 49.623v697.283c0 27.443-22.118 49.684-49.377 49.684zM930.14 124.457h-845.292v651.141h845.292v-651.141zM725.504 680.387h132.219v-132.219h-132.219v132.219zM161.3 447.918h493.056v-69.591h-493.056v69.591zM161.3 293.683h493.056v-69.612h-493.056v69.612z" />
<glyph unicode="&#xe913;" glyph-name="locator" d="M694.19 389.755c0.082-1.208 0.020-0.205 0 0v0zM573.256 499.323c0.614-0.348 1.085-0.737 1.741-1.065-0.655 0.328-1.126 0.717-1.741 1.065-0.020 0-0.020 0 0 0zM557.466 515.912v0 0zM751.759 478.188c0.020-0.184 0.041-0.43 0.061-0.594zM231.342 933.868h74.977v-985.477h-74.977v985.477zM656.753 933.868h74.977v-985.477h-74.977v985.477zM18.862 604.303h985.477v-74.998h-985.477v74.998zM18.862 197.243h985.477v-74.977h-985.477v74.977zM47.452 824.955h133.898v-160.666h-133.898v160.666zM790.139 824.955h133.898v-160.666h-133.898v160.666zM779.428 457.175h155.32v-212.46h-155.32v212.46zM403.558 450.048h155.32v-212.5h-155.32v212.5zM36.762 470.63h155.32v-212.48h-155.32v212.48zM375.972 74.281h155.32v-106.209h-155.32v106.209zM797.266 83.19h155.32v-106.23h-155.32v106.23zM364.749 824.955h232.98v-160.666h-232.98v160.666z" />
<glyph unicode="&#xe914;" glyph-name="mark" d="M990.126 45.732l-395.899 397.619 397.558 395.899c14.029 14.008 15.729 35.041 3.789 47.043l-38.789 38.912c-11.94 12.001-33.014 10.404-47.022-3.604l-397.599-395.878-395.899 397.558c-13.967 14.049-35.021 15.749-47.022 3.809l-38.953-38.83c-12.001-11.94-10.404-32.993 3.584-47.002l395.919-397.578-397.578-395.919c-14.029-13.967-15.729-35.021-3.789-47.043l38.789-38.953c11.94-11.94 33.014-10.342 47.043 3.666l397.558 395.878 395.919-397.537c13.967-14.070 35.041-15.749 47.022-3.83l38.953 38.789c12.001 11.94 10.404 33.055-3.584 47.002z" />
<glyph unicode="&#xe915;" glyph-name="multi" d="M871.649 475.156v-460.718h-791.88v781.804h500.081c14.213 17.142 89.17 63.734 100.454 78.438h-656.998c-12.861 0-23.306-10.301-23.306-22.999v-892.682c0-12.698 10.445-22.999 23.306-22.999h904.786c12.861 0 23.327 10.301 23.327 22.999v645.304c0 0-76.513-127.283-79.77-129.147zM216.33 158.843l227.123 88.412 434.504 428.728-141.844 139.94-475.709-469.34-44.073-187.74zM751.186 681.984l15.094-24.023-352.317-347.628-56.095-17.94 393.318 389.591zM1014.477 856.023l-95.887 94.597c-12.677 12.493-33.26 12.493-45.937-0.020l-95.846-94.577c-12.677-12.513-23.040-22.61-22.999-22.651l141.783-139.899c-0.041 0.020 10.322 10.117 22.999 22.63l95.887 94.577c12.698 12.534 12.698 32.829 0 45.343z" />
<glyph unicode="&#xe916;" glyph-name="new" d="M566.108 667.73h-108.237l0.020-165.601h-165.622l-0.020-108.257h165.642l-0.020-165.601h108.257v165.601h165.601v108.257h-165.601zM512 949.76c-277.115 0-501.76-224.666-501.76-501.76s224.645-501.76 501.76-501.76c277.115 0 501.76 224.666 501.76 501.76s-224.645 501.76-501.76 501.76zM512 21.299c-235.663 0-426.721 191.017-426.721 426.701 0 235.663 191.058 426.721 426.721 426.721s426.721-191.058 426.721-426.721c0-235.684-191.058-426.701-426.721-426.701z" />
<glyph unicode="&#xe917;" glyph-name="next" d="M953.098 722.678l-429.978-429.875-429.957 429.875-71.803-71.803 501.76-501.637 501.76 501.637z" />
<glyph unicode="&#xe918;" glyph-name="pagedown" d="M225.28 877.978l429.896-429.978-429.896-429.978 71.782-71.782 501.658 501.76-501.658 501.76z" />
<glyph unicode="&#xe919;" glyph-name="pageup" d="M784.22 877.957l-429.896-429.957 429.896-429.957-71.782-71.803-501.658 501.76 501.658 501.76z" />
<glyph unicode="&#xe91a;" glyph-name="pattribute" d="M337.818 422.973l-305.766 145.285 251.474 199.455 323.85-145.347zM630.907 252.355l-279.511-170.619v312.852l279.511 199.004zM12.104 200.52l304.005-122.368v320.86l-304.005 142.746zM1001.001 825.221v0.041h-649.605v-176.312h68.608v109.097h523.203v-173.363h-321.352v-67.215h321.352v-181.453h-548.393v-67.174h548.393v-130.847h-591.811v-67.215h660.419v754.442z" />
<glyph unicode="&#xe91b;" glyph-name="home" d="M1024 369.556l-512 397.426-512-397.428v162.038l512 397.426 512-397.428zM896 384v-384h-256v256h-256v-256h-256v384l384 288z" />
<glyph unicode="&#xe91c;" glyph-name="card" d="M0 876v-874.016h1024v874.016h-1024zM946.624 74.848h-873.824v728.32h873.824v-728.32zM145.632 657.504h728.192v-72.832h-728.192v72.832zM582.528 511.84h291.296v-72.832h-291.296v72.832zM582.528 366.144h291.296v-72.8h-291.296v72.8zM582.528 220.512h218.432v-72.832h-218.432v72.832zM145.632 511.84h364.064v-364.16h-364.064v364.16z" />
<glyph unicode="&#xe91d;" glyph-name="pencil" d="M864 960c88.364 0 160-71.634 160-160 0-36.020-11.91-69.258-32-96l-64-64-224 224 64 64c26.742 20.090 59.978 32 96 32zM64 224l-64-288 288 64 592 592-224 224-592-592zM715.578 596.422l-448-448-55.156 55.156 448 448 55.156-55.156z" />
<glyph unicode="&#xe91e;" glyph-name="image" d="M959.884 832c0.040-0.034 0.082-0.076 0.116-0.116v-767.77c-0.034-0.040-0.076-0.082-0.116-0.116h-895.77c-0.040 0.034-0.082 0.076-0.114 0.116v767.772c0.034 0.040 0.076 0.082 0.114 0.114h895.77zM960 896h-896c-35.2 0-64-28.8-64-64v-768c0-35.2 28.8-64 64-64h896c35.2 0 64 28.8 64 64v768c0 35.2-28.8 64-64 64v0zM832 672c0-53.020-42.98-96-96-96s-96 42.98-96 96 42.98 96 96 96 96-42.98 96-96zM896 128h-768v128l224 384 256-320h64l224 192z" />
<glyph unicode="&#xe91f;" glyph-name="images" horiz-adv-x="1152" d="M1088 832h-64v64c0 35.2-28.8 64-64 64h-896c-35.2 0-64-28.8-64-64v-768c0-35.2 28.8-64 64-64h64v-64c0-35.2 28.8-64 64-64h896c35.2 0 64 28.8 64 64v768c0 35.2-28.8 64-64 64zM128 768v-640h-63.886c-0.040 0.034-0.082 0.076-0.114 0.116v767.77c0.034 0.040 0.076 0.082 0.114 0.114h895.77c0.040-0.034 0.082-0.076 0.116-0.116v-63.884h-768c-35.2 0-64-28.8-64-64v0zM1088 0.116c-0.034-0.040-0.076-0.082-0.116-0.116h-895.77c-0.040 0.034-0.082 0.076-0.114 0.116v767.77c0.034 0.040 0.076 0.082 0.114 0.114h895.77c0.040-0.034 0.082-0.076 0.116-0.116v-767.768zM960 608c0-53.020-42.98-96-96-96s-96 42.98-96 96 42.98 96 96 96 96-42.98 96-96zM1024 64h-768v128l224 384 256-320h64l224 192z" />
<glyph unicode="&#xe920;" glyph-name="removefav" d="M788.48 281.723c-4.628 0.532-9.155 1.413-13.701 2.232-108.175 19.108-190.464 113.213-190.464 226.918 0 64.020 26.276 121.795 68.383 163.594 0.676 0.696 1.29 1.454 1.987 2.13l-1.004 2.007-131.809 267.121-161.71-327.66-361.636-52.593 261.652-255.037-61.768-360.182 323.461 170.086 323.461-170.086-56.852 331.469zM829.583 710.103c-108.196 0-195.912-87.716-195.912-195.891 0-108.216 87.716-195.912 195.912-195.912s195.912 87.695 195.912 195.912c0 108.175-87.716 195.891-195.912 195.891zM953.221 411.3v0.041c3.625-3.604 4.035-9.052 0.922-12.165l-10.056-10.035c-3.092-3.072-8.561-2.662-12.165 0.983l-102.38 102.81-102.81-102.339c-3.625-3.666-9.073-4.035-12.165-0.963l-10.035 10.076c-3.092 3.092-2.642 8.561 0.983 12.165l102.81 102.38-102.38 102.81c-3.625 3.625-4.035 9.052-0.922 12.145l10.076 10.056c3.092 3.072 8.54 2.662 12.165-0.983l102.38-102.83 102.81 102.38c3.645 3.625 9.093 4.035 12.165 0.922l10.035-10.056c3.092-3.092 2.642-8.561-0.983-12.186l-102.81-102.339 102.359-102.871z" />
<glyph unicode="&#xe921;" glyph-name="pcontainer" d="M163.574 45.199h51.2v198.963h49.070v51.2h-49.070v151.347h-51.2v-151.347h-49.070v-51.2h49.070zM464.794 45.199h51.2v198.963h49.070v51.2h-49.070v151.347h-51.2v-151.347h-49.050v-51.2h49.050zM857.334 648.765h51.2v-303.206h-51.2v303.206zM759.849 551.24h51.2v-303.206h-51.2v303.206zM399.688 946.483l-392.335-399.524v-602.030h666.317l342.979 307.63v693.924h-616.96zM308.367 9.667h-236.298v472.576h236.298v-472.576zM608.952 9.667h-235.868v472.576h235.868v-472.576zM608.952 546.959h-511.037l328.806 334.807h484.229l-301.998-334.807zM951.91 280.863l-278.241-249.59v490.824l278.241 308.47v-549.704z" />
<glyph unicode="&#xe922;" glyph-name="plus" d="M1013.125 519.066h-430.694v430.694h-142.131v-430.694h-430.694v-142.131h430.694v-430.694h142.131v430.694h430.694z" />
<glyph unicode="&#xe923;" glyph-name="previous" d="M82.022 149.606l429.978 429.875 429.978-429.875 71.782 71.762-501.76 501.678-501.76-501.678z" />
<glyph unicode="&#xe924;" glyph-name="file-empty" d="M917.806 730.924c-22.212 30.292-53.174 65.7-87.178 99.704s-69.412 64.964-99.704 87.178c-51.574 37.82-76.592 42.194-90.924 42.194h-496c-44.112 0-80-35.888-80-80v-864c0-44.112 35.888-80 80-80h736c44.112 0 80 35.888 80 80v624c0 14.332-4.372 39.35-42.194 90.924zM785.374 785.374c30.7-30.7 54.8-58.398 72.58-81.374h-153.954v153.946c22.984-17.78 50.678-41.878 81.374-72.572zM896 16c0-8.672-7.328-16-16-16h-736c-8.672 0-16 7.328-16 16v864c0 8.672 7.328 16 16 16 0 0 495.956 0.002 496 0v-224c0-17.672 14.326-32 32-32h224v-624z" />
<glyph unicode="&#xe925;" glyph-name="copy" d="M917.806 602.924c-22.21 30.292-53.174 65.7-87.178 99.704s-69.412 64.964-99.704 87.178c-51.574 37.82-76.592 42.194-90.924 42.194h-368c-44.114 0-80-35.888-80-80v-736c0-44.112 35.886-80 80-80h608c44.112 0 80 35.888 80 80v496c0 14.332-4.372 39.35-42.194 90.924zM785.374 657.374c30.7-30.7 54.8-58.398 72.58-81.374h-153.954v153.946c22.982-17.78 50.678-41.878 81.374-72.572v0zM896 16c0-8.672-7.328-16-16-16h-608c-8.672 0-16 7.328-16 16v736c0 8.672 7.328 16 16 16 0 0 367.956 0.002 368 0v-224c0-17.672 14.324-32 32-32h224v-496zM602.924 917.804c-51.574 37.822-76.592 42.196-90.924 42.196h-368c-44.112 0-80-35.888-80-80v-736c0-38.632 27.528-70.958 64-78.39v814.39c0 8.672 7.328 16 16 16h486.876c-9.646 7.92-19.028 15.26-27.952 21.804z" />
<glyph unicode="&#xe926;" glyph-name="file-text" d="M917.806 730.924c-22.212 30.292-53.174 65.7-87.178 99.704s-69.412 64.964-99.704 87.178c-51.574 37.82-76.592 42.194-90.924 42.194h-496c-44.112 0-80-35.888-80-80v-864c0-44.112 35.888-80 80-80h736c44.112 0 80 35.888 80 80v624c0 14.332-4.372 39.35-42.194 90.924zM785.374 785.374c30.7-30.7 54.8-58.398 72.58-81.374h-153.954v153.946c22.984-17.78 50.678-41.878 81.374-72.572zM896 16c0-8.672-7.328-16-16-16h-736c-8.672 0-16 7.328-16 16v864c0 8.672 7.328 16 16 16 0 0 495.956 0.002 496 0v-224c0-17.672 14.326-32 32-32h224v-624zM736 128h-448c-17.672 0-32 14.326-32 32s14.328 32 32 32h448c17.674 0 32-14.326 32-32s-14.326-32-32-32zM736 256h-448c-17.672 0-32 14.326-32 32s14.328 32 32 32h448c17.674 0 32-14.326 32-32s-14.326-32-32-32zM736 384h-448c-17.672 0-32 14.326-32 32s14.328 32 32 32h448c17.674 0 32-14.326 32-32s-14.326-32-32-32z" />
<glyph unicode="&#xe927;" glyph-name="print" d="M1010.074 752.865h-139.039v207.135h-718.029v-207.135h-139.059c-7.7 0-13.947-6.246-13.947-13.988v-635.31c0-7.721 6.246-13.988 13.947-13.988h159.068v-153.58h678.134v153.58h158.925c7.7 0 13.926 6.267 13.926 13.988v635.31c0 7.741-6.226 13.988-13.926 13.988zM216.371 897.516h591.442v-144.65h-591.442v144.65zM787.333-1.843h-551.854v316.211h551.854v-316.211zM961.516 152.084h-110.367v224.666h-678.134v-224.666h-110.531v538.317h899.011v-538.317zM903.557 552.346c0-46.205-37.456-83.661-83.661-83.661s-83.661 37.456-83.661 83.661c0 46.205 37.456 83.661 83.661 83.661s83.661-37.456 83.661-83.661zM308.9 246.313h407.163v-51.855h-407.163v51.855zM308.9 134.636h407.163v-51.855h-407.163v51.855z" />
<glyph unicode="&#xe928;" glyph-name="product" d="M535.265 448.061l-436.122 211.476 358.687 290.386 461.926-211.64zM953.303 199.639l-398.684-248.402v455.414l398.684 289.812zM70.676 124.15l433.603-178.115v467.087l-433.603 207.831z" />
<glyph unicode="&#xe929;" glyph-name="recordaccess" d="M638.444 145.285c-1.106 1.905-2.99 6.656-3.236 7.311l-0.246 22.774c-0.389 37.683-0.389 37.683 0.225 95.007l0.348 33.055c0.266 24.596-13.558 43.356-25.764 59.904-3.338 4.547-8.602 11.674-10.895 15.892l2.826 30.986c70.984 56.115 112.824 146.166 112.824 244.879 0 165.069-117.637 299.315-262.246 299.315s-262.246-134.267-262.246-299.315c0-108.605 50.217-205.66 130.908-258.499-95.478-37.274-315.822-151.060-315.822-407.286v-41.083h793.907l7.475 81.347c-1.065 0.225-108.38 24.515-168.059 115.712zM84.255 30.351c29.512 224.215 295.588 300.503 298.373 301.261l28.795 7.885v102.277l-23.818 10.404c-72.417 31.683-121.098 113.213-121.098 202.916 0 119.747 83.333 217.17 185.774 217.17s185.774-97.444 185.774-217.17c0-77.537-34.796-147.476-93.102-187.105l-15.79-10.711-6.963-76.513c-1.741-28.57 14.541-50.668 27.607-68.383 2.929-3.973 7.066-9.585 9.196-13.148l-0.307-27.873c-0.635-58.47-0.635-58.47-0.205-96.911l0.225-22.282c0-22.098 11.059-44.81 16.896-53.74 17.736-27.095 38.298-49.562 59.535-68.055h-550.892zM978.514 428.38l-22.979-0.041v40.325c0 78.254-65.843 102.973-102.011 105.165-42.332 0-73.83-11.407-93.635-33.853-21.504-24.412-20.91-52.716-20.255-60.498l-0.041-51.302-30.618-0.020c-17.49-2.683-30.925-17.961-30.925-36.352v-220.713c0-20.255 16.302-36.762 36.352-36.762h260.547c20.050 0 36.372 16.507 36.372 36.762v220.692c0 19.067-14.418 34.775-32.809 36.598zM793.436 510.382c10.772 12.268 31.56 18.719 58.573 18.76 6.021-0.43 58.798-5.898 58.798-60.477v-40.325l-126.464-0.143v52.347l-0.184 2.826c0 0-1.352 14.971 9.277 27.013zM966.615 179.016h-243.835v204.8h16.794v-0.41l227.062 0.41v-204.8zM844.288 339.866c-24.003 0-43.5-19.907-43.5-44.401 0-12.227 4.977-23.818 13.537-32.154v-37.724c0-13.476 10.793-24.433 24.064-24.433h11.817c13.271 0 24.064 10.957 24.064 24.433v37.724c8.561 8.335 13.517 19.948 13.517 32.154-0.020 24.494-19.517 44.401-43.5 44.401zM856.207 277.238l-5.837-4.792 1.536-7.148v-39.711c0-1.147-0.778-2.089-1.7-2.089h-11.817c-0.922 0-1.7 0.942-1.7 2.089l0.082 40.264 1.536 7.148-5.939 4.26c-5.755 4.178-9.216 10.957-9.216 18.227 0 12.165 9.482 22.036 21.135 22.036s21.135-9.871 21.135-22.036c-0.020-7.291-3.461-14.070-9.216-18.248z" />
<glyph unicode="&#xe92a;" glyph-name="recordaccessx" d="M996.413 365.629h-22.016v60.826c0 65.966-56.402 119.419-125.972 119.419h-11.018c-69.571 0-125.972-53.453-125.972-119.419v-60.826h-19.784c-9.052 0-16.364-7.025-16.364-15.667v-240.353c0-8.663 7.332-15.667 16.364-15.667h304.763c9.052 0 16.384 7.004 16.384 15.667v240.353c-0.020 8.643-7.332 15.667-16.384 15.667zM865.137 215.388c0.225-1.024 0.389-2.089 0.389-3.133v-43.274c0-8.008-6.758-14.418-15.073-14.418h-13.824c-8.315 0-15.053 6.41-15.053 14.418v43.274c0 1.065 0.143 2.13 0.369 3.133-9.769 6.533-16.2 17.388-16.2 29.676 0 19.988 16.937 36.188 37.806 36.188s37.786-16.2 37.786-36.188c0-12.308-6.41-23.142-16.2-29.676zM914.125 401.142c0-9.933-0.143-22.426-0.778-35.512h-138.834c-0.594 12.554-0.532 24.986-0.532 35.512v13.455c0 39.854 31.375 72.172 70.062 72.172 38.707 0 70.083-32.317 70.083-72.172v-13.455zM665.784 88.904c-4.301 6.144-11.633 21.934-11.633 32.829-0.84 77.353-0.901 50.708 0.389 165.233 0.266 22.999-44.954 54.272-43.213 80.712l5.878 60.17c77.292 48.886 129.7 138.179 129.7 241.5 0 155.341-117.309 281.211-262.001 281.211-144.732 0-262.021-125.87-262.021-281.211 0-120.259 70.615-222.106 169.492-262.369v-46.51c0 0-385.782-98.263-385.782-416.113h883.876c-0.020 0-142.807 28.037-224.686 144.548z" />
<glyph unicode="&#xe92b;" glyph-name="refresh" d="M969.667 903.27l-105.042-104.325c0 0-148.439 164.844-403.702 134.205 0 0-339.886-6.533-423.772-458.097-4.956-26.706 19.251-28.365 19.251-28.365h30.761c0 0 12.882 1.679 16.671 23.429 64.532 370.422 344.187 396.677 378.614 397.558 0 0 182.129 26.849 329.134-127.099l-112.579-114.504c0 0-18.657-34.304 16.486-37.233l274.268-0.389c0 0 21.504-2.929 21.135 24.105l0.020 272.957c0 0-4.669 32.85-41.247 17.756zM982.405 444.191h-30.781c0 0-12.882-1.7-16.671-23.429-64.553-370.422-344.187-396.677-378.614-397.537 0 0-182.108-26.87-329.114 127.078l112.579 114.504c0 0 18.637 34.304-16.486 37.233l-274.289 0.389c0 0-21.504 2.908-21.135-24.105v-272.937c0 0 4.669-32.85 41.226-17.777l105.042 104.305c0 0 148.419-164.823 403.702-134.185 0 0 339.886 6.533 423.772 458.097 4.956 26.685-19.231 28.365-19.231 28.365z" />
<glyph unicode="&#xe92c;" glyph-name="report" d="M280.433 357.499h51.794v-255.201h-51.794v255.201zM384.041 410.296h51.814v-307.999h-51.814v307.999zM694.866 359.096h51.794v-255.201h-51.794v255.201zM591.258 410.296h51.794v-307.999h-51.794v307.999zM487.67 512.717h51.794v-410.419h-51.794v410.419zM695.276 960h-566.579c-28.611 0-51.794-22.917-51.794-51.2v-921.6c0-28.283 23.183-51.2 51.794-51.2h777.032c28.59 0 51.794 22.917 51.794 51.2v665.6c0.020-11.203-257.352 307.2-262.246 307.2zM875.622 14.623l-718.193 0.799v864.748h466.268l0.819-353.403 251.126-1.761v-510.382zM704.43 606.167v216.719l191.529-216.719h-191.529z" />
<glyph unicode="&#xe92d;" glyph-name="save" d="M808.653 949.432h-798.413v-1003.52h1003.52v798.29l-205.107 205.23zM325.14 886.231h273.101v-223.621h-273.101v223.621zM747.418 13.435h-474.501v273.613h474.501v-273.613zM950.252 9.093h-139.346v341.156h-601.498v-341.135h-135.68v877.117h187.924v-286.761h400.077v286.761h113.93l174.592-175.985v-701.153zM441.467 809.39h53.473v-53.166h-53.473v53.166z" />
<glyph unicode="&#xe92e;" glyph-name="search" d="M992.379 79.585l-128.43 155.812-139.141-111.411 131.277-159.273c0 0 34.263-41.554 100.782 11.715 0 0 72.622 58.122 35.512 103.158zM892.539 524.493c0 237.158-195.113 429.445-435.753 429.445s-435.712-192.287-435.712-429.445c0-237.179 195.072-429.466 435.712-429.466s435.753 192.287 435.753 429.466zM462.172 179.241c-193.782 0-350.863 154.808-350.863 345.784s157.082 345.825 350.863 345.825c193.761 0 350.863-154.849 350.863-345.825s-157.082-345.784-350.863-345.784z" />
<glyph unicode="&#xe92f;" glyph-name="sms" d="M512.573 898.56c-282.44 0-511.406-187.023-511.406-417.751 0-95.826 39.506-184.074 105.902-254.566-14.397-32.133-47.288-98.243-94.454-147.927 0 0-17.183-18.657-11.448-43.561 0 0 7.639-41.636 65.352-36.946 0 0 147.968 5.714 258.068 94.31 58.184-18.801 121.61-29.143 187.986-29.143 282.46 0.020 511.427 187.085 511.427 417.833s-228.966 417.751-511.427 417.751zM512.532 136.11c-66.171 0-128.819 11.735-184.975 32.543-9.421-4.321-67.195-39.035-67.174-39.055-81.654-49.992-186.327-73.073-186.327-73.073 30.024 28.918 75.489 105.021 91.402 132.424 0.287-0.266 22.979 49.807 24.965 59.187-70.676 61.010-113.807 142.152-113.807 231.26 0 189.563 195.154 343.245 435.917 343.245s435.937-153.682 435.937-343.245c0.020-189.624-195.174-343.286-435.937-343.286zM731.197 625.93h-438.395c-21.709 0-39.301-17.183-39.301-38.359s17.592-38.359 39.301-38.359h438.395c21.709 0 39.301 17.183 39.301 38.359s-17.592 38.359-39.301 38.359zM530.412 439.849h-237.609c-21.709 0-39.301-17.183-39.301-38.359s17.592-38.359 39.301-38.359h237.609c21.709 0 39.301 17.183 39.301 38.359s-17.592 38.359-39.301 38.359z" />
<glyph unicode="&#xe930;" glyph-name="smsx" d="M512.573 898.54c-282.46 0-511.406-187.023-511.406-417.751 0-95.826 39.506-184.074 105.902-254.566-14.397-32.133-47.288-98.243-94.454-147.927 0 0-17.183-18.657-11.448-43.561 0 0 7.639-41.636 65.352-36.946 0 0 147.968 5.714 258.089 94.31 58.184-18.801 121.61-29.143 187.986-29.143 282.44 0.020 511.406 187.085 511.406 417.833s-228.966 417.751-511.427 417.751zM530.412 363.090h-237.609c-21.709 0-39.301 17.183-39.301 38.359s17.592 38.359 39.301 38.359h237.609c21.709 0 39.301-17.183 39.301-38.359s-17.592-38.359-39.301-38.359zM731.197 549.192h-438.395c-21.709 0-39.301 17.183-39.301 38.359s17.592 38.359 39.301 38.359h438.395c21.709 0 39.301-17.183 39.301-38.359s-17.592-38.359-39.301-38.359z" />
<glyph unicode="&#xe931;" glyph-name="subscribe" d="M825.242 218.481l-54.886 54.682-107.356-106.926-107.336 106.926-54.886-54.682 107.356-106.926-107.356-106.926 54.886-54.702 107.356 106.947 107.336-106.947 54.886 54.702-107.336 106.926zM191.283 953.446c0 0-6.697-0.942-6.697-9.626 0-8.704 0.123-105.841 0.123-105.841s-2.662-7.475 5.837-7.475c0 0 437.903 22.036 526.152-498.012 0 0-1.044-17.94 6.717-17.94 7.782 0 107.438-13.742 107.438-13.742s8.827 0.287 8.827 8.991c0 0 0 600.924-648.397 643.645zM215.327 741.786c0 0-4.096-0.553-4.096-5.878s0.082-104.346 0.082-104.346-1.638-4.628 3.564-4.628c0 0 250.409 30.802 304.415-287.416 0 0-0.635-10.998 4.116-10.998s105.943-8.376 105.943-8.376 5.407 0.164 5.407 5.489c-0.020-0.020-22.651 390.021-419.43 416.154zM297.267 520.929c-53.473 0-96.809-43.213-96.809-96.481 0-53.289 43.336-96.44 96.809-96.44s96.829 43.151 96.829 96.44c0 53.248-43.356 96.481-96.829 96.481zM297.267 378.921c-25.252 0-45.711 20.357-45.711 45.527s20.46 45.568 45.711 45.568c25.231 0 45.711-20.378 45.711-45.568 0-25.17-20.46-45.527-45.711-45.527z" />
<glyph unicode="&#xe932;" glyph-name="subscribex" d="M183.972 949.699c0 0-7.107-0.983-7.107-10.158 0-9.155 0.123-135.086 0.123-135.086s-2.806-7.905 6.205-7.905c0 0 500.183-1.024 533.135-528.732 0 0 0-6.41 8.253-6.41s137.994 0 137.994 0 9.38 0.348 9.38 9.503c-0.020-0.020-0.020 633.692-687.985 678.789zM646.431 267.715c0 0 0 423.465-459.694 453.55 0 0-10.936-0.594-10.936-6.738 0-6.124 0.082-133.079 0.082-133.079s-1.884-5.263 4.116-5.263c0 0 300.769-7.004 313.016-310.497 0 0 0-4.301 5.489-4.301 5.509 0 141.64 0 141.64 0s6.287 0.184 6.287 6.328zM382.218 363.090c0-56.169-45.984-101.704-102.707-101.704s-102.707 45.534-102.707 101.704c0 56.169 45.984 101.704 102.707 101.704s102.707-45.534 102.707-101.704zM862.781 174.367l-69.1 80.323-189.399-159.805-90.624 105.329-81.080-68.424 159.683-185.59z" />
<glyph unicode="&#xe933;" glyph-name="task" d="M840.356 846.029h-122.593v-78.664h32.87c21.258 0 38.502-17.142 38.502-38.298v-665.17c0-21.135-17.244-38.318-38.502-38.318h-482.017c-21.279 0-38.502 17.183-38.502 38.318v665.17c0 21.156 7.107 38.298 28.385 38.298h41.267v78.664h-121.221c-15.176 0-27.484-12.083-27.484-27.013v-845.066c0-14.93 12.308-27.013 27.484-27.013h661.811c15.196 0 27.505 12.083 27.505 27.013v845.046c0 14.95-12.329 27.034-27.505 27.034zM656.568 861.327h-32.317v50.811c0 21.135-18.452 38.298-41.247 38.298h-144.384c-22.774 0-41.226-17.162-41.226-38.298v-50.811h-32.993v-120.115h292.168v120.115zM569.057 884.777v-23.47h-115.773v23.47c0 21.135-1.372 16.2 22.118 16.2h71.537c24.883 0 22.118 4.936 22.118-16.2zM341.258 590.868h336.404v-53.596h-336.404v53.596zM341.258 414.188h336.404v-53.617h-336.404v53.617zM341.258 237.486h336.404v-53.596h-336.404v53.596z" />
<glyph unicode="&#xe934;" glyph-name="tl-1" d="M368.701 660.173c0-90.486-73.354-163.84-163.84-163.84s-163.84 73.354-163.84 163.84c0 90.486 73.354 163.84 163.84 163.84s163.84-73.354 163.84-163.84zM164.905 527.155h79.872v-372.101h-79.872v372.101zM204.861 234.926h494.121v-79.852h-494.121v79.852zM970.383 194.97c0-76.841-62.403-139.244-139.325-139.244-76.943 0-139.325 62.403-139.325 139.244 0 76.923 62.382 139.346 139.325 139.346 76.923-0.020 139.325-62.444 139.325-139.346z" />
<glyph unicode="&#xe935;" glyph-name="tl-2" d="M491.561 756.695c0-90.486-73.354-163.84-163.84-163.84s-163.84 73.354-163.84 163.84c0 90.486 73.354 163.84 163.84 163.84s163.84-73.354 163.84-163.84zM287.539 674.161h80.384v-634.040h-80.384v634.040zM362.906 441.938h321.556v-80.384h-321.556v80.384zM919.368 401.736c0-66.598-53.988-120.586-120.586-120.586s-120.586 53.988-120.586 120.586c0 66.598 53.988 120.586 120.586 120.586s120.586-53.988 120.586-120.586zM362.906 120.484h321.556v-80.364h-321.556v80.364zM919.368 80.261c0-66.598-53.988-120.586-120.586-120.586s-120.586 53.988-120.586 120.586c0 66.598 53.988 120.586 120.586 120.586s120.586-53.988 120.586-120.586z" />
<glyph unicode="&#xe936;" glyph-name="tl-3" d="M519.393 790.241c0-90.486-73.354-163.84-163.84-163.84s-163.84 73.354-163.84 163.84c0 90.486 73.354 163.84 163.84 163.84s163.84-73.354 163.84-163.84zM323.338 638.444h64.389v-630.927h-64.389v630.927zM383.713 575.324h257.577v-63.078h-257.577v63.078zM829.44 543.764c0-52.245-43.242-94.597-96.584-94.597s-96.584 42.353-96.584 94.597c0 52.245 43.242 94.597 96.584 94.597s96.584-42.353 96.584-94.597zM383.713 322.99h257.577v-63.099h-257.577v63.099zM829.44 291.41c0-52.256-43.242-94.618-96.584-94.618s-96.584 42.362-96.584 94.618c0 52.256 43.242 94.618 96.584 94.618s96.584-42.362 96.584-94.618zM383.713 70.595h257.577v-63.078h-257.577v63.078zM829.44 39.035c0-52.245-43.242-94.597-96.584-94.597s-96.584 42.353-96.584 94.597c0 52.245 43.242 94.597 96.584 94.597s96.584-42.353 96.584-94.597z" />
<glyph unicode="&#xe937;" glyph-name="tl-4" d="M520.356 792.044c0-90.486-73.354-163.84-163.84-163.84s-163.84 73.354-163.84 163.84c0 90.486 73.354 163.84 163.84 163.84s163.84-73.354 163.84-163.84zM324.321 640.246h64.389v-630.948h-64.389v630.948zM384.696 577.126h257.577v-63.078h-257.577v63.078zM652.268 937.923h69.407v-272.118h-69.407v272.118zM548.147 835.85h277.668v-68.014h-277.668v68.014zM830.403 545.587c0-52.256-43.242-94.618-96.584-94.618s-96.584 42.362-96.584 94.618c0 52.256 43.242 94.618 96.584 94.618s96.584-42.362 96.584-94.618zM384.696 324.772h257.577v-63.099h-257.577v63.099zM830.403 293.212c0-52.267-43.242-94.638-96.584-94.638s-96.584 42.371-96.584 94.638c0 52.267 43.242 94.638 96.584 94.638s96.584-42.371 96.584-94.638zM384.696 72.397h257.577v-63.099h-257.577v63.099zM830.403 40.837c0-52.245-43.242-94.597-96.584-94.597s-96.584 42.353-96.584 94.597c0 52.245 43.242 94.597 96.584 94.597s96.584-42.353 96.584-94.597z" />
<glyph unicode="&#xe938;" glyph-name="copy1" d="M640 704v256h-448l-192-192v-576h384v-256h640v768h-384zM192 869.49v-101.49h-101.49l101.49 101.49zM64 256v448h192v192h320v-192l-192-192v-256h-320zM576 613.49v-101.49h-101.49l101.49 101.49zM960 0h-512v448h192v192h320v-640z" />
<glyph unicode="&#xe939;" glyph-name="ticket" d="M575.996 640l127.998-127.998-255.994-255.994-127.998 127.998zM1001.526 662.496l-73.516 73.516-32.008-32.008c-16.378-16.38-39.010-26.51-64-26.51-49.988 0-90.514 40.522-90.514 90.51 0 25.002 10.14 47.638 26.534 64.018l31.988 31.986-73.518 73.516c-29.968 29.968-79.008 29.968-108.976 0l-595.040-595.038c-29.966-29.968-29.966-79.010 0-108.976l73.52-73.518 31.962 31.964c16.382 16.406 39.030 26.552 64.044 26.552 49.988 0 90.51-40.524 90.51-90.51 0-25.006-10.14-47.64-26.534-64.022l-31.984-31.986 73.516-73.518c29.966-29.966 79.008-29.966 108.976 0l595.040 595.040c29.964 29.976 29.964 79.016 0 108.984zM448.002 128.004l-256 256 384 384 256-256-384-384z" />
<glyph unicode="&#xe93a;" glyph-name="paste" d="M704 832h-128v64c0 35.2-28.8 64-64 64h-128c-35.204 0-64-28.8-64-64v-64h-128v-128h512v128zM512 832h-128v63.886c0.034 0.038 0.072 0.078 0.114 0.114h127.768c0.042-0.036 0.082-0.076 0.118-0.114v-63.886zM832 640v160c0 17.6-14.4 32-32 32h-64v-64h32v-128h-192l-192-192v-256h-256v576h32v64h-64c-17.602 0-32-14.4-32-32v-640c0-17.6 14.398-32 32-32h288v-192h640v704h-192zM576 549.49v-101.49h-101.49l101.49 101.49zM960 0h-512v384h192v192h320v-576z" />
<glyph unicode="&#xe93b;" glyph-name="updatebp" d="M577.454 645.263c0-114.986-93.214-208.2-208.2-208.2s-208.2 93.214-208.2 208.2c0 114.986 93.214 208.2 208.2 208.2s208.2-93.214 208.2-208.2zM384.963 411.648c-70.431-295.69 59.29-344.904 59.29-344.904h-437.207c-5.55 307.241 346.501 344.904 346.501 344.904zM921.477 273.797h96.891l-149.832-149.811-149.832 149.811h99.041c4.116 174.346-118.518 166.83-198.922 122.47 118.395 109.527 308.081 86.262 302.653-122.47zM493.445 257.741h-96.911l149.852 149.852 149.832-149.852h-99.021c-4.096-174.305 118.518-166.83 198.922-122.47-118.415-109.486-308.101-86.262-302.674 122.47z" />
<glyph unicode="&#xe93c;" glyph-name="uploaddocument" d="M253.092 405.832h144.118v-342.221h121.364v342.221h144.118l-204.78 210.739zM697.385 960h-566.579c-28.611 0-51.814-22.917-51.814-51.2v-921.6c0-28.283 23.183-51.2 51.814-51.2h777.032c28.611 0 51.794 22.917 51.794 51.2v665.6c0.020-11.203-257.352 307.2-262.246 307.2zM877.732 14.623l-718.193 0.799v864.748h466.268l0.799-353.403 251.126-1.761v-510.382zM706.54 606.167v216.719l191.508-216.719h-191.508z" />
<glyph unicode="&#xe93d;" glyph-name="uploaddocumentx" d="M696.463 960h-18.268l257.024-307.2-257.741-0.225 0.717 307.425h-548.311c-28.611 0-51.814-22.938-51.814-51.2v-921.6c0-28.283 23.204-51.2 51.814-51.2h777.032c28.611 0 51.794 22.917 51.794 51.2v665.6c0.020-11.203-257.352 307.2-262.246 307.2zM579.072 405.852v-342.241h-121.344v342.241h-144.118l204.82 210.719 204.78-210.719h-144.138z" />
<glyph unicode="&#xe93e;" glyph-name="url" d="M692.101 386.929c0.082-1.085 0.041-0.143 0 0v0zM596.664 484.844c0.573-0.307 1.004-0.635 1.618-0.942-0.614 0.307-1.044 0.635-1.618 0.942v0zM582.164 500.101v0 0zM760.812 465.428c0.020-0.143 0.061-0.41 0.061-0.553zM744.223 949.494c-84.746 0-153.436-68.69-153.436-153.457 0-153.416 153.436-337.551 153.436-337.551s153.436 184.136 153.436 337.551c0 84.767-68.669 153.457-153.436 153.457zM744.223 702.095c-51.896 0-93.983 42.045-93.983 93.942 0 51.937 42.066 94.003 93.983 94.003s93.983-42.066 93.983-94.003c0-51.896-42.066-93.942-93.983-93.942zM684.769 796.037c0 32.891 26.624 59.453 59.453 59.453 32.85 0 59.474-26.563 59.474-59.453 0-32.809-26.624-59.453-59.474-59.453s-59.453 26.665-59.453 59.453zM899.502 660.214c-7.434-35.021-19.517-68.506-34.98-97.587h17.285c16.425-39.363 26.358-80.712 29.532-123.249h-368.538v123.249h78.868c-7.721 18.883-22.139 39.67-27.484 61.583h-51.384v180.367c10.527-3.072 10.609-2.048 20.951-8.233-0.532 26.214 10.445 45.691 12.063 69.837-20.869 2.888-42.148 4.485-63.816 4.485-255.222 0-462.111-206.848-462.111-462.070s206.889-462.090 462.111-462.090c255.201 0 462.090 206.889 462.090 462.090 0 92.815-27.464 179.2-74.588 251.617zM228.823 691.732c32.42 32.461 69.509 58.634 110.449 78.275-29.798-39.588-54.559-89.211-72.52-145.797h-92.324c15.524 24.31 33.69 46.92 54.395 67.523zM142.234 562.647h108.319c-8.253-38.932-13.455-80.261-15.155-123.249h-122.716c3.215 42.516 13.128 83.886 29.553 123.249zM112.681 377.774h122.696c1.7-42.967 6.902-84.275 15.155-123.249h-108.298c-16.425 39.363-26.317 80.712-29.553 123.249zM228.823 125.46c-20.664 20.623-38.851 43.192-54.395 67.482h92.324c17.961-56.566 42.721-106.209 72.52-145.797-40.94 19.64-78.029 45.855-110.449 78.316zM481.198 192.942v-180.347c-14.070 4.096-27.996 10.936-41.636 20.623-25.6 18.022-50.074 45.793-70.799 80.364-14.316 23.839-26.706 50.422-37.048 79.401l149.484-0.041zM481.198 254.546h-167.567c-9.236 39.424-14.807 80.712-16.65 123.249h184.197v-123.249zM481.198 439.398h-184.197c1.823 42.476 7.414 83.784 16.65 123.249h167.567v-123.249zM481.198 624.251h-149.484c10.342 29 22.733 55.562 37.048 79.442v-0.041c20.726 34.57 45.179 62.321 70.799 80.384 13.64 9.626 27.566 16.507 41.636 20.582v-180.367zM542.802 377.774h184.177c-1.802-42.516-7.393-83.825-16.609-123.249h-167.567v123.249zM584.438 33.137c-13.66-9.605-27.587-16.507-41.636-20.562v180.367h149.443c-10.342-29.020-22.733-55.521-37.069-79.442v0.041c-20.664-34.57-45.158-62.362-70.738-80.404zM795.156 125.46c-32.379-32.461-69.509-58.675-110.408-78.316 29.778 39.608 54.538 89.231 72.499 145.797h92.324c-15.503-24.289-33.71-46.858-54.415-67.482zM881.766 254.546h-108.319c8.274 38.953 13.476 80.282 15.176 123.249h122.696c-3.215-42.557-13.128-83.907-29.553-123.249z" />
<glyph unicode="&#xe93f;" glyph-name="viewdocument" d="M650.547 354.324c-10.465 117.78-113.951 204.472-231.137 193.761-117.187-10.772-203.715-114.954-193.27-232.735 10.445-117.74 113.93-204.513 231.137-193.761 117.187 10.772 203.715 114.954 193.27 232.735zM453.857 186.839c-81.469-7.475-153.416 52.797-160.686 134.676-7.27 81.838 52.9 154.276 134.369 161.731 81.469 7.496 153.416-52.818 160.686-134.656 7.25-81.9-52.9-154.296-134.369-161.751zM710.308 135.7l-69.448 71.619-62.833-61.563 70.963-73.196c0 0 18.514-19.108 48.558 10.342 0 0 32.809 32.072 12.759 52.797zM690.074 960h-566.579c-28.611 0-51.814-22.917-51.814-51.2v-921.6c0-28.283 23.204-51.2 51.814-51.2h777.011c28.611 0 51.814 22.917 51.814 51.2v665.6c0-11.203-257.372 307.2-262.246 307.2zM870.4 14.623l-718.193 0.799v864.748h466.248l0.819-353.403 251.126-1.761v-510.382zM699.208 606.167v216.719l191.508-216.719h-191.508z" />
<glyph unicode="&#xe940;" glyph-name="viewdocumentx" d="M690.074 960h-18.268l257.024-307.2-257.741-0.225 0.696 307.425h-548.291c-28.611 0-51.814-22.938-51.814-51.2v-921.6c0-28.283 23.204-51.2 51.814-51.2h777.032c28.611 0 51.794 22.917 51.794 51.2v665.6c0-11.203-257.372 307.2-262.246 307.2zM267.1 344.822c-10.465 117.78 76.083 221.962 193.27 232.735 117.187 10.711 220.692-75.981 231.137-193.761s-76.083-221.962-193.27-232.735c-117.207-10.752-220.692 76.022-231.137 193.761zM738.509 103.363c-30.044-29.45-48.558-10.342-48.558-10.342l-70.963 73.196 62.833 61.563 69.448-71.619c20.050-20.726-12.759-52.797-12.759-52.797zM629.166 378.081c-7.27 81.838-79.217 142.152-160.686 134.656-81.469-7.455-141.64-79.892-134.369-161.731 7.27-81.879 79.217-142.152 160.686-134.676 81.49 7.455 141.64 79.852 134.369 161.751z" />
<glyph unicode="&#xe941;" glyph-name="faxemail" d="M881.152 504.73h-427.356c-11.244 0-20.357-9.236-20.357-20.685v-139.53c0-11.428 9.114-20.685 20.357-20.685h427.356c11.244 0 20.357 9.257 20.357 20.685v139.53c0 11.428-9.114 20.685-20.357 20.685zM840.069 377.979h-347.32v67.379h347.3v-67.379zM521.175 270.254h-67.236c-11.305 0-20.48-11.366-20.48-25.395v-5.284c0-14.049 9.175-25.416 20.48-25.416h67.236c11.305 0 20.48 11.387 20.48 25.416v5.284c0 14.049-9.175 25.395-20.48 25.395zM701.092 270.254h-67.236c-11.305 0-20.48-11.366-20.48-25.395v-5.284c0-14.049 9.175-25.416 20.48-25.416h67.236c11.305 0 20.48 11.387 20.48 25.416v5.284c0 14.049-9.155 25.395-20.48 25.395zM881.029 270.254h-67.236c-11.305 0-20.48-11.366-20.48-25.395v-5.284c0-14.049 9.175-25.416 20.48-25.416h67.236c11.305 0 20.48 11.387 20.48 25.416v5.284c0 14.049-9.175 25.395-20.48 25.395zM983.040 638.259h-21.361v279.593c0 23.286-18.944 42.148-42.312 42.148h-438.907c-23.368 0-42.291-18.862-42.291-42.148v-279.593h-71.7v78.889c0 24.781-19.722 44.851-44.032 44.851h-155.996c-24.33 0-44.032-20.070-44.032-44.851v-78.889h-81.449c-22.61 0-40.96-19.866-40.96-44.38v-474.44c0-24.515 18.35-44.38 40.96-44.38h81.449v-94.208c0-24.76 19.722-44.851 44.032-44.851h155.976c24.33 0 44.032 20.091 44.032 44.851v94.208h616.591c22.61 0 40.96 19.866 40.96 44.38v474.44c0 24.515-18.35 44.38-40.96 44.38zM122.409 142.438h-33.71c-11.305 0-20.48 9.134-20.48 20.439v388.383c0 11.305 9.175 20.439 20.48 20.439h33.71v-429.261zM299.090 24.719c0-11.305-6.595-20.48-14.746-20.48h-79.831c-8.131 0-14.746 9.175-14.746 20.48v651.94c0 11.325 6.615 20.48 14.746 20.48h79.811c8.131 0 14.746-9.155 14.746-20.48v-651.94zM506.839 876.196c0 9.052 7.004 16.425 15.667 16.425h356.168c8.643 0 15.647-7.352 15.647-16.425v-237.937h-387.482v237.937zM956.539 162.877c0-11.305-9.175-20.439-20.48-20.439h-569.59v429.261h569.61c11.305 0 20.48-9.134 20.48-20.439v-388.383zM824.873 836.239h-246.395c-13.722 0-24.842-12.268-24.842-27.361v-5.673c0-15.094 11.121-27.341 24.842-27.341h246.395c13.722 0 24.842 12.247 24.842 27.341v5.673c0.020 15.094-11.1 27.361-24.842 27.361z" />
<glyph unicode="&#xe942;" glyph-name="action" d="M689.992 960h-566.6c-28.59 0-51.794-22.917-51.794-51.2v-921.6c0-28.283 23.204-51.2 51.794-51.2h777.032c28.59 0 51.794 22.917 51.794 51.2v665.6c0.020-11.203-257.352 307.2-262.226 307.2zM870.318 14.623l-718.193 0.799v864.748h466.248l0.819-353.403 251.126-1.761v-510.382zM699.126 606.167v216.719l191.529-216.719h-191.529zM216.105 591.258l36.209-62.71c10.301 6.021 22.282 9.441 35.041 9.441 38.564 0 69.857-31.355 70.021-70.144h72.417c-0.041 11.899 2.99 23.941 9.339 35 19.292 33.403 62.157 44.81 95.826 25.518l36.209 62.73c-10.342 5.919-19.313 14.561-25.682 25.62v-0.020c-19.333 33.485-7.7 76.37 25.948 95.887l-36.209 62.689c-10.342-6.083-22.364-9.564-35.205-9.564-38.687 0-70.021 31.58-70.021 70.513h-72.417c0.102-12.022-2.888-24.207-9.339-35.348-19.313-33.485-62.28-44.851-95.99-25.457l-36.209-62.689c10.424-5.96 19.436-14.623 25.866-25.743 19.292-33.382 7.721-76.206-25.805-95.724zM393.728 726.61c41.185 0 74.588-33.382 74.588-74.588s-33.382-74.588-74.588-74.588-74.588 33.382-74.588 74.588 33.403 74.588 74.588 74.588zM216.146 345.559h591.565v-62.71h-591.565v62.71zM216.146 181.719h591.565v-62.71h-591.565v62.71z" />
<glyph unicode="&#xe943;" glyph-name="favourite" d="M790.63 281.334c-4.649 0.512-9.175 1.413-13.722 2.232-108.442 19.149-190.935 113.48-190.935 227.451 0 64.184 26.337 122.081 68.547 163.983 0.348 1.393 0.676 2.785 1.004 4.157l-132.116 267.756-162.099-328.438-362.516-52.716 262.287-255.652-61.911-361.021 324.239 170.476 324.239-170.476-56.484 329.216-0.532 3.031zM833.987 706.621c-105.595 0-191.201-85.565-191.201-191.201 0-105.595 85.606-191.222 191.201-191.222 105.615 0 191.201 85.627 191.201 191.222 0.020 105.636-85.586 191.201-191.201 191.201zM796.14 397.148l-113.541 113.521 47.309 47.329 66.232-66.232 141.967 141.988 47.309-47.329-189.276-189.276z" />
<glyph unicode="&#xe944;" glyph-name="cross" d="M623.458 447.921l360.448 360.369c27.333 27.333 28.199 70.577 2.206 96.65l-17.014 17.093c-26.073 25.994-69.238 24.97-96.492-2.206l-360.527-360.527-348.16 348.16c-26.545 26.466-69.081 26.782-95.153 0.788l-17.014-17.093c-26.073-26.073-25.758-68.608 0.709-95.074l348.16-348.16-360.448-360.448c-27.175-27.175-28.199-70.498-2.127-96.492l17.093-17.014c26.073-26.073 69.238-25.049 96.492 2.127l360.369 360.448 348.239-348.239c26.388-26.388 69.002-26.782 95.074-0.709l17.014 17.093c26.073 26.073 25.679 68.608-0.709 95.074l-348.16 348.16z" />
<glyph unicode="&#xe945;" glyph-name="payment" d="M689.029 330.752l250.573 175.636c0 0 42.496 19.108 66.13-20.234 0 0 27.3-36.332-6.083-70.062l-402.084-282.337c0 0-23.224-19.087-56.013-1.741l-288.666 107.581c0 0-32.195 5.304-55.398-7.946l-78.93-53.637-106.189 150.692c0 0-3.482 4.116 2.335 9.4l209.183 148.050c0 0 66.15 45.711 147.661 9.38l268.37-138.097c0 0 41.492-29.573 14.5-74.732 0 0-20.869-44.605-76.001-16.691l-182.497 92.918c0 0-10.424 3.83-15.954-6.144 0 0-6.676-12.329 3.502-17.592l200.172-101.745c0 0 44.114-10.547 70.799 10.281-0.020-0.020 42.312 26.952 34.591 87.020zM647.127 691.241v37.356h41.492v-36.475c46.531-5.243 76.943-27.607 91.218-67.052l-67.645-21.402c-6.902 18.473-21.033 27.73-42.373 27.73-17.859 0-26.808-5.837-26.808-17.49 0-4.219 1.516-7.844 4.547-10.813 3.031-2.99 11.387-6.021 25.068-9.093 31.252-6.922 53.658-13.107 67.215-18.555 13.537-5.448 24.822-14.684 33.833-27.73 8.991-13.025 13.517-28.406 13.517-46.141 0-24.883-8.745-45.732-26.255-62.546s-41.615-26.952-72.294-30.433v-37.806h-41.492v37.806c-52.163 6.267-84.951 33.997-98.345 83.21l75.653 14.193c6.472-22.446 22.835-33.649 49.070-33.649 20.46 0 30.7 5.673 30.7 17.039 0 5.96-2.376 10.629-7.127 13.988-4.751 3.338-13.189 6.267-25.272 8.745-47.555 9.81-77.701 22.262-90.46 37.396s-19.149 32.543-19.149 52.183c0 21.709 6.984 40.94 20.972 57.754 13.926 16.814 35.267 27.423 63.939 31.785z" />
<glyph unicode="&#xe946;" glyph-name="attachdocumentfrom" d="M690.053 960h-566.579c-28.611 0-51.794-22.938-51.794-51.2v-270.397c15.237 25.436 55.767 47.165 80.527 61.297v180.47h466.268l0.799-353.403 251.126-1.782v-510.362l-311.89 0.348c-10.752-13.066-22.63-45.67-35.717-56.566-9.605-8.008-19.497-15.442-29.594-22.405h407.306c28.611 0 51.814 22.917 51.814 51.18v665.62c0-11.203-257.372 307.2-262.267 307.2zM699.187 606.147v216.74l191.529-216.74h-191.529zM71.68 98.468v422.973c0 0 0 131.133 141.251 131.133h51.896c0 0 128.43-2.621 128.43-134.328v-375.992c0 0 6.943-76.943-85.053-76.943h-42.824c0 0-66.15-8.192-66.15 79.77l-2.355 279.020c0 0-3.215 27.525 25.682 27.525h18.596c0 0 26.747 1.065 26.747-24.33v-278.692c0 0-2.007-14.275 24.76-14.275 0 0 31.027-3.154 31.027 19.046v370.176c0 0 1.065 60.805-67.42 60.805h-53.514c0 0-60.457 5.284-60.457-63.447v-412.508c0 0-10.158-102.605 107.54-102.605h86.671c0 0 111.821-6.349 111.821 94.659v282.419c0 0 5.796 24.678 37.356 24.678 0 0 27.382-3.912 30.597-24.166v-312.525c0 0-2.662-134.861-155.709-134.861h-113.971c0.041 0.020-174.92-5.796-174.92 162.468z" />
<glyph unicode="&#xe947;" glyph-name="zoomacross" d="M955.249 76.534l-120.975 148.951-131.072-106.496 123.679-152.269c0 0 32.276-39.69 94.945 11.223-0.020 0.020 68.383 55.603 33.423 98.591zM879.8 533.524c0 226.652-183.808 410.481-410.501 410.481s-410.46-183.828-410.46-410.481c0-226.693 183.767-410.501 410.46-410.501s410.501 183.788 410.501 410.501zM473.866 198.943c-184.812 0-334.623 149.77-334.623 334.582s149.811 334.582 334.623 334.582c184.791 0 334.602-149.77 334.602-334.582s-149.811-334.582-334.602-334.582zM503.050 717.517h-67.461v-150.303h-150.303v-67.441h150.323l-0.020-150.282h67.461v150.282h150.303v67.461l-150.303-0.020z" />
<glyph unicode="&#xe948;" glyph-name="location" d="M512 960c-176.732 0-320-143.268-320-320 0-320 320-704 320-704s320 384 320 704c0 176.732-143.27 320-320 320zM512 444c-108.248 0-196 87.752-196 196s87.752 196 196 196 196-87.752 196-196-87.752-196-196-196zM388 640c0 68.483 55.517 124 124 124s124-55.517 124-124c0-68.483-55.517-124-124-124s-124 55.517-124 124z" />
<glyph unicode="&#xe949;" glyph-name="gear" d="M998.042 549.325h-167.782c-5.683 18.842-13.158 36.915-21.965 54.17l117.862 117.914c9.984 9.882 9.882 26.061 0 35.891l-106.445 106.496c-9.933 9.882-26.010 9.882-35.891 0l-117.35-117.35c-17.562 9.114-35.891 16.845-55.091 22.682v165.478c0.051 14.029-11.315 25.395-25.293 25.395h-150.579c-14.029 0-25.395-11.366-25.395-25.395v-168.243c-18.381-6.144-36.096-13.619-52.838-22.733l-119.245 119.194c-9.933 9.882-25.958 9.882-35.891 0l-106.496-106.445c-9.933-9.882-9.933-25.958 0-35.84l122.163-122.214c0.205-0.205 0.461-0.256 0.614-0.41-7.834-16.026-14.541-32.768-19.712-50.125-0.41 0-0.768 0.256-1.229 0.256h-172.646c-14.029 0-25.344-11.418-25.344-25.344l-0.051-150.579c0-13.978 11.366-25.344 25.395-25.344h172.8c1.843 0 3.482 0.717 5.274 1.075 5.632-16.538 12.442-32.666 20.531-47.974-1.536-0.973-3.226-1.69-4.608-3.072l-122.163-122.112c-9.933-9.933-9.882-26.061 0-35.891l106.445-106.496c9.933-9.882 25.958-9.882 35.84 0l122.214 122.214c1.741 1.792 2.816 3.891 3.942 5.939 15.258-7.782 31.13-14.541 47.616-19.917-0.563-2.099-1.28-4.096-1.28-6.4v-172.698c-0.051-14.080 11.366-25.446 25.344-25.446h150.579c13.978 0 25.344 11.366 25.344 25.344v172.8c0 1.638-0.666 3.123-0.922 4.608 16.947 5.222 33.075 12.032 48.742 19.814 0.768-1.075 1.178-2.304 2.15-3.226l122.112-122.112c9.882-9.933 26.010-9.882 35.891 0l106.496 106.445c9.882 9.882 9.882 25.958 0 35.84l-122.112 122.112c8.602 16.026 15.718 32.922 21.658 50.381h171.264c14.029-0.051 25.395 11.418 25.395 25.344v150.579c0.051 14.029-11.315 25.395-25.344 25.395zM516.966 162.714c-160.614 0-290.867 130.202-290.867 290.867s130.202 290.867 290.867 290.867 290.867-130.202 290.867-290.867-130.253-290.867-290.867-290.867zM510.822 655.053c-112.282 0-203.264-91.034-203.264-203.315s90.982-203.264 203.264-203.264c112.282 0 203.264 90.982 203.264 203.264s-90.982 203.315-203.264 203.315zM510.822 349.542c-56.474 0-102.246 45.824-102.246 102.195 0 56.474 45.773 102.246 102.246 102.246s102.246-45.824 102.246-102.246c0-56.371-45.773-102.195-102.246-102.195z" />
<glyph unicode="&#xe94a;" glyph-name="userfeed" d="M766.259 269.261v153.6c0 28.723-23.808 52.019-53.197 52.019h-162.662v127.232h215.859v306.688h-510.362v-306.688h217.702v-127.232h-164.557c-29.389 0-53.197-23.296-53.197-52.019v-153.6h-102.195v-256.41h306.176v256.41h-127.13v132.301h356.813v-132.301h-125.286v-256.41h306.176v256.41h-104.141zM383.078 85.658h-152.627v101.99h152.627v-101.99zM332.698 674.406v161.587h356.813v-161.587h-356.813zM793.6 85.658h-152.627v101.99h152.627v-101.99z" />
<glyph unicode="&#xe94b;" glyph-name="userprofile" d="M680.090 189.184c-2.56 96.051-121.088 175.206-289.126 188.365v40.038c55.194 30.003 100.198 104.806 100.198 179.763 0 120.269 0 217.754-150.272 217.754s-150.221-97.485-150.221-217.754c0-74.957 45.005-149.76 100.198-179.763v-40.038c-168.038-13.158-287.795-92.314-290.355-188.365h-0.512v-108.288h680.55v108.288h-0.461zM587.571 747.52h436.429v-86.989h-436.429v86.989zM587.571 491.52h436.429v-86.989h-436.429v86.989zM741.171 235.52h282.829v-86.989h-282.829v86.989z" />
<glyph unicode="&#xe94c;" glyph-name="carddialog" d="M76.8 448c0 240.384 194.816 435.2 435.2 435.2s435.2-194.816 435.2-435.2c0-21.299-2.048-41.984-5.018-62.515 24.525-38.963 40.858-77.005 50.022-113.715 20.173 55.040 31.795 114.227 31.795 176.23 0 282.778-229.222 512-512 512s-512-229.222-512-512c0-282.675 229.222-512 512-512 4.915 0 9.728 0.512 14.643 0.768 1.536 34.867 6.554 60.979 22.528 77.875-12.237-1.075-24.576-1.894-37.171-1.894-240.384-0.051-435.2 194.867-435.2 435.251zM769.894 441.498v20.378c0 15.923-17.152 28.826-38.451 28.826h-176.742v176.794c0 21.197-12.902 38.4-28.826 38.4h-27.75c-15.923 0-28.826-17.203-28.826-38.4v-176.794h-176.845c-21.197 0-38.4-12.902-38.4-28.826v-27.802c0-15.923 17.203-28.826 38.4-28.826h176.845v-176.794c0-21.299 12.902-38.4 28.826-38.4h27.75c15.923 0 28.826 17.101 28.826 38.4v176.794h139.776c16.794 13.875 38.4 31.642 75.418 36.25zM844.749 83.507v30.771c42.291 22.989 76.851 80.333 76.851 137.83 0 92.211 0 167.014-115.251 167.014s-115.251-74.803-115.251-167.014c0-57.498 34.509-114.842 76.851-137.83v-30.771c-130.304-10.138-179.251-72.038-179.251-146.79h435.302c0 74.752-48.998 136.653-179.251 146.79z" />
<glyph unicode="&#xe94d;" glyph-name="history" horiz-adv-x="1088" d="M640 896c247.424 0 448-200.576 448-448s-200.576-448-448-448v96c94.024 0 182.418 36.614 248.902 103.098s103.098 154.878 103.098 248.902c0 94.022-36.614 182.418-103.098 248.902s-154.878 103.098-248.902 103.098c-94.022 0-182.418-36.614-248.902-103.098-51.14-51.138-84.582-115.246-97.306-184.902h186.208l-224-256-224 256h164.57c31.060 217.102 217.738 384 443.43 384zM832 512v-128h-256v320h128v-192z" />
<glyph unicode="&#xe94e;" glyph-name="stack" d="M1024 640l-512 256-512-256 512-256 512 256zM512 811.030l342.058-171.030-342.058-171.030-342.058 171.030 342.058 171.030zM921.444 499.278l102.556-51.278-512-256-512 256 102.556 51.278 409.444-204.722zM921.444 307.278l102.556-51.278-512-256-512 256 102.556 51.278 409.444-204.722z" />
<glyph unicode="&#xe94f;" glyph-name="calculator" d="M384 896h-320c-35.2 0-64-28.8-64-64v-320c0-35.2 28.796-64 64-64h320c35.2 0 64 28.8 64 64v320c0 35.2-28.8 64-64 64zM384 640h-320v64h320v-64zM896 896h-320c-35.204 0-64-28.8-64-64v-832c0-35.2 28.796-64 64-64h320c35.2 0 64 28.8 64 64v832c0 35.2-28.8 64-64 64zM896 320h-320v64h320v-64zM896 512h-320v64h320v-64zM384 384h-320c-35.2 0-64-28.8-64-64v-320c0-35.2 28.796-64 64-64h320c35.2 0 64 28.8 64 64v320c0 35.2-28.8 64-64 64zM384 128h-128v-128h-64v128h-128v64h128v128h64v-128h128v-64z" />
<glyph unicode="&#xe950;" glyph-name="clock" d="M658.744 210.744l-210.744 210.746v282.51h128v-229.49l173.256-173.254zM512 960c-282.77 0-512-229.23-512-512s229.23-512 512-512 512 229.23 512 512-229.23 512-512 512zM512 64c-212.078 0-384 171.922-384 384s171.922 384 384 384c212.078 0 384-171.922 384-384s-171.922-384-384-384z" />
<glyph unicode="&#xe951;" glyph-name="address-book" d="M192 960v-1024h768v1024h-768zM576 703.67c70.51 0 127.67-57.16 127.67-127.67s-57.16-127.67-127.67-127.67-127.67 57.16-127.67 127.67 57.16 127.67 127.67 127.67v0zM768 192h-384v64c0 70.696 57.306 128 128 128v0h128c70.696 0 128-57.304 128-128v-64zM64 896h96v-192h-96v192zM64 640h96v-192h-96v192zM64 384h96v-192h-96v192zM64 128h96v-192h-96v192z" />
<glyph unicode="&#xe952;" glyph-name="contacts" d="M64 896h96v-192h-96v192zM64 640h96v-192h-96v192zM64 384h96v-192h-96v192zM64 128h96v-192h-96v192zM707.785 536.925l-268.413-268.413-33.054 33.054 268.413 268.413 33.054-33.054zM201.83 960v-1024h768v1024h-768zM451.635 179.61l-172.544-38.298 38.349 172.493 354.662 354.714 134.195-134.195-354.662-354.714zM873.421 601.395l-38.349-38.298-134.246 134.195 38.349 38.298c16.026 11.981 35.942 19.2 57.549 19.2 52.941 0 95.846-42.906 95.846-95.898 0-21.606-7.117-41.472-19.149-57.498z" />
<glyph unicode="&#xe953;" glyph-name="document" d="M801.024 343.91h-57.446v-172.288h-82.483l111.155-145.715 111.258 145.715h-82.483zM528.128 0h-448.102c-8.653 0-16.026 7.322-16.026 16.026v863.949c0 8.704 7.322 16.026 16.026 16.026h496.026v-224c0-17.664 14.336-32 32-32h224v-179.712c21.043-4.557 42.445-9.523 64-14.694v194.406c0 14.336-4.352 39.424-42.189 90.88-22.272 30.31-53.197 65.69-87.194 99.686s-69.376 64.973-99.738 87.194c-51.61 37.837-76.595 42.24-90.931 42.24h-495.974c-44.134 0-80.026-35.891-80.026-80.026v-864c0-44.083 35.891-79.974 80.026-79.974h509.133c-22.938 18.842-43.162 40.55-61.030 64zM640 857.958c22.989-17.818 50.688-41.882 81.357-72.55 30.669-30.72 54.784-58.47 72.55-81.408h-153.907v153.958zM169.626 197.683c-17.664 0-32-14.336-32-32s14.336-32 32-32h323.635c-6.246 21.197-10.496 42.598-12.544 64h-311.091zM169.626 325.683c-17.664 0-32-14.336-32-32s14.336-32 32-32h311.654c2.611 21.862 7.782 43.264 15.77 64h-327.424zM601.395 453.683h-431.77c-17.664 0-32-14.336-32-32s14.336-32 32-32h363.213c17.818 23.347 40.806 44.749 68.557 64zM160.563 759.296h321.075c12.646 0 22.938 14.336 22.938 32s-10.291 32-22.938 32h-321.075c-12.646 0-22.938-14.336-22.938-32s10.291-32 22.938-32zM160.563 616.909h321.075c12.646 0 22.938 14.336 22.938 32s-10.291 32-22.938 32h-321.075c-12.646 0-22.938-14.336-22.938-32s10.291-32 22.938-32zM772.301 436.582c-139.008 0-251.699-112.691-251.699-251.699s112.691-251.699 251.699-251.699 251.699 112.691 251.699 251.699-112.691 251.699-251.699 251.699zM772.301-16.435c-111.206 0-201.37 90.163-201.37 201.37s90.163 201.37 201.37 201.37 201.37-90.163 201.37-201.37-90.163-201.37-201.37-201.37z" />
<glyph unicode="&#xe954;" glyph-name="kpi" d="M513.331 860.518c-282.778 0-512-229.274-512-512 0-94.464 26.010-182.579 70.605-258.56 41.267 0 82.586 0 123.853 0-57.498 70.502-92.058 160.512-92.058 258.56 0 226.202 183.398 409.6 409.6 409.6s409.6-183.398 409.6-409.6c0-98.048-34.56-188.058-92.058-258.56 41.267 0 82.586 0 123.853 0 44.595 75.93 70.605 164.096 70.605 258.56 0 282.726-229.222 512-512 512zM575.283 298.394l-31.437 191.539h-60.826l-28.211-188.979c-28.314-18.893-47.002-51.149-47.002-87.808 0-58.368 47.258-105.626 105.626-105.626 58.317 0 105.626 47.258 105.626 105.626-0.051 35.174-17.408 66.048-43.776 85.248zM487.834 696.371h51.2v-122.419h-51.2v122.419zM608.126 684.181l48.113-17.505-41.838-114.989-48.113 17.505 41.838 114.989zM638.287 537.811l78.658 93.734 39.219-32.911-78.658-93.734-39.219 32.911zM695.292 483.717l106.015 61.21 25.6-44.339-106.015-61.21-25.6 44.339zM730.331 413.395l120.558 21.252 8.888-50.422-120.558-21.252-8.888 50.422zM418.729 684.155l41.874-114.977-48.108-17.521-41.874 114.977 48.108 17.521zM349.297 504.923l-78.716 93.761 39.214 32.922 78.716-93.761-39.214-32.922zM305.94 439.353l-105.971 61.196 25.605 44.339 105.971-61.196-25.605-44.339zM287.61 362.953l-120.508 21.243 8.897 50.472 120.508-21.243-8.897-50.472z" />
<glyph unicode="&#xe955;" glyph-name="mytasks" d="M742.963 8.755h-662.272v878.387h662.272l-1.126-18.893c24.576 9.472 73.83 30.31 77.978 32.614v33.485c0 14.131-11.469 25.6-25.6 25.6h-768.41c-14.131 0-25.6-11.469-25.6-25.6v-972.749c0-14.131 11.469-25.651 25.6-25.651h768.41c14.131 0 25.6 11.52 25.6 25.651v564.019c-32.614 16.077-52.838 36.403-76.851 50.074v-566.938zM155.392 702.925h153.651v-153.6h-153.651v153.6zM617.472 651.674h-259.277v-50.176h310.528zM153.344 489.574h153.651v-153.6h-153.651v153.6zM356.147 438.323h310.528v-50.125h-310.528v50.125zM153.344 284.774h153.651v-153.6h-153.651v153.6zM356.147 233.523h310.528v-50.125h-310.528v50.125zM812.544 756.224v101.376l-178.995-136.602 178.995-136.704v101.427h211.661v70.502z" />
<glyph unicode="&#xe956;" glyph-name="taskassigned" d="M742.963 887.142h-662.272v-878.387h662.272l-1.126 18.893c24.576-9.472 73.83-30.31 77.978-32.614v-33.485c0-14.131-11.469-25.6-25.6-25.6h-768.41c-14.131 0-25.6 11.469-25.6 25.6v972.749c0 14.131 11.469 25.651 25.6 25.651h768.41c14.131 0 25.6-11.52 25.6-25.651v-615.219c-44.134 0-44.493 1.126-76.851 1.126v566.938zM155.392 346.573h153.651v-153.6h-153.651v153.6zM358.195 294.4h310.477v-50.125h-310.477v50.125zM153.344 559.923h153.651v-153.6h-153.651v153.6zM356.147 507.75h310.528v-50.125h-310.528v50.125zM153.344 764.723h153.651v-153.6h-153.651v153.6zM356.147 712.55h310.528v-50.125h-310.528v50.125zM845.21 122.522v-101.427l178.995 136.602-178.995 136.704v-101.376h-211.661v-70.502z" />
<glyph unicode="&#xe957;" glyph-name="shortcut" d="M545.843 632.525c-380.826 9.728-423.27-330.65-223.437-542.925-80.947 144.23-94.618 364.186 223.437 356.915v-177.766l273.357 268.8-273.357 268.851v-173.875zM972.8 960h-921.6c-28.262 0-51.2-22.938-51.2-51.2v-921.6c0-28.262 22.938-51.2 51.2-51.2h921.6c28.262 0 51.2 22.938 51.2 51.2v921.6c0 28.262-22.938 51.2-51.2 51.2zM958.464 25.6c0-14.131-11.469-25.6-25.6-25.6h-843.264c-14.131 0-25.6 11.469-25.6 25.6v844.8c0 14.131 11.469 25.6 25.6 25.6h843.264c14.131 0 25.6-11.469 25.6-25.6v-844.8z" />
<glyph unicode="&#xe958;" glyph-name="customize" d="M1013.888 112.384l-267.488 267.424c-14.432 14.592-38.272 14.592-52.832 0l-17.632-17.6-337.952 337.952 235.264 235.264h-249.216l-110.688-110.656-10.912 10.976h-52.896l0.032-52.864 10.944-10.944-160.512-160.512 124.672-124.672 160.416 160.544 338.016-337.92-17.6-17.664c-14.528-14.464-14.528-38.304-0.128-52.832l267.552-267.456c14.528-14.528 38.272-14.496 52.832 0.032l88.128 88.128c14.528 14.496 14.528 38.272 0 52.8zM1024.768 692.128c0.096 23.040-3.264 45.312-9.568 66.24l-132.128-131.328c-19.712-19.648-52-19.584-71.584 0.224l-80.16 80.576c-19.648 19.68-19.584 52 0.192 71.584l132.16 131.392c-20.96 6.4-43.168 9.888-66.208 9.952-125.984 0.384-228.288-101.344-228.672-227.328-0.096-38.688 9.44-75.072 26.336-107.008l-499.968-502.848c-21.184-18.048-22.56-48.96-2.944-68.704l25.504-25.504c19.712-19.776 50.624-18.656 68.864 2.464l502.688 499.872c31.872-17.056 68.192-26.816 106.912-26.88 125.888-0.352 228.288 101.376 228.576 227.296zM136.832 32.768c-11.968 11.968-11.968 31.296 0.032 43.264 11.904 11.808 31.232 11.808 43.104-0.064 11.904-11.904 11.904-31.232-0.032-43.2-11.872-11.872-31.2-11.872-43.104 0z" />
<glyph unicode="&#xe959;" glyph-name="pdf-all" d="M714.368 288.48c-0.672 4.704-4.416 10.528-8.48 14.528l-0.064-0.032c-10.016 9.888-31.328 15.456-62.176 17.088 0-10.368 0-20.832 0-31.296 11.424-0.192 18.784-1.152 34.016-5.056 20.384-5.152 20.64-15.68 17.12-17.952v0.032c-3.456-2.144-13.504-3.424-19.904-3.424-9.216 0-19.648 2.144-31.264 5.6 0-11.456 0-22.56 0-33.184 10.304-1.76 20.096-2.976 28.64-2.976 6.88 0 12.768 0.672 17.6 1.952 7.424 1.984 13.664 6.176 17.472 11.936 7.552 11.296 9.056 26.848 7.040 42.784zM769.568 605.888c-18.72 25.472-44.672 55.2-73.248 83.808-28.608 28.608-58.368 54.592-83.84 73.28-43.328 31.776-64.352 35.456-76.416 35.456h-416.864c-37.056 0-67.264-30.144-67.264-67.232v-726.176c0-37.056 30.144-67.264 67.264-67.264h618.592c37.024 0 67.264 30.176 67.264 67.264v524.48c-0.032 12-3.68 33.056-35.488 76.384zM589.856 712.672c19.328-14.976 42.624-35.232 68.416-60.992 25.792-25.824 46.048-49.088 60.992-68.416h-129.408v129.408zM751.264 4.992c0-7.328-6.144-13.472-13.472-13.472h-618.592c-7.328 0-13.472 6.112-13.472 13.472v726.208c0 7.296 6.144 13.44 13.472 13.44 0 0 416.832 0 416.864 0v-188.256c0-14.848 12.064-26.88 26.912-26.88h188.288v-524.512zM943.008 765.728c-18.72 25.472-44.672 55.232-73.248 83.808-28.608 28.608-58.368 54.592-83.84 73.28-43.328 31.776-64.352 35.456-76.416 35.456h-416.864c-37.056 0-67.264-30.144-67.264-67.232v-28.64c17.952 0 35.84 0 53.792 0v28.64c0 7.296 6.176 13.44 13.472 13.44 0 0 416.832 0 416.864 0v-188.256c0-14.848 12.064-26.88 26.912-26.88h188.288v-524.48c0-7.328-6.112-13.44-13.472-13.44l-42.176-0.096c0-17.952 0-35.872 0-53.824l42.176 0.096c37.056 0 67.264 30.208 67.264 67.264v524.48c-0.032 12.032-3.68 33.088-35.488 76.384zM763.296 743.104v129.408c19.328-14.944 42.624-35.2 68.448-60.992 25.76-25.792 46.016-49.088 60.96-68.384h-129.408zM553.6 264.096c0 21.632 2.944 31.2 1.472 51.968-5.216-0.64-10.4-1.184-15.744-1.952-14.88 8.608-30.144 17.888-42.176 29.12-32.32 30.176-59.328 72.064-76.128 118.176 1.12 4.256 2.016 8.064 2.912 11.904 0 0 18.208 103.456 13.408 138.432-0.672 4.768-1.056 6.176-2.4 9.92l-1.536 4.064c-4.96 11.424-14.656 23.52-29.888 22.848l-9.216 0.288c-16.96 0-30.816-8.672-34.4-21.632-11.072-40.736 0.32-101.632 20.928-180.512l-5.248-12.832c-14.784-36.032-33.312-72.352-49.696-104.384l-2.080-4.16c-17.184-33.632-32.8-62.176-46.976-86.4l-14.592-7.712c-1.056-0.608-26.048-13.856-31.936-17.344-49.824-29.76-82.816-63.52-88.32-90.272-1.696-8.576-0.416-19.488 8.48-24.608l14.112-7.104c6.112-3.072 12.576-4.64 19.2-4.64 35.488 0 76.672 44.192 133.344 143.2 65.536 21.344 140.128 39.072 205.472 48.832 9.888-5.568 20.448-10.4 31.008-15.2zM176.032 114.208c6.496 17.664 32.096 52.672 69.92 83.68 2.4 1.952 8.256 7.392 13.664 12.544-39.616-63.168-66.144-88.32-83.584-96.224zM400.288 630.592c11.392 0 17.888-28.768 18.432-55.68s-5.792-45.856-13.632-59.84c-6.464 20.704-9.632 53.376-9.632 74.72 0 0-0.416 40.8 4.832 40.8zM333.408 262.592v0c7.904 14.208 16.192 29.216 24.608 45.088 20.672 38.944 33.632 69.408 43.328 94.464 19.296-35.072 43.296-64.832 71.456-88.704 3.488-3.008 7.232-5.952 11.136-8.928-57.344-11.36-106.912-25.152-150.528-41.92zM598.272 25.376l95.072 95.072h-68.192v262.208h-53.824v-262.208h-68.16z" />
<glyph unicode="&#xe95a;" glyph-name="save-pdf" d="M852.128 353.248c-0.736 5.632-5.216 12.576-10.048 17.312l-0.064-0.032c-11.904 11.744-37.248 18.368-74.016 20.352 0-12.384 0-24.768 0-37.216 13.664-0.256 22.336-1.376 40.512-6.016 24.256-6.176 24.576-18.72 20.384-21.344v0.032c-4.128-2.592-16.064-4.096-23.68-4.096-10.976 0-23.328 2.528-37.184 6.624 0-13.632 0-26.816 0-39.456 12.288-2.080 23.936-3.52 34.048-3.52 8.192 0 15.232 0.736 20.928 2.272 8.832 2.336 16.256 7.328 20.8 14.208 8.928 13.44 10.72 31.936 8.32 50.88zM917.824 730.912c-22.24 30.304-53.184 65.696-87.2 99.712s-69.408 64.96-99.712 87.168c-51.584 37.824-76.576 42.208-90.912 42.208h-496c-44.096 0-80-35.872-80-80v-864c0-44.096 35.872-80 80-80h736c44.096 0 80 35.904 80 80v624c0 14.336-4.384 39.36-42.176 90.912zM704 857.952c22.976-17.792 50.688-41.888 81.376-72.576s54.784-58.4 72.576-81.376h-153.952v153.952zM896 16c0-8.672-7.328-16-16-16h-736c-8.672 0-16 7.328-16 16v864c0 8.672 7.328 16 16 16 0 0 495.968 0 496 0v-224c0-17.664 14.336-32 32-32h224v-624zM660.864 324.288c0 25.728 3.424 37.088 1.76 61.856-6.208-0.736-12.416-1.44-18.752-2.336-17.696 10.208-35.904 21.28-50.176 34.656-38.432 35.904-70.56 85.76-90.56 140.64 1.312 5.088 2.368 9.632 3.424 14.176 0 0 21.664 123.072 15.936 164.672-0.8 5.696-1.28 7.36-2.816 11.808l-1.856 4.8c-5.92 13.6-17.44 28-35.552 27.2l-10.944 0.352c-20.192 0-36.672-10.336-40.96-25.76-13.152-48.448 0.416-120.896 24.96-214.752l-6.272-15.296c-17.6-42.88-39.616-86.048-59.104-124.192l-2.496-4.928c-20.48-40.032-39.072-74.016-55.872-102.816l-17.376-9.184c-1.248-0.672-31.008-16.448-38.016-20.64-59.264-35.392-98.528-75.552-105.024-107.424-2.048-10.176-0.544-23.2 10.016-29.216l16.8-8.48c7.296-3.616 14.944-5.504 22.816-5.504 42.24 0 91.232 52.608 158.688 170.368 77.952 25.376 166.688 46.464 244.448 58.080 11.776-6.624 24.384-12.384 36.928-18.080zM211.616 145.952c7.744 21.056 38.176 62.688 83.232 99.552 2.816 2.304 9.792 8.832 16.224 14.944-47.136-75.168-78.688-105.088-99.456-114.496zM478.432 760.32c13.568 0 21.28-34.208 21.952-66.24 0.64-32-6.88-54.56-16.192-71.2-7.68 24.64-11.424 63.488-11.424 88.896-0.032 0-0.576 48.544 5.664 48.544zM398.88 322.496v0c9.408 16.928 19.264 34.752 29.312 53.664 24.512 46.304 39.968 82.56 51.488 112.352 22.912-41.696 51.424-77.12 84.992-105.504 4.192-3.552 8.608-7.104 13.248-10.656-68.16-13.504-127.136-29.92-179.040-49.856zM714.016 40.224l113.12 113.12h-81.12v312h-64v-312h-81.152z" />
<glyph unicode="&#xe95b;" glyph-name="shiftleft" d="M655.36 877.957l-71.762 71.803-501.678-501.76 501.678-501.76 71.762 71.803-429.896 429.957zM936.1 877.957l-71.762 71.803-501.678-501.76 501.678-501.76 71.762 71.803-429.875 429.957z" />
<glyph unicode="&#xe95c;" glyph-name="shiftright" d="M362.66 877.957l71.782 71.803 501.658-501.76-501.658-501.76-71.782 71.803 429.896 429.957zM81.92 877.957l71.762 71.803 501.678-501.76-501.678-501.76-71.762 71.803 429.896 429.957z" />
<glyph unicode="&#xe95e;" glyph-name="archive" d="M0 816v-736h1024v736h-1024zM960 144h-896v608h896v-608zM384 576h256v-256h-256v256z" />
<glyph unicode="&#xe95f;" glyph-name="format" d="M64 896h512v-64c23.456 0 43.328 0 64 0v128h-640v-832h128c0 20.384 0 43.616 0 64h-64v704zM704 896c0-21.344 0-42.656 0-64h256v-704h-64c0-23.296 0-43.136 0-64h128v832h-320zM192-64h640v832h-640v-832zM256 704h512v-704h-512v704zM672 640h-320c-17.696 0-32-14.336-32-32s14.304-32 32-32h320c17.696 0 32 14.336 32 32s-14.304 32-32 32zM672 512h-320c-17.696 0-32-14.336-32-32s14.304-32 32-32h320c17.696 0 32 14.336 32 32s-14.304 32-32 32zM672 384h-320c-17.696 0-32-14.304-32-32s14.304-32 32-32h320c17.696 0 32 14.304 32 32s-14.304 32-32 32zM672 256h-320c-17.696 0-32-14.304-32-32s14.304-32 32-32h320c17.696 0 32 14.304 32 32s-14.304 32-32 32zM672 128h-320c-17.696 0-32-14.304-32-32s14.304-32 32-32h320c17.696 0 32 14.304 32 32s-14.304 32-32 32z" />
<glyph unicode="&#xe960;" glyph-name="save-csv" d="M387.488 333.248l131.968 131.936h-94.592v363.872h-74.688v-363.872h-94.592zM917.376 730.624c-22.24 30.272-53.12 65.632-87.072 99.616-34.016 34.016-69.376 64.864-99.648 87.104-51.488 37.76-76.48 42.144-90.816 42.144h-495.456c-44.064 0-79.936-35.84-79.936-79.904v-863.104c0-44.064 35.84-79.936 79.936-79.936h735.232c44.032 0 79.936 35.872 79.936 79.936v623.328c-0.032 14.336-4.352 39.36-42.176 90.816zM703.776 857.536c22.944-17.792 50.656-41.856 81.28-72.512 30.656-30.688 54.752-58.336 72.512-81.312h-153.792v153.824zM895.584 16.48c0-8.736-7.328-16.032-16-16.032h-735.2c-8.672 0-16.032 7.296-16.032 16.032v863.104c0 8.672 7.328 15.968 16.032 15.968 0 0 495.424 0 495.456 0v-223.776c0-17.632 14.336-31.968 31.968-31.968h223.776v-623.328zM393.76 209.152h-49.856c-3.136 11.488-8.224 21.248-15.328 29.248-7.072 7.936-19.52 11.936-37.408 11.936-15.328 0-29.024-6.336-41.056-19.040-12-12.704-18.016-34.144-18.016-64.32 0-14.976 2.080-28.64 6.208-40.896 4.16-12.32 10.624-22.112 19.424-29.44 8.832-7.328 20-11.008 33.44-11.008 9.216 0 17.44 1.728 24.672 5.12 7.2 3.392 13.184 8.512 18.016 15.296 4.768 6.784 8.128 14.944 10.016 24.448h49.856c-3.392-17.6-9.536-32.992-18.272-46.176-8.768-13.184-20.352-23.456-34.688-30.784-14.304-7.328-31.2-10.976-50.592-10.976-21.312 0-40.224 4.736-56.672 14.304-16.448 9.536-29.248 23.712-38.432 42.592-9.152 18.88-13.792 41.6-13.792 68.192 0 26.88 4.768 49.824 14.304 68.768s22.592 33.152 39.232 42.72c16.608 9.536 35.264 14.272 56 14.272 16.896 0 31.84-2.592 44.768-7.776 12.928-5.152 23.488-11.936 31.776-20.352 8.256-8.384 14.528-17.472 18.816-27.232 4.32-9.664 6.848-19.36 7.584-28.896zM419.264 122.176h47.776c0.224-9.664 3.936-18.464 11.104-26.464 7.2-8 20.256-12 39.264-12 33.184 0 49.792 10.272 49.792 30.848 0 8.448-3.36 14.592-10.208 18.4-6.784 3.84-17.76 7.52-32.896 11.2l-25.504 5.92c-17.12 4-30.624 8-40.512 12-9.92 4-18.208 10.592-24.96 19.808-6.816 9.184-10.176 21.984-10.176 38.272 0 11.008 2.56 22.016 7.584 33.024s14.4 20.512 28.032 28.416c13.632 7.872 32.256 11.84 55.904 11.84 17.28 0 32-2.432 44.096-7.36 12.16-4.896 21.792-11.328 28.864-19.2s12.16-16.256 15.232-25.024c3.040-8.768 4.672-17.28 4.736-25.44h-47.872c-0.64 5.536-2.080 10.848-4.384 15.904-2.24 5.12-6.912 9.728-13.952 13.824-7.072 4.128-17.184 6.176-30.4 6.176-11.136 0-20.768-2.336-29.024-6.912-8.288-4.576-12.416-11.808-12.416-21.632 0-8.224 2.336-13.952 6.976-17.248 4.672-3.328 10.784-5.856 18.272-7.712l58.016-14.208c19.68-4.832 34.976-11.808 45.984-21.024 10.976-9.216 16.448-23.552 16.448-43.008 0-16.672-3.584-30.336-10.784-40.96-7.2-10.656-15.904-18.56-26.24-23.808-10.304-5.248-20.48-8.736-30.496-10.528s-18.784-2.688-26.368-2.688c-20.352 0-37.408 2.592-51.072 7.744-13.696 5.152-24.192 11.744-31.392 19.872-7.296 8.096-12.352 16.64-15.136 25.6-2.912 8.928-4.288 17.76-4.288 26.368zM739.104 106.656l51.776 180.48h51.744l-80.928-238.24h-47.456l-80.32 238.24h53.376l51.136-180.48h0.672z" />
<glyph unicode="&#xe965;" glyph-name="csv-all" d="M315.36 275.936l113.152 113.12h-81.152v312h-64v-312h-81.12zM769.568 605.888c-18.72 25.472-44.672 55.2-73.248 83.808-28.608 28.608-58.368 54.592-83.84 73.28-43.328 31.776-64.352 35.456-76.416 35.456h-416.864c-37.056 0-67.264-30.144-67.264-67.232v-726.176c0-37.056 30.144-67.264 67.264-67.264h618.592c37.024 0 67.264 30.176 67.264 67.264v524.48c-0.032 12-3.68 33.056-35.488 76.384zM589.856 712.672c19.328-14.976 42.624-35.232 68.416-60.992 25.792-25.824 46.048-49.088 60.992-68.416h-129.408v129.408zM751.264 4.992c0-7.328-6.144-13.472-13.472-13.472h-618.592c-7.328 0-13.472 6.112-13.472 13.472v726.208c0 7.296 6.144 13.44 13.472 13.44 0 0 416.832 0 416.864 0v-188.256c0-14.848 12.064-26.88 26.912-26.88h188.288v-524.512zM943.008 765.728c-18.72 25.472-44.672 55.232-73.248 83.808-28.608 28.608-58.368 54.592-83.84 73.28-43.328 31.776-64.352 35.456-76.416 35.456h-416.864c-37.056 0-67.264-30.144-67.264-67.232v-28.64c17.952 0 35.84 0 53.792 0v28.64c0 7.296 6.176 13.44 13.472 13.44 0 0 416.832 0 416.864 0v-188.256c0-14.848 12.064-26.88 26.912-26.88h188.288v-524.48c0-7.328-6.112-13.44-13.472-13.44l-42.176-0.096c0-17.952 0-35.872 0-53.824l42.176 0.096c37.056 0 67.264 30.208 67.264 67.264v524.48c-0.032 12.032-3.68 33.088-35.488 76.384zM763.296 743.104v129.408c19.328-14.944 42.624-35.2 68.448-60.992 25.76-25.792 46.016-49.088 60.96-68.384h-129.408zM328.512 185.856h-42.88c-2.688 9.92-7.072 18.272-13.152 25.152-6.080 6.848-16.8 10.272-32.192 10.272-13.184 0-24.96-5.472-35.328-16.384-10.304-10.944-15.488-29.376-15.488-55.328 0-12.864 1.792-24.64 5.344-35.2 3.552-10.592 9.12-19.040 16.704-25.312 7.584-6.304 17.184-9.472 28.736-9.472 7.936 0 15.008 1.472 21.216 4.416 6.176 2.944 11.328 7.328 15.488 13.152 4.128 5.824 7.008 12.832 8.64 20.992h42.88c-2.944-15.136-8.192-28.384-15.712-39.712-7.552-11.328-17.504-20.192-29.856-26.464-12.32-6.272-26.816-9.44-43.488-9.44-18.336 0-34.592 4.096-48.736 12.32-14.112 8.192-25.152 20.416-33.056 36.64-7.872 16.256-11.84 35.776-11.84 58.656 0 23.136 4.128 42.848 12.32 59.168 8.192 16.288 19.424 28.544 33.728 36.736 14.272 8.192 30.336 12.288 48.192 12.288 14.528 0 27.36-2.208 38.496-6.688 11.136-4.448 20.224-10.272 27.328-17.504s12.512-15.040 16.192-23.392 5.824-16.704 6.464-24.896zM350.432 111.072h41.088c0.192-8.32 3.36-15.904 9.536-22.784s17.44-10.304 33.792-10.304c28.544 0 42.816 8.832 42.816 26.528 0 7.264-2.912 12.544-8.768 15.808-5.856 3.328-15.296 6.496-28.32 9.632l-21.952 5.088c-14.72 3.424-26.336 6.88-34.848 10.304s-15.648 9.12-21.472 17.024c-5.856 7.904-8.736 18.912-8.736 32.928 0 9.472 2.176 18.944 6.528 28.416 4.32 9.472 12.384 17.632 24.096 24.448 11.712 6.784 27.744 10.176 48.096 10.176 14.88 0 27.52-2.080 37.952-6.336 10.432-4.224 18.72-9.728 24.8-16.512 6.112-6.784 10.464-13.984 13.088-21.536s4-14.88 4.096-21.888h-41.184c-0.544 4.736-1.792 9.312-3.744 13.696-1.952 4.416-5.952 8.352-12 11.872s-14.784 5.312-26.144 5.312c-9.568 0-17.888-2.016-24.96-5.952-7.136-3.936-10.656-10.144-10.656-18.592 0-7.072 2.016-12 6.016-14.848 4.032-2.848 9.248-5.024 15.712-6.624l49.888-12.256c16.928-4.16 30.080-10.144 39.52-18.080 9.44-7.904 14.144-20.256 14.144-36.96 0-14.336-3.104-26.080-9.28-35.264s-13.696-15.968-22.56-20.48c-8.864-4.544-17.632-7.52-26.24-9.056s-16.16-2.304-22.688-2.304c-17.504 0-32.16 2.208-43.904 6.656-11.776 4.448-20.8 10.112-27.040 17.088s-10.592 14.304-12.992 22.016c-2.496 7.776-3.68 15.328-3.68 22.784zM625.536 97.696l44.544 155.232h44.544l-69.664-204.928h-40.8l-69.056 204.896h45.92l43.968-155.232h0.544z" />
<glyph unicode="&#xe967;" glyph-name="undo2" d="M761.862-64c113.726 206.032 132.888 520.306-313.862 509.824v-253.824l-384 384 384 384v-248.372c534.962 13.942 594.57-472.214 313.862-775.628z" />
<glyph unicode="&#xe971;" glyph-name="user" d="M576 253.388v52.78c70.498 39.728 128 138.772 128 237.832 0 159.058 0 288-192 288s-192-128.942-192-288c0-99.060 57.502-198.104 128-237.832v-52.78c-217.102-17.748-384-124.42-384-253.388h896c0 128.968-166.898 235.64-384 253.388z" />
<glyph unicode="&#xe972;" glyph-name="users" horiz-adv-x="1152" d="M768 189.388v52.78c70.498 39.728 128 138.772 128 237.832 0 159.058 0 288-192 288s-192-128.942-192-288c0-99.060 57.502-198.104 128-237.832v-52.78c-217.102-17.748-384-124.42-384-253.388h896c0 128.968-166.898 235.64-384 253.388zM327.196 164.672c55.31 36.15 124.080 63.636 199.788 80.414-15.054 17.784-28.708 37.622-40.492 59.020-30.414 55.234-46.492 116.058-46.492 175.894 0 86.042 0 167.31 30.6 233.762 29.706 64.504 83.128 104.496 159.222 119.488-16.914 76.48-61.94 126.75-181.822 126.75-192 0-192-128.942-192-288 0-99.060 57.502-198.104 128-237.832v-52.78c-217.102-17.748-384-124.42-384-253.388h279.006c14.518 12.91 30.596 25.172 48.19 36.672z" />
<glyph unicode="&#xe973;" glyph-name="addbp" d="M384 224c0 151.234 95.874 280.486 230.032 330.2 16.28 36.538 25.968 77.164 25.968 117.8 0 159.058 0 288-192 288s-192-128.942-192-288c0-99.060 57.502-198.104 128-237.832v-52.78c-217.102-17.748-384-124.42-384-253.388h397.306c-8.664 30.53-13.306 62.732-13.306 96zM736 512c-159.058 0-288-128.942-288-288s128.942-288 288-288c159.056 0 288 128.942 288 288s-128.942 288-288 288zM896 192h-128v-128h-64v128h-128v64h128v128h64v-128h128v-64z" />
<glyph unicode="&#xe974;" glyph-name="user-minus" d="M384 224c0 151.234 95.874 280.486 230.032 330.2 16.28 36.538 25.968 77.164 25.968 117.8 0 159.058 0 288-192 288s-192-128.942-192-288c0-99.060 57.502-198.104 128-237.832v-52.78c-217.102-17.748-384-124.42-384-253.388h397.306c-8.664 30.53-13.306 62.732-13.306 96zM736 512c-159.058 0-288-128.942-288-288s128.942-288 288-288c159.056 0 288 128.942 288 288s-128.942 288-288 288zM896 192h-320v64h320v-64z" />
<glyph unicode="&#xe975;" glyph-name="user-check" d="M960 352l-288-288-96 96-64-64 160-160 352 352zM448 192h320v115.128c-67.22 39.2-156.308 66.11-256 74.26v52.78c70.498 39.728 128 138.772 128 237.832 0 159.058 0 288-192 288s-192-128.942-192-288c0-99.060 57.502-198.104 128-237.832v-52.78c-217.102-17.748-384-124.42-384-253.388h448v64z" />
<glyph unicode="&#xe984;" glyph-name="spinner" d="M1024 576h-384l143.53 143.53c-72.53 72.526-168.96 112.47-271.53 112.47s-199-39.944-271.53-112.47c-72.526-72.53-112.47-168.96-112.47-271.53s39.944-199 112.47-271.53c72.53-72.526 168.96-112.47 271.53-112.47s199 39.944 271.528 112.472c6.056 6.054 11.86 12.292 17.456 18.668l96.32-84.282c-93.846-107.166-231.664-174.858-385.304-174.858-282.77 0-512 229.23-512 512s229.23 512 512 512c141.386 0 269.368-57.326 362.016-149.984l149.984 149.984v-384z" />
<glyph unicode="&#xe98f;" glyph-name="lock" d="M592 512h-16v192c0 105.87-86.13 192-192 192h-128c-105.87 0-192-86.13-192-192v-192h-16c-26.4 0-48-21.6-48-48v-480c0-26.4 21.6-48 48-48h544c26.4 0 48 21.6 48 48v480c0 26.4-21.6 48-48 48zM192 704c0 35.29 28.71 64 64 64h128c35.29 0 64-28.71 64-64v-192h-256v192z" />
<glyph unicode="&#xe990;" glyph-name="lockx" d="M768 896c105.87 0 192-86.13 192-192v-192h-128v192c0 35.29-28.71 64-64 64h-128c-35.29 0-64-28.71-64-64v-192h16c26.4 0 48-21.6 48-48v-480c0-26.4-21.6-48-48-48h-544c-26.4 0-48 21.6-48 48v480c0 26.4 21.6 48 48 48h400v192c0 105.87 86.13 192 192 192h128z" />
<glyph unicode="&#xe991;" glyph-name="request" d="M1002.934 142.124l-460.552 394.76c21.448 40.298 33.618 86.282 33.618 135.116 0 159.058-128.942 288-288 288-29.094 0-57.172-4.332-83.646-12.354l166.39-166.39c24.89-24.89 24.89-65.62 0-90.51l-101.49-101.49c-24.89-24.89-65.62-24.89-90.51 0l-166.39 166.39c-8.022-26.474-12.354-54.552-12.354-83.646 0-159.058 128.942-288 288-288 48.834 0 94.818 12.17 135.116 33.62l394.76-460.552c22.908-26.724 62.016-28.226 86.904-3.338l101.492 101.492c24.888 24.888 23.386 63.994-3.338 86.902z" />
<glyph unicode="&#xe994;" glyph-name="cog" d="M933.79 349.75c-53.726 93.054-21.416 212.304 72.152 266.488l-100.626 174.292c-28.75-16.854-62.176-26.518-97.846-26.518-107.536 0-194.708 87.746-194.708 195.99h-201.258c0.266-33.41-8.074-67.282-25.958-98.252-53.724-93.056-173.156-124.702-266.862-70.758l-100.624-174.292c28.97-16.472 54.050-40.588 71.886-71.478 53.638-92.908 21.512-211.92-71.708-266.224l100.626-174.292c28.65 16.696 61.916 26.254 97.4 26.254 107.196 0 194.144-87.192 194.7-194.958h201.254c-0.086 33.074 8.272 66.57 25.966 97.218 53.636 92.906 172.776 124.594 266.414 71.012l100.626 174.29c-28.78 16.466-53.692 40.498-71.434 71.228zM512 240.668c-114.508 0-207.336 92.824-207.336 207.334 0 114.508 92.826 207.334 207.336 207.334 114.508 0 207.332-92.826 207.332-207.334-0.002-114.51-92.824-207.334-207.332-207.334z" />
<glyph unicode="&#xe995;" glyph-name="preference" d="M363.722 237.948l41.298 57.816-45.254 45.256-57.818-41.296c-10.722 5.994-22.204 10.774-34.266 14.192l-11.682 70.084h-64l-11.68-70.086c-12.062-3.418-23.544-8.198-34.266-14.192l-57.818 41.298-45.256-45.256 41.298-57.816c-5.994-10.72-10.774-22.206-14.192-34.266l-70.086-11.682v-64l70.086-11.682c3.418-12.060 8.198-23.544 14.192-34.266l-41.298-57.816 45.254-45.256 57.818 41.296c10.722-5.994 22.204-10.774 34.266-14.192l11.682-70.084h64l11.68 70.086c12.062 3.418 23.544 8.198 34.266 14.192l57.818-41.296 45.254 45.256-41.298 57.816c5.994 10.72 10.774 22.206 14.192 34.266l70.088 11.68v64l-70.086 11.682c-3.418 12.060-8.198 23.544-14.192 34.266zM224 96c-35.348 0-64 28.654-64 64s28.652 64 64 64 64-28.654 64-64-28.652-64-64-64zM1024 576v64l-67.382 12.25c-1.242 8.046-2.832 15.978-4.724 23.79l57.558 37.1-24.492 59.128-66.944-14.468c-4.214 6.91-8.726 13.62-13.492 20.13l39.006 56.342-45.256 45.254-56.342-39.006c-6.512 4.766-13.22 9.276-20.13 13.494l14.468 66.944-59.128 24.494-37.1-57.558c-7.812 1.892-15.744 3.482-23.79 4.724l-12.252 67.382h-64l-12.252-67.382c-8.046-1.242-15.976-2.832-23.79-4.724l-37.098 57.558-59.128-24.492 14.468-66.944c-6.91-4.216-13.62-8.728-20.13-13.494l-56.342 39.006-45.254-45.254 39.006-56.342c-4.766-6.51-9.278-13.22-13.494-20.13l-66.944 14.468-24.492-59.128 57.558-37.1c-1.892-7.812-3.482-15.742-4.724-23.79l-67.384-12.252v-64l67.382-12.25c1.242-8.046 2.832-15.978 4.724-23.79l-57.558-37.1 24.492-59.128 66.944 14.468c4.216-6.91 8.728-13.618 13.494-20.13l-39.006-56.342 45.254-45.256 56.342 39.006c6.51-4.766 13.22-9.276 20.13-13.492l-14.468-66.944 59.128-24.492 37.102 57.558c7.81-1.892 15.742-3.482 23.788-4.724l12.252-67.384h64l12.252 67.382c8.044 1.242 15.976 2.832 23.79 4.724l37.1-57.558 59.128 24.492-14.468 66.944c6.91 4.216 13.62 8.726 20.13 13.492l56.342-39.006 45.256 45.256-39.006 56.342c4.766 6.512 9.276 13.22 13.492 20.13l66.944-14.468 24.492 59.13-57.558 37.1c1.892 7.812 3.482 15.742 4.724 23.79l67.382 12.25zM672 468.8c-76.878 0-139.2 62.322-139.2 139.2s62.32 139.2 139.2 139.2 139.2-62.322 139.2-139.2c0-76.878-62.32-139.2-139.2-139.2z" />
<glyph unicode="&#xe996;" glyph-name="hammer" d="M1009.996 131.024l-301.544 301.544c-18.668 18.668-49.214 18.668-67.882 0l-22.626-22.626-184 184 302.056 302.058h-320l-142.058-142.058-14.060 14.058h-67.882v-67.882l14.058-14.058-206.058-206.060 160-160 206.058 206.058 184-184-22.626-22.626c-18.668-18.668-18.668-49.214 0-67.882l301.544-301.544c18.668-18.668 49.214-18.668 67.882 0l113.136 113.136c18.67 18.666 18.67 49.214 0.002 67.882z" />
<glyph unicode="&#xe99b;" glyph-name="stats-dots" d="M128 64h896v-128h-1024v1024h128zM288 128c-53.020 0-96 42.98-96 96s42.98 96 96 96c2.828 0 5.622-0.148 8.388-0.386l103.192 171.986c-9.84 15.070-15.58 33.062-15.58 52.402 0 53.020 42.98 96 96 96s96-42.98 96-96c0-19.342-5.74-37.332-15.58-52.402l103.192-171.986c2.766 0.238 5.56 0.386 8.388 0.386 2.136 0 4.248-0.094 6.35-0.23l170.356 298.122c-10.536 15.408-16.706 34.036-16.706 54.11 0 53.020 42.98 96 96 96s96-42.98 96-96c0-53.020-42.98-96-96-96-2.14 0-4.248 0.094-6.35 0.232l-170.356-298.124c10.536-15.406 16.706-34.036 16.706-54.11 0-53.020-42.98-96-96-96s-96 42.98-96 96c0 19.34 5.74 37.332 15.578 52.402l-103.19 171.984c-2.766-0.238-5.56-0.386-8.388-0.386s-5.622 0.146-8.388 0.386l-103.192-171.986c9.84-15.068 15.58-33.060 15.58-52.4 0-53.020-42.98-96-96-96z" />
<glyph unicode="&#xe99c;" glyph-name="stats-bars" d="M0 128h1024v-128h-1024zM128 384h128v-192h-128zM320 640h128v-448h-128zM512 448h128v-256h-128zM704 832h128v-640h-128z" />
<glyph unicode="&#xe9ac;" glyph-name="bin" d="M128 640v-640c0-35.2 28.8-64 64-64h576c35.2 0 64 28.8 64 64v640h-704zM320 64h-64v448h64v-448zM448 64h-64v448h64v-448zM576 64h-64v448h64v-448zM704 64h-64v448h64v-448zM848 832h-208v80c0 26.4-21.6 48-48 48h-224c-26.4 0-48-21.6-48-48v-80h-208c-26.4 0-48-21.6-48-48v-80h832v80c0 26.4-21.6 48-48 48zM576 832h-192v63.198h192v-63.198z" />
<glyph unicode="&#xe9b6;" glyph-name="logout" d="M640 813.412v-135.958c36.206-15.804 69.5-38.408 98.274-67.18 60.442-60.44 93.726-140.8 93.726-226.274s-33.286-165.834-93.726-226.274c-60.44-60.44-140.798-93.726-226.274-93.726s-165.834 33.286-226.274 93.726c-60.44 60.44-93.726 140.8-93.726 226.274s33.286 165.834 93.726 226.274c28.774 28.774 62.068 51.378 98.274 67.182v135.956c-185.048-55.080-320-226.472-320-429.412 0-247.424 200.578-448 448-448 247.424 0 448 200.576 448 448 0 202.94-134.95 374.332-320 429.412zM448 960h128v-512h-128z" />
<glyph unicode="&#xe9b8;" glyph-name="notice" d="M928 832h-288c0 70.692-57.306 128-128 128-70.692 0-128-57.308-128-128h-288c-17.672 0-32-14.328-32-32v-832c0-17.674 14.328-32 32-32h832c17.674 0 32 14.326 32 32v832c0 17.672-14.326 32-32 32zM512 896c35.346 0 64-28.654 64-64s-28.654-64-64-64c-35.346 0-64 28.654-64 64s28.654 64 64 64zM896 0h-768v768h128v-96c0-17.672 14.328-32 32-32h448c17.674 0 32 14.328 32 32v96h128v-768zM448 101.49l-205.254 237.254 58.508 58.51 146.746-114.744 274.742 242.744 58.514-58.508z" />
<glyph unicode="&#xe9bc;" glyph-name="workflow" d="M976 192h-16v208c0 61.756-50.242 112-112 112h-272v128h16c26.4 0 48 21.6 48 48v160c0 26.4-21.6 48-48 48h-160c-26.4 0-48-21.6-48-48v-160c0-26.4 21.6-48 48-48h16v-128h-272c-61.756 0-112-50.244-112-112v-208h-16c-26.4 0-48-21.6-48-48v-160c0-26.4 21.6-48 48-48h160c26.4 0 48 21.6 48 48v160c0 26.4-21.6 48-48 48h-16v192h256v-192h-16c-26.4 0-48-21.6-48-48v-160c0-26.4 21.6-48 48-48h160c26.4 0 48 21.6 48 48v160c0 26.4-21.6 48-48 48h-16v192h256v-192h-16c-26.4 0-48-21.6-48-48v-160c0-26.4 21.6-48 48-48h160c26.4 0 48 21.6 48 48v160c0 26.4-21.6 48-48 48zM192 0h-128v128h128v-128zM576 0h-128v128h128v-128zM448 704v128h128v-128h-128zM960 0h-128v128h128v-128z" />
<glyph unicode="&#xe9c5;" glyph-name="import" d="M896 448h-160l-224-224-224 224h-160l-128-256v-64h1024v64l-128 256zM0 64h1024v-64h-1024v64zM576 640v256h-128v-256h-224l288-288 288 288h-224z" />
<glyph unicode="&#xe9c6;" glyph-name="export" d="M0 64h1024v-64h-1024zM1024 192v-64h-1024v64l128 256h256v-128h256v128h256zM224 640l288 288 288-288h-224v-256h-128v256z" />
<glyph unicode="&#xe9c9;" glyph-name="web" d="M480 896c-265.096 0-480-214.904-480-480 0-265.098 214.904-480 480-480 265.098 0 480 214.902 480 480 0 265.096-214.902 480-480 480zM751.59 256c8.58 40.454 13.996 83.392 15.758 128h127.446c-3.336-44.196-13.624-87.114-30.68-128h-112.524zM208.41 576c-8.58-40.454-13.996-83.392-15.758-128h-127.444c3.336 44.194 13.622 87.114 30.678 128h112.524zM686.036 576c9.614-40.962 15.398-83.854 17.28-128h-191.316v128h174.036zM512 640v187.338c14.59-4.246 29.044-11.37 43.228-21.37 26.582-18.74 52.012-47.608 73.54-83.486 14.882-24.802 27.752-52.416 38.496-82.484h-155.264zM331.232 722.484c21.528 35.878 46.956 64.748 73.54 83.486 14.182 10 28.638 17.124 43.228 21.37v-187.34h-155.264c10.746 30.066 23.616 57.68 38.496 82.484zM448 576v-128h-191.314c1.88 44.146 7.666 87.038 17.278 128h174.036zM95.888 256c-17.056 40.886-27.342 83.804-30.678 128h127.444c1.762-44.608 7.178-87.546 15.758-128h-112.524zM256.686 384h191.314v-128h-174.036c-9.612 40.96-15.398 83.854-17.278 128zM448 192v-187.34c-14.588 4.246-29.044 11.372-43.228 21.37-26.584 18.74-52.014 47.61-73.54 83.486-14.882 24.804-27.75 52.418-38.498 82.484h155.266zM628.768 109.516c-21.528-35.876-46.958-64.746-73.54-83.486-14.184-9.998-28.638-17.124-43.228-21.37v187.34h155.266c-10.746-30.066-23.616-57.68-38.498-82.484zM512 256v128h191.314c-1.88-44.146-7.666-87.040-17.28-128h-174.034zM767.348 448c-1.762 44.608-7.178 87.546-15.758 128h112.524c17.056-40.886 27.344-83.806 30.68-128h-127.446zM830.658 640h-95.9c-18.638 58.762-44.376 110.294-75.316 151.428 42.536-20.34 81.058-47.616 114.714-81.272 21.48-21.478 40.362-44.938 56.502-70.156zM185.844 710.156c33.658 33.658 72.18 60.932 114.714 81.272-30.942-41.134-56.676-92.666-75.316-151.428h-95.898c16.138 25.218 35.022 48.678 56.5 70.156zM129.344 192h95.898c18.64-58.762 44.376-110.294 75.318-151.43-42.536 20.34-81.058 47.616-114.714 81.274-21.48 21.478-40.364 44.938-56.502 70.156zM774.156 121.844c-33.656-33.658-72.18-60.934-114.714-81.274 30.942 41.134 56.678 92.668 75.316 151.43h95.9c-16.14-25.218-35.022-48.678-56.502-70.156z" />
<glyph unicode="&#xe9cb;" glyph-name="link" d="M440.236 324.234c-13.31 0-26.616 5.076-36.77 15.23-95.134 95.136-95.134 249.934 0 345.070l192 192c46.088 46.086 107.36 71.466 172.534 71.466s126.448-25.38 172.536-71.464c95.132-95.136 95.132-249.934 0-345.070l-87.766-87.766c-20.308-20.308-53.23-20.308-73.54 0-20.306 20.306-20.306 53.232 0 73.54l87.766 87.766c54.584 54.586 54.584 143.404 0 197.99-26.442 26.442-61.6 41.004-98.996 41.004s-72.552-14.562-98.996-41.006l-192-191.998c-54.586-54.586-54.586-143.406 0-197.992 20.308-20.306 20.306-53.232 0-73.54-10.15-10.152-23.462-15.23-36.768-15.23zM256-52c-65.176 0-126.45 25.38-172.534 71.464-95.134 95.136-95.134 249.934 0 345.070l87.764 87.764c20.308 20.306 53.234 20.306 73.54 0 20.308-20.306 20.308-53.232 0-73.54l-87.764-87.764c-54.586-54.586-54.586-143.406 0-197.992 26.44-26.44 61.598-41.002 98.994-41.002s72.552 14.562 98.998 41.006l192 191.998c54.584 54.586 54.584 143.406 0 197.992-20.308 20.308-20.306 53.232 0 73.54 20.306 20.306 53.232 20.306 73.54-0.002 95.132-95.134 95.132-249.932 0.002-345.068l-192.002-192c-46.090-46.088-107.364-71.466-172.538-71.466z" />
<glyph unicode="&#xe9cd;" glyph-name="attachment1" d="M665.832 632.952l-64.952 64.922-324.81-324.742c-53.814-53.792-53.814-141.048 0-194.844 53.804-53.792 141.060-53.792 194.874 0l389.772 389.708c89.714 89.662 89.714 235.062 0 324.726-89.666 89.704-235.112 89.704-324.782 0l-409.23-409.178c-0.29-0.304-0.612-0.576-0.876-0.846-125.102-125.096-125.102-327.856 0-452.906 125.054-125.056 327.868-125.056 452.988 0 0.274 0.274 0.516 0.568 0.82 0.876l0.032-0.034 279.332 279.292-64.986 64.92-279.33-279.262c-0.296-0.268-0.564-0.57-0.846-0.844-89.074-89.058-233.98-89.058-323.076 0-89.062 89.042-89.062 233.922 0 322.978 0.304 0.304 0.604 0.582 0.888 0.846l-0.046 0.060 409.28 409.166c53.712 53.738 141.144 53.738 194.886 0 53.712-53.734 53.712-141.148 0-194.84l-389.772-389.7c-17.936-17.922-47.054-17.922-64.972 0-17.894 17.886-17.894 47.032 0 64.92l324.806 324.782z" />
<glyph unicode="&#xe9ce;" glyph-name="eye" d="M512 768c-223.318 0-416.882-130.042-512-320 95.118-189.958 288.682-320 512-320 223.312 0 416.876 130.042 512 320-95.116 189.958-288.688 320-512 320zM764.45 598.296c60.162-38.374 111.142-89.774 149.434-150.296-38.292-60.522-89.274-111.922-149.436-150.296-75.594-48.218-162.89-73.704-252.448-73.704-89.56 0-176.858 25.486-252.452 73.704-60.158 38.372-111.138 89.772-149.432 150.296 38.292 60.524 89.274 111.924 149.434 150.296 3.918 2.5 7.876 4.922 11.86 7.3-9.96-27.328-15.41-56.822-15.41-87.596 0-141.382 114.616-256 256-256 141.382 0 256 114.618 256 256 0 30.774-5.452 60.268-15.408 87.598 3.978-2.378 7.938-4.802 11.858-7.302v0zM512 544c0-53.020-42.98-96-96-96s-96 42.98-96 96 42.98 96 96 96 96-42.982 96-96z" />
<glyph unicode="&#xe9cf;" glyph-name="eye-plus" d="M1024 832h-128v128h-128v-128h-128v-128h128v-128h128v128h128zM863.862 513.972c18.436-20.478 35.192-42.53 50.022-65.972-38.292-60.522-89.274-111.922-149.436-150.296-75.594-48.218-162.89-73.704-252.448-73.704-89.56 0-176.86 25.486-252.454 73.704-60.156 38.372-111.136 89.772-149.43 150.296 38.292 60.524 89.274 111.924 149.434 150.296 3.918 2.5 7.876 4.922 11.862 7.3-9.962-27.328-15.412-56.822-15.412-87.596 0-141.382 114.616-256 256-256 141.38 0 256 114.618 256 256 0 0.692-0.018 1.38-0.024 2.072-109.284 28.138-190.298 126.63-191.932 244.31-21.026 2.38-42.394 3.618-64.044 3.618-223.318 0-416.882-130.042-512-320 95.118-189.958 288.682-320 512-320 223.31 0 416.876 130.042 512 320-17.64 35.23-38.676 68.394-62.65 99.054-29.28-17.178-62.272-28.71-97.488-33.082zM416 640c53.020 0 96-42.982 96-96 0-53.020-42.98-96-96-96s-96 42.98-96 96 42.98 96 96 96z" />
<glyph unicode="&#xe9d0;" glyph-name="eye-minus" d="M640 832h384v-128h-384v128zM870.32 640h-294.32v124.388c-21.014 2.376-42.364 3.612-64 3.612-223.318 0-416.882-130.042-512-320 95.118-189.958 288.682-320 512-320 223.31 0 416.876 130.042 512 320-37.396 74.686-90.020 140.1-153.68 192zM416 640c53.020 0 96-42.982 96-96 0-53.020-42.98-96-96-96s-96 42.98-96 96 42.98 96 96 96zM764.448 297.704c-75.594-48.218-162.89-73.704-252.448-73.704-89.56 0-176.86 25.486-252.454 73.704-60.156 38.372-111.136 89.772-149.43 150.296 38.292 60.524 89.274 111.924 149.434 150.296 3.918 2.5 7.876 4.922 11.862 7.3-9.962-27.328-15.412-56.822-15.412-87.596 0-141.382 114.616-256 256-256 141.38 0 256 114.618 256 256 0 30.774-5.454 60.268-15.408 87.598 3.976-2.378 7.938-4.802 11.858-7.302 60.162-38.374 111.142-89.774 149.434-150.296-38.292-60.522-89.274-111.922-149.436-150.296z" />
<glyph unicode="&#xe9d1;" glyph-name="eye-blocked" d="M945.942 945.942c-18.746 18.744-49.136 18.744-67.882 0l-202.164-202.164c-51.938 15.754-106.948 24.222-163.896 24.222-223.318 0-416.882-130.042-512-320 41.122-82.124 100.648-153.040 173.022-207.096l-158.962-158.962c-18.746-18.746-18.746-49.136 0-67.882 9.372-9.374 21.656-14.060 33.94-14.060s24.568 4.686 33.942 14.058l864 864c18.744 18.746 18.744 49.138 0 67.884zM416 640c42.24 0 78.082-27.294 90.92-65.196l-121.724-121.724c-37.902 12.838-65.196 48.68-65.196 90.92 0 53.020 42.98 96 96 96zM110.116 448c38.292 60.524 89.274 111.924 149.434 150.296 3.918 2.5 7.876 4.922 11.862 7.3-9.962-27.328-15.412-56.822-15.412-87.596 0-54.89 17.286-105.738 46.7-147.418l-60.924-60.924c-52.446 36.842-97.202 83.882-131.66 138.342zM768 518c0 27.166-4.256 53.334-12.102 77.898l-321.808-321.808c24.568-7.842 50.742-12.090 77.91-12.090 141.382 0 256 114.618 256 256zM830.026 670.026l-69.362-69.362c1.264-0.786 2.53-1.568 3.786-2.368 60.162-38.374 111.142-89.774 149.434-150.296-38.292-60.522-89.274-111.922-149.436-150.296-75.594-48.218-162.89-73.704-252.448-73.704-38.664 0-76.902 4.76-113.962 14.040l-76.894-76.894c59.718-21.462 123.95-33.146 190.856-33.146 223.31 0 416.876 130.042 512 320-45.022 89.916-112.118 166.396-193.974 222.026z" />
</font>
</defs>
</svg>
